<svg xmlns="http://www.w3.org/2000/svg" xmlns:xlink="http://www.w3.org/1999/xlink" width="500" zoomAndPan="magnify" viewBox="0 0 375 374.999991" height="500" preserveAspectRatio="xMidYMid meet" version="1.0"><defs><clipPath id="c45a17bc7d"><path d="M 126.867188 65.480469 L 227.363281 65.480469 L 227.363281 195.980469 L 126.867188 195.980469 Z M 126.867188 65.480469 " clip-rule="nonzero"/></clipPath><clipPath id="334c5fe265"><path d="M 143.363281 65.480469 L 210.734375 65.480469 C 219.847656 65.480469 227.234375 72.867188 227.234375 81.980469 L 227.234375 179.238281 C 227.234375 188.347656 219.847656 195.734375 210.734375 195.734375 L 143.363281 195.734375 C 134.253906 195.734375 126.867188 188.347656 126.867188 179.238281 L 126.867188 81.980469 C 126.867188 72.867188 134.253906 65.480469 143.363281 65.480469 Z M 143.363281 65.480469 " clip-rule="nonzero"/></clipPath><clipPath id="c3e5964ec8"><path d="M 97.300781 85.21875 L 197.675781 85.21875 L 197.675781 215.480469 L 97.300781 215.480469 Z M 97.300781 85.21875 " clip-rule="nonzero"/></clipPath><clipPath id="85a7d8ce74"><path d="M 113.800781 85.21875 L 181.175781 85.21875 C 190.289062 85.21875 197.675781 92.605469 197.675781 101.71875 L 197.675781 198.980469 C 197.675781 208.09375 190.289062 215.480469 181.175781 215.480469 L 113.800781 215.480469 C 104.6875 215.480469 97.300781 208.09375 97.300781 198.980469 L 97.300781 101.71875 C 97.300781 92.605469 104.6875 85.21875 113.800781 85.21875 Z M 113.800781 85.21875 " clip-rule="nonzero"/></clipPath><clipPath id="2f9ce69b0a"><path d="M 97.304688 85.21875 L 197.800781 85.21875 L 197.800781 215.71875 L 97.304688 215.71875 Z M 97.304688 85.21875 " clip-rule="nonzero"/></clipPath><clipPath id="8c83336fa3"><path d="M 113.800781 85.21875 L 181.171875 85.21875 C 190.28125 85.21875 197.667969 92.605469 197.667969 101.714844 L 197.667969 198.972656 C 197.667969 208.085938 190.28125 215.472656 181.171875 215.472656 L 113.800781 215.472656 C 104.691406 215.472656 97.304688 208.085938 97.304688 198.972656 L 97.304688 101.714844 C 97.304688 92.605469 104.691406 85.21875 113.800781 85.21875 Z M 113.800781 85.21875 " clip-rule="nonzero"/></clipPath></defs><g clip-path="url(#c45a17bc7d)"><g clip-path="url(#334c5fe265)"><path stroke-linecap="butt" transform="matrix(0.75, 0, 0, 0.75, 126.865998, 65.481874)" fill="none" stroke-linejoin="miter" d="M 21.996379 -0.0018738 L 111.82451 -0.0018738 C 123.975553 -0.0018738 133.824512 9.847085 133.824512 21.998128 L 133.824512 151.675219 C 133.824512 163.821054 123.975553 173.670013 111.82451 173.670013 L 21.996379 173.670013 C 9.850545 173.670013 0.00158631 163.821054 0.00158631 151.675219 L 0.00158631 21.998128 C 0.00158631 9.847085 9.850545 -0.0018738 21.996379 -0.0018738 Z M 21.996379 -0.0018738 " stroke="#593832" stroke-width="28" stroke-opacity="1" stroke-miterlimit="4"/></g></g><g clip-path="url(#c3e5964ec8)"><g clip-path="url(#85a7d8ce74)"><path fill="#ffffff" d="M 97.300781 85.21875 L 197.675781 85.21875 L 197.675781 215.480469 L 97.300781 215.480469 Z M 97.300781 85.21875 " fill-opacity="1" fill-rule="nonzero"/></g></g><g clip-path="url(#2f9ce69b0a)"><g clip-path="url(#8c83336fa3)"><path stroke-linecap="butt" transform="matrix(0.75, 0, 0, 0.75, 97.303124, 85.217404)" fill="none" stroke-linejoin="miter" d="M 21.996878 0.00179466 L 111.825009 0.00179466 C 123.970843 0.00179466 133.819802 9.850754 133.819802 21.996588 L 133.819802 151.67368 C 133.819802 163.824722 123.970843 173.673681 111.825009 173.673681 L 21.996878 173.673681 C 9.851044 173.673681 0.00208505 163.824722 0.00208505 151.67368 L 0.00208505 21.996588 C 0.00208505 9.850754 9.851044 0.00179466 21.996878 0.00179466 Z M 21.996878 0.00179466 " stroke="#593832" stroke-width="28" stroke-opacity="1" stroke-miterlimit="4"/></g></g></svg>