<svg xmlns="http://www.w3.org/2000/svg" xmlns:xlink="http://www.w3.org/1999/xlink" width="400" zoomAndPan="magnify" viewBox="0 0 300 299.999988" height="400" preserveAspectRatio="xMidYMid meet" version="1.0"><defs><g/></defs><g fill="#593832" fill-opacity="1"><g transform="translate(142.109602, 239.763308)"><g/></g></g><g fill="#593832" fill-opacity="1"><g transform="translate(136.130569, 239.329846)"><g><path d="M -16.054688 16.464844 C -15.8125 16.773438 -15.925781 17.25 -16.28125 17.417969 C -17.914062 18.230469 -18.984375 20.113281 -19.378906 21.78125 L -21.714844 30.40625 C -22.289062 32.847656 -21.808594 36.417969 -18.652344 37.160156 L -11.382812 38.863281 C -10.96875 38.964844 -10.527344 38.691406 -10.488281 38.257812 C -10.042969 36.101562 -8.699219 29.566406 -6.292969 19.324219 C -3.863281 8.960938 -2.175781 2.570312 -1.609375 0.4375 C -1.441406 -0.0234375 -1.714844 -0.464844 -2.128906 -0.5625 L -5.167969 -1.277344 C -5.585938 -1.375 -6.027344 -1.101562 -6.125 -0.683594 L -9.628906 15.585938 C -9.726562 16.003906 -10.167969 16.277344 -10.585938 16.179688 L -11.539062 15.957031 C -13.441406 15.507812 -12.976562 13.796875 -12.851562 13.257812 L -9.339844 -1.4375 C -9.183594 -1.839844 -9.457031 -2.28125 -9.871094 -2.378906 L -13.03125 -3.121094 C -13.507812 -3.234375 -13.886719 -2.945312 -14 -2.46875 L -16.902344 11.238281 C -17.28125 12.847656 -17.160156 15.011719 -16.054688 16.464844 Z M -17.003906 30.949219 L -14.851562 21.777344 C -14.710938 21.179688 -14.367188 19.4375 -12.460938 19.886719 L -11.507812 20.109375 C -11.089844 20.207031 -10.816406 20.648438 -10.914062 21.066406 L -14.03125 33.277344 C -14.128906 33.695312 -14.511719 33.984375 -14.929688 33.886719 L -15.703125 33.703125 C -17.609375 33.257812 -17.144531 31.542969 -17.003906 30.949219 Z M -17.003906 30.949219 "/></g></g></g><g fill="#593832" fill-opacity="1"><g transform="translate(122.73957, 236.220789)"><g><path d="M -16.332031 37.058594 C -15.929688 37.210938 -15.457031 36.996094 -15.363281 36.574219 C -14.644531 34.492188 -12.460938 28.1875 -8.726562 18.285156 C -4.992188 8.382812 -2.488281 2.265625 -1.65625 0.226562 C -1.425781 -0.210938 -1.636719 -0.683594 -2.039062 -0.835938 L -9.652344 -3.707031 C -10.054688 -3.855469 -10.527344 -3.644531 -10.675781 -3.242188 L -11.5625 -0.894531 C -11.714844 -0.496094 -11.476562 -0.078125 -11.078125 0.0703125 L -7.699219 1.347656 C -7.300781 1.496094 -7.140625 1.949219 -7.238281 2.371094 C -8.214844 5.140625 -9.648438 9.109375 -11.570312 14.207031 C -11.71875 14.605469 -12.136719 14.84375 -12.535156 14.691406 L -15.054688 13.742188 C -15.457031 13.589844 -15.929688 13.804688 -16.082031 14.203125 L -16.945312 16.492188 C -17.09375 16.894531 -16.882812 17.367188 -16.480469 17.519531 L -13.960938 18.46875 C -13.5625 18.621094 -13.402344 19.070312 -13.554688 19.472656 C -15.476562 24.566406 -17.046875 28.550781 -18.140625 31.277344 C -18.324219 31.597656 -18.742188 31.835938 -19.140625 31.683594 L -22.519531 30.410156 C -22.921875 30.257812 -23.394531 30.472656 -23.542969 30.875 L -24.40625 33.164062 C -24.558594 33.5625 -24.34375 34.035156 -23.945312 34.1875 Z M -16.332031 37.058594 "/></g></g></g><g fill="#593832" fill-opacity="1"><g transform="translate(112.631652, 232.641274)"><g><path d="M -21.605469 28.070312 C -21.976562 28.773438 -23.058594 29.238281 -24.03125 28.71875 C -25.054688 28.175781 -25.054688 27.132812 -24.683594 26.433594 C -24.507812 26.109375 -24.453125 26 -24.453125 26 L -21.410156 20.550781 C -21.179688 20.117188 -21.359375 19.675781 -21.738281 19.472656 L -24.492188 18.007812 C -24.871094 17.804688 -25.339844 17.902344 -25.570312 18.335938 L -28.394531 23.902344 C -30.003906 26.925781 -29.492188 30.386719 -25.925781 32.285156 C -22.308594 34.210938 -19.097656 32.734375 -17.488281 29.710938 L -16.046875 27.011719 C -12.109375 19.613281 -17.082031 11.902344 -12.28125 2.886719 C -12.28125 2.886719 -11.101562 0.671875 -10.929688 0.347656 C -10.527344 -0.40625 -9.53125 -0.847656 -8.503906 -0.300781 C -7.476562 0.246094 -7.449219 1.230469 -7.851562 1.988281 C -7.9375 2.148438 -7.996094 2.257812 -8.082031 2.417969 L -11.121094 7.871094 C -11.324219 8.246094 -11.226562 8.714844 -10.792969 8.945312 L -8.039062 10.410156 C -7.664062 10.613281 -7.21875 10.433594 -7.019531 10.054688 L -4.195312 4.488281 C -2.554688 1.414062 -3.042969 -1.964844 -6.660156 -3.894531 C -10.222656 -5.792969 -13.460938 -4.398438 -15.101562 -1.320312 L -16.539062 1.378906 C -21.339844 10.398438 -16.3125 18.136719 -20.222656 25.480469 C -20.222656 25.480469 -21.402344 27.695312 -21.605469 28.070312 Z M -21.605469 28.070312 "/></g></g></g><g fill="#593832" fill-opacity="1"><g transform="translate(100.838338, 226.536863)"><g><path d="M -31.914062 26.695312 C -31.566406 26.945312 -31.089844 26.914062 -30.800781 26.519531 C -29.191406 24.210938 -23.21875 15.617188 -11.964844 0.203125 C -11.964844 0.203125 -11.929688 0.152344 -11.675781 -0.191406 C -10.882812 -1.28125 -9.761719 -2.503906 -8.425781 -1.53125 C -6.992188 -0.484375 -8.191406 1.367188 -8.664062 2.007812 C -8.878906 2.304688 -8.949219 2.402344 -8.949219 2.402344 C -20.207031 17.820312 -26.574219 26.125 -28.28125 28.359375 C -28.570312 28.753906 -28.453125 29.21875 -28.109375 29.472656 L -25.589844 31.3125 C -25.242188 31.5625 -24.765625 31.535156 -24.5625 31.152344 L -5.691406 4.785156 C -3.667969 2.015625 -2.242188 -2.015625 -6.046875 -4.792969 C -9.75 -7.5 -12.882812 -5.390625 -15.226562 -2.179688 L -34.640625 23.792969 C -34.894531 24.136719 -34.777344 24.601562 -34.433594 24.855469 Z M -31.914062 26.695312 "/></g></g></g><g fill="#593832" fill-opacity="1"><g transform="translate(90.164398, 219.392434)"><g><path d="M -42.992188 13.683594 L -38.574219 18.261719 C -38.273438 18.570312 -37.84375 18.578125 -37.535156 18.28125 L -22.769531 5.566406 L -16 -0.371094 C -15.738281 -0.539062 -15.398438 -0.1875 -15.621094 0.0234375 L -21.75 6.621094 L -35.027344 20.878906 C -35.335938 21.175781 -35.300781 21.652344 -35.046875 21.917969 L -30.628906 26.496094 C -30.332031 26.804688 -29.8125 26.8125 -29.546875 26.472656 C -28.046875 24.941406 -23.375 20.179688 -15.71875 12.785156 C -8.101562 5.4375 -3.132812 0.894531 -1.546875 -0.546875 C -1.195312 -0.800781 -1.1875 -1.320312 -1.484375 -1.628906 L -3.652344 -3.871094 C -3.949219 -4.179688 -4.46875 -4.191406 -4.734375 -3.847656 C -6.230469 -2.316406 -10.949219 2.488281 -18.5625 9.835938 C -22.964844 14.085938 -26.96875 17.863281 -29.828125 20.539062 C -30.09375 20.792969 -30.433594 20.441406 -30.257812 20.183594 C -27.652344 17.246094 -23.898438 13.117188 -19.839844 8.601562 C -12.601562 0.597656 -8.015625 -4.253906 -6.515625 -5.785156 C -6.253906 -6.039062 -6.246094 -6.472656 -6.542969 -6.78125 L -8.878906 -9.199219 C -9.175781 -9.507812 -9.609375 -9.515625 -9.871094 -9.261719 C -11.457031 -7.820312 -16.425781 -3.363281 -24.722656 3.539062 C -29.378906 7.4375 -33.640625 11.039062 -36.671875 13.539062 C -36.933594 13.707031 -37.273438 13.355469 -37.007812 13.097656 C -34.234375 10.335938 -30.316406 6.46875 -25.914062 2.222656 C -18.296875 -5.128906 -13.328125 -9.667969 -11.699219 -11.066406 C -11.394531 -11.367188 -11.382812 -11.882812 -11.636719 -12.148438 L -13.847656 -14.4375 C -14.144531 -14.746094 -14.664062 -14.753906 -14.929688 -14.414062 C -16.429688 -12.882812 -21.101562 -8.035156 -28.761719 -0.640625 C -36.375 6.707031 -41.34375 11.160156 -42.929688 12.605469 C -43.234375 12.902344 -43.289062 13.378906 -42.992188 13.683594 Z M -42.992188 13.683594 "/></g></g></g><g fill="#593832" fill-opacity="1"><g transform="translate(76.529756, 205.001729)"><g><path d="M -34.457031 21.277344 C -34.214844 21.628906 -33.703125 21.722656 -33.386719 21.425781 C -31.613281 20.121094 -26.242188 16.160156 -17.554688 10.121094 C -8.863281 4.078125 -3.335938 0.457031 -1.492188 -0.75 C -1.054688 -0.980469 -0.960938 -1.492188 -1.207031 -1.84375 L -5.851562 -8.523438 C -6.097656 -8.875 -6.609375 -8.96875 -6.960938 -8.722656 L -9.019531 -7.289062 C -9.371094 -7.046875 -9.410156 -6.570312 -9.167969 -6.21875 L -7.105469 -3.253906 C -6.863281 -2.902344 -6.988281 -2.441406 -7.304688 -2.148438 C -9.679688 -0.421875 -13.113281 2.039062 -17.582031 5.148438 C -17.933594 5.390625 -18.410156 5.351562 -18.65625 5 L -20.191406 2.789062 C -20.4375 2.4375 -20.945312 2.34375 -21.296875 2.589844 L -23.308594 3.988281 C -23.660156 4.230469 -23.75 4.742188 -23.507812 5.09375 L -21.96875 7.304688 C -21.726562 7.65625 -21.851562 8.117188 -22.203125 8.359375 C -26.675781 11.46875 -30.226562 13.863281 -32.671875 15.488281 C -33.007812 15.648438 -33.484375 15.609375 -33.726562 15.257812 L -35.789062 12.292969 C -36.03125 11.941406 -36.542969 11.847656 -36.894531 12.09375 L -38.902344 13.492188 C -39.253906 13.734375 -39.347656 14.246094 -39.101562 14.597656 Z M -34.457031 21.277344 "/></g></g></g><g fill="#593832" fill-opacity="1"><g transform="translate(70.144895, 195.730321)"><g/></g></g><g fill="#593832" fill-opacity="1"><g transform="translate(66.888242, 190.049195)"><g/></g></g><g fill="#593832" fill-opacity="1"><g transform="translate(64.035745, 184.154776)"><g/></g></g><g fill="#593832" fill-opacity="1"><g transform="translate(61.376629, 179.281113)"><g><path d="M -22.8125 0.625 C -25.457031 1.257812 -27.5 1.078125 -28.9375 0.078125 C -30.375 -0.921875 -31.3125 -2.351562 -31.75 -4.21875 C -32.1875 -6.039062 -31.992188 -7.734375 -31.171875 -9.296875 C -30.359375 -10.859375 -28.628906 -11.957031 -25.984375 -12.59375 C -23.367188 -13.21875 -21.328125 -13.019531 -19.859375 -12 C -18.398438 -10.988281 -17.453125 -9.570312 -17.015625 -7.75 C -16.578125 -5.882812 -16.78125 -4.175781 -17.625 -2.625 C -18.46875 -1.082031 -20.195312 0 -22.8125 0.625 Z M -22.8125 0.625 "/></g></g></g><g fill="#593832" fill-opacity="1"><g transform="translate(56.907283, 158.978928)"><g/></g></g><g fill="#593832" fill-opacity="1"><g transform="translate(56.246116, 152.464039)"><g/></g></g><g fill="#593832" fill-opacity="1"><g transform="translate(56.040959, 145.91892)"><g/></g></g><g fill="#593832" fill-opacity="1"><g transform="translate(55.998265, 139.92585)"><g><path d="M -17.683594 -14.703125 C -17.972656 -14.4375 -18.457031 -14.511719 -18.652344 -14.847656 C -19.589844 -16.414062 -21.554688 -17.332031 -23.246094 -17.59375 L -32.03125 -19.242188 C -34.511719 -19.617188 -38.03125 -18.855469 -38.519531 -15.648438 L -39.644531 -8.273438 C -39.710938 -7.847656 -39.402344 -7.429688 -38.96875 -7.425781 C -36.78125 -7.15625 -30.164062 -6.332031 -19.761719 -4.746094 C -9.238281 -3.140625 -2.734375 -1.964844 -0.566406 -1.570312 C -0.0898438 -1.4375 0.328125 -1.746094 0.390625 -2.167969 L 0.863281 -5.253906 C 0.925781 -5.675781 0.621094 -6.09375 0.195312 -6.160156 L -16.300781 -8.363281 C -16.722656 -8.429688 -17.03125 -8.847656 -16.964844 -9.269531 L -16.820312 -10.238281 C -16.523438 -12.171875 -14.777344 -11.84375 -14.234375 -11.761719 L 0.695312 -9.425781 C 1.109375 -9.300781 1.527344 -9.605469 1.589844 -10.03125 L 2.078125 -13.234375 C 2.152344 -13.71875 1.835938 -14.078125 1.351562 -14.152344 L -12.542969 -15.960938 C -14.175781 -16.207031 -16.324219 -15.917969 -17.683594 -14.703125 Z M -32.195312 -14.5 L -22.882812 -13.082031 C -22.277344 -12.988281 -20.515625 -12.78125 -20.808594 -10.847656 L -20.957031 -9.878906 C -21.023438 -9.457031 -21.441406 -9.148438 -21.863281 -9.210938 L -34.285156 -11.355469 C -34.710938 -11.417969 -35.027344 -11.777344 -34.960938 -12.199219 L -34.839844 -12.984375 C -34.546875 -14.921875 -32.800781 -14.59375 -32.195312 -14.5 Z M -32.195312 -14.5 "/></g></g></g><g fill="#593832" fill-opacity="1"><g transform="translate(58.037398, 126.330739)"><g><path d="M -38.234375 -13.34375 C -38.355469 -12.933594 -38.105469 -12.480469 -37.675781 -12.417969 C -35.542969 -11.867188 -29.085938 -10.191406 -18.917969 -7.253906 C -8.75 -4.3125 -2.453125 -2.300781 -0.355469 -1.632812 C 0.0976562 -1.4375 0.550781 -1.6875 0.671875 -2.097656 L 2.929688 -9.914062 C 3.050781 -10.328125 2.796875 -10.78125 2.386719 -10.898438 L -0.0234375 -11.597656 C -0.433594 -11.714844 -0.828125 -11.449219 -0.949219 -11.035156 L -1.953125 -7.570312 C -2.070312 -7.15625 -2.507812 -6.964844 -2.9375 -7.027344 C -5.773438 -7.78125 -9.847656 -8.894531 -15.078125 -10.410156 C -15.488281 -10.527344 -15.757812 -10.921875 -15.636719 -11.335938 L -14.890625 -13.921875 C -14.769531 -14.332031 -15.019531 -14.785156 -15.433594 -14.90625 L -17.785156 -15.585938 C -18.195312 -15.703125 -18.648438 -15.453125 -18.769531 -15.042969 L -19.515625 -12.457031 C -19.636719 -12.042969 -20.074219 -11.851562 -20.484375 -11.972656 C -25.714844 -13.484375 -29.8125 -14.730469 -32.617188 -15.605469 C -32.953125 -15.765625 -33.21875 -16.160156 -33.101562 -16.574219 L -32.097656 -20.039062 C -31.980469 -20.453125 -32.230469 -20.90625 -32.640625 -21.027344 L -34.992188 -21.707031 C -35.402344 -21.824219 -35.859375 -21.574219 -35.976562 -21.164062 Z M -38.234375 -13.34375 "/></g></g></g><g fill="#593832" fill-opacity="1"><g transform="translate(60.805953, 115.970564)"><g><path d="M -29.695312 -19.3125 C -30.421875 -19.632812 -30.972656 -20.671875 -30.53125 -21.679688 C -30.070312 -22.746094 -29.03125 -22.828125 -28.304688 -22.511719 C -27.96875 -22.367188 -27.855469 -22.316406 -27.855469 -22.316406 L -22.179688 -19.714844 C -21.730469 -19.523438 -21.304688 -19.734375 -21.132812 -20.128906 L -19.890625 -22.992188 C -19.71875 -23.382812 -19.855469 -23.839844 -20.300781 -24.035156 L -26.074219 -26.414062 C -29.214844 -27.777344 -32.625 -26.992188 -34.234375 -23.289062 C -35.871094 -19.53125 -34.144531 -16.445312 -31 -15.078125 L -28.195312 -13.859375 C -20.511719 -10.519531 -13.21875 -16.085938 -3.847656 -12.011719 C -3.847656 -12.011719 -1.550781 -11.011719 -1.210938 -10.867188 C -0.425781 -10.527344 0.0898438 -9.566406 -0.375 -8.5 C -0.835938 -7.433594 -1.816406 -7.328125 -2.601562 -7.667969 C -2.769531 -7.742188 -2.882812 -7.792969 -3.050781 -7.863281 L -8.726562 -10.464844 C -9.117188 -10.636719 -9.578125 -10.5 -9.773438 -10.050781 L -11.015625 -7.191406 C -11.1875 -6.796875 -10.972656 -6.371094 -10.578125 -6.199219 L -4.808594 -3.824219 C -1.609375 -2.433594 1.71875 -3.1875 3.355469 -6.945312 C 4.964844 -10.648438 3.316406 -13.765625 0.121094 -15.15625 L -2.6875 -16.378906 C -12.054688 -20.449219 -19.371094 -14.824219 -27 -18.144531 C -27 -18.144531 -29.300781 -19.144531 -29.695312 -19.3125 Z M -29.695312 -19.3125 "/></g></g></g><g fill="#593832" fill-opacity="1"><g transform="translate(65.957505, 103.730972)"><g><path d="M -29.136719 -29.699219 C -29.359375 -29.335938 -29.292969 -28.859375 -28.875 -28.605469 C -26.445312 -27.183594 -17.40625 -21.910156 -1.148438 -11.910156 C -1.148438 -11.910156 -1.097656 -11.878906 -0.730469 -11.65625 C 0.414062 -10.949219 1.726562 -9.929688 0.859375 -8.519531 C -0.0703125 -7.007812 -2.011719 -8.058594 -2.6875 -8.476562 C -3 -8.667969 -3.105469 -8.730469 -3.105469 -8.730469 C -19.363281 -18.730469 -28.144531 -24.421875 -30.511719 -25.945312 C -30.925781 -26.203125 -31.378906 -26.050781 -31.605469 -25.6875 L -33.238281 -23.027344 C -33.464844 -22.664062 -33.394531 -22.191406 -33 -22.019531 L -5.21875 -5.292969 C -2.300781 -3.5 1.832031 -2.394531 4.296875 -6.40625 C 6.703125 -10.3125 4.351562 -13.265625 0.964844 -15.351562 L -26.460938 -32.648438 C -26.824219 -32.875 -27.277344 -32.722656 -27.503906 -32.355469 Z M -29.136719 -29.699219 "/></g></g></g><g fill="#593832" fill-opacity="1"><g transform="translate(72.236364, 92.522805)"><g><path d="M -17.046875 -41.773438 L -21.261719 -37.003906 C -21.542969 -36.683594 -21.515625 -36.253906 -21.195312 -35.96875 L -7.351562 -22.257812 L -0.898438 -15.980469 C -0.707031 -15.734375 -1.03125 -15.367188 -1.261719 -15.570312 L -8.324219 -21.160156 L -23.585938 -33.265625 C -23.90625 -33.546875 -24.378906 -33.476562 -24.625 -33.199219 L -28.835938 -28.433594 C -29.121094 -28.113281 -29.089844 -27.59375 -28.726562 -27.359375 C -27.082031 -25.984375 -21.964844 -21.707031 -13.992188 -14.65625 C -6.0625 -7.644531 -1.140625 -3.050781 0.421875 -1.585938 C 0.703125 -1.257812 1.222656 -1.289062 1.503906 -1.609375 L 3.570312 -3.945312 C 3.855469 -4.269531 3.824219 -4.785156 3.460938 -5.023438 C 1.816406 -6.394531 -3.347656 -10.714844 -11.277344 -17.726562 C -15.859375 -21.777344 -19.945312 -25.472656 -22.835938 -28.109375 C -23.113281 -28.351562 -22.789062 -28.71875 -22.515625 -28.5625 C -19.382812 -26.199219 -14.96875 -22.785156 -10.144531 -19.097656 C -1.59375 -12.515625 3.605469 -8.328125 5.25 -6.953125 C 5.523438 -6.710938 5.957031 -6.738281 6.238281 -7.058594 L 8.46875 -9.578125 C 8.753906 -9.898438 8.726562 -10.332031 8.449219 -10.574219 C 6.886719 -12.039062 2.054688 -16.640625 -5.488281 -24.367188 C -9.742188 -28.699219 -13.667969 -32.660156 -16.398438 -35.484375 C -16.585938 -35.734375 -16.261719 -36.097656 -15.988281 -35.855469 C -13.015625 -33.308594 -8.847656 -29.707031 -4.265625 -25.65625 C 3.664062 -18.644531 8.582031 -14.050781 10.105469 -12.539062 C 10.429688 -12.257812 10.945312 -12.289062 11.1875 -12.5625 L 13.296875 -14.945312 C 13.578125 -15.269531 13.546875 -15.785156 13.1875 -16.023438 C 11.542969 -17.394531 6.339844 -21.671875 -1.636719 -28.722656 C -9.566406 -35.730469 -14.398438 -40.332031 -15.964844 -41.796875 C -16.285156 -42.078125 -16.761719 -42.09375 -17.046875 -41.773438 Z M -17.046875 -41.773438 "/></g></g></g><g fill="#593832" fill-opacity="1"><g transform="translate(85.499941, 77.794299)"><g><path d="M -23.9375 -32.664062 C -24.269531 -32.394531 -24.320312 -31.878906 -24.003906 -31.585938 C -22.558594 -29.921875 -18.1875 -24.878906 -11.476562 -16.695312 C -4.765625 -8.511719 -0.71875 -3.289062 0.632812 -1.546875 C 0.894531 -1.128906 1.410156 -1.078125 1.742188 -1.347656 L 8.035156 -6.507812 C 8.363281 -6.78125 8.414062 -7.296875 8.144531 -7.628906 L 6.554688 -9.566406 C 6.28125 -9.898438 5.804688 -9.902344 5.472656 -9.632812 L 2.683594 -7.34375 C 2.351562 -7.070312 1.882812 -7.160156 1.5625 -7.453125 C -0.347656 -9.683594 -3.070312 -12.910156 -6.523438 -17.121094 C -6.792969 -17.449219 -6.792969 -17.929688 -6.460938 -18.199219 L -4.378906 -19.90625 C -4.046875 -20.179688 -3.996094 -20.695312 -4.269531 -21.027344 L -5.820312 -22.917969 C -6.089844 -23.25 -6.609375 -23.300781 -6.9375 -23.03125 L -9.019531 -21.324219 C -9.351562 -21.050781 -9.820312 -21.140625 -10.09375 -21.472656 C -13.542969 -25.683594 -16.214844 -29.03125 -18.027344 -31.339844 C -18.214844 -31.664062 -18.210938 -32.140625 -17.878906 -32.414062 L -15.085938 -34.703125 C -14.757812 -34.972656 -14.707031 -35.492188 -14.976562 -35.820312 L -16.527344 -37.714844 C -16.800781 -38.046875 -17.316406 -38.097656 -17.648438 -37.824219 Z M -23.9375 -32.664062 "/></g></g></g><g fill="#593832" fill-opacity="1"><g transform="translate(94.238161, 70.693927)"><g/></g></g><g fill="#593832" fill-opacity="1"><g transform="translate(99.643607, 66.997705)"><g/></g></g><g fill="#593832" fill-opacity="1"><g transform="translate(105.293681, 63.687498)"><g/></g></g><g fill="#593832" fill-opacity="1"><g transform="translate(109.940329, 60.652156)"><g><path d="M -2.4375 -22.6875 C -3.28125 -25.28125 -3.257812 -27.332031 -2.375 -28.84375 C -1.488281 -30.351562 -0.132812 -31.40625 1.6875 -32 C 3.46875 -32.570312 5.171875 -32.507812 6.796875 -31.8125 C 8.421875 -31.125 9.65625 -29.484375 10.5 -26.890625 C 11.332031 -24.335938 11.296875 -22.289062 10.390625 -20.75 C 9.492188 -19.21875 8.15625 -18.164062 6.375 -17.59375 C 4.550781 -17 2.832031 -17.0625 1.21875 -17.78125 C -0.382812 -18.5 -1.601562 -20.132812 -2.4375 -22.6875 Z M -2.4375 -22.6875 "/></g></g></g><g fill="#593832" fill-opacity="1"><g transform="translate(129.826129, 54.588198)"><g/></g></g><g fill="#593832" fill-opacity="1"><g transform="translate(136.268217, 53.413317)"><g/></g></g><g fill="#593832" fill-opacity="1"><g transform="translate(142.776569, 52.690601)"><g/></g></g><g fill="#593832" fill-opacity="1"><g transform="translate(148.746032, 52.175082)"><g><path d="M 13.253906 -18.792969 C 12.96875 -19.058594 13.003906 -19.546875 13.324219 -19.769531 C 14.8125 -20.828125 15.574219 -22.859375 15.695312 -24.566406 L 16.644531 -33.453125 C 16.824219 -35.957031 15.785156 -39.40625 12.550781 -39.636719 L 5.105469 -40.175781 C 4.679688 -40.207031 4.289062 -39.867188 4.316406 -39.433594 C 4.21875 -37.234375 3.921875 -30.570312 3.164062 -20.074219 C 2.398438 -9.457031 1.742188 -2.878906 1.523438 -0.6875 C 1.425781 -0.203125 1.765625 0.1875 2.191406 0.21875 L 5.304688 0.445312 C 5.730469 0.476562 6.125 0.136719 6.15625 -0.292969 L 7.046875 -16.910156 C 7.078125 -17.339844 7.46875 -17.679688 7.898438 -17.648438 L 8.875 -17.578125 C 10.828125 -17.4375 10.636719 -15.671875 10.597656 -15.121094 L 9.449219 -0.0546875 C 9.359375 0.367188 9.699219 0.761719 10.125 0.792969 L 13.359375 1.023438 C 13.847656 1.058594 14.179688 0.714844 14.214844 0.226562 L 14.917969 -13.765625 C 15.035156 -15.414062 14.574219 -17.535156 13.253906 -18.792969 Z M 11.90625 -33.242188 L 11.226562 -23.847656 C 11.183594 -23.238281 11.117188 -21.464844 9.164062 -21.605469 L 8.1875 -21.675781 C 7.761719 -21.707031 7.421875 -22.097656 7.453125 -22.523438 L 8.605469 -35.078125 C 8.632812 -35.503906 8.964844 -35.847656 9.394531 -35.816406 L 10.1875 -35.761719 C 12.140625 -35.621094 11.949219 -33.855469 11.90625 -33.242188 Z M 11.90625 -33.242188 "/></g></g></g><g fill="#593832" fill-opacity="1"><g transform="translate(162.459919, 53.131467)"><g><path d="M 10.277344 -39.171875 C 9.855469 -39.257812 9.421875 -38.972656 9.398438 -38.539062 C 9.015625 -36.371094 7.855469 -29.800781 5.730469 -19.433594 C 3.605469 -9.066406 2.101562 -2.628906 1.597656 -0.484375 C 1.441406 -0.015625 1.726562 0.417969 2.144531 0.503906 L 10.117188 2.136719 C 10.535156 2.222656 10.96875 1.9375 11.054688 1.515625 L 11.558594 -0.941406 C 11.644531 -1.359375 11.347656 -1.734375 10.925781 -1.820312 L 7.390625 -2.542969 C 6.972656 -2.628906 6.746094 -3.050781 6.769531 -3.484375 C 7.300781 -6.371094 8.089844 -10.519531 9.183594 -15.855469 C 9.269531 -16.273438 9.640625 -16.570312 10.0625 -16.484375 L 12.699219 -15.945312 C 13.117188 -15.859375 13.550781 -16.144531 13.636719 -16.566406 L 14.128906 -18.960938 C 14.214844 -19.382812 13.929688 -19.816406 13.507812 -19.902344 L 10.871094 -20.441406 C 10.453125 -20.527344 10.226562 -20.949219 10.3125 -21.367188 C 11.40625 -26.703125 12.324219 -30.882812 12.972656 -33.75 C 13.109375 -34.097656 13.480469 -34.394531 13.902344 -34.308594 L 17.4375 -33.582031 C 17.855469 -33.496094 18.289062 -33.785156 18.375 -34.203125 L 18.867188 -36.601562 C 18.953125 -37.019531 18.667969 -37.453125 18.246094 -37.539062 Z M 10.277344 -39.171875 "/></g></g></g><g fill="#593832" fill-opacity="1"><g transform="translate(173.007292, 55.070508)"><g><path d="M 16.902344 -31.128906 C 17.160156 -31.882812 18.152344 -32.511719 19.195312 -32.152344 C 20.292969 -31.777344 20.460938 -30.75 20.199219 -29.996094 C 20.082031 -29.648438 20.042969 -29.535156 20.042969 -29.535156 L 17.898438 -23.671875 C 17.738281 -23.210938 17.988281 -22.800781 18.390625 -22.660156 L 21.34375 -21.648438 C 21.75 -21.507812 22.195312 -21.679688 22.355469 -22.140625 L 24.265625 -28.082031 C 25.378906 -31.324219 24.324219 -34.660156 20.507812 -35.972656 C 16.628906 -37.304688 13.691406 -35.339844 12.578125 -32.097656 L 11.585938 -29.203125 C 8.859375 -21.277344 14.988281 -14.449219 11.671875 -4.789062 C 11.671875 -4.789062 10.855469 -2.417969 10.738281 -2.070312 C 10.457031 -1.257812 9.542969 -0.667969 8.445312 -1.046875 C 7.34375 -1.421875 7.160156 -2.390625 7.4375 -3.203125 C 7.5 -3.375 7.539062 -3.492188 7.597656 -3.664062 L 9.742188 -9.527344 C 9.878906 -9.929688 9.710938 -10.378906 9.246094 -10.539062 L 6.296875 -11.550781 C 5.890625 -11.691406 5.484375 -11.441406 5.34375 -11.035156 L 3.433594 -5.09375 C 2.300781 -1.796875 3.3125 1.460938 7.191406 2.792969 C 11.007812 4.105469 13.988281 2.21875 15.121094 -1.082031 L 16.113281 -3.972656 C 19.433594 -13.636719 13.246094 -20.484375 15.949219 -28.351562 C 15.949219 -28.351562 16.761719 -30.726562 16.902344 -31.128906 Z M 16.902344 -31.128906 "/></g></g></g><g fill="#593832" fill-opacity="1"><g transform="translate(185.616322, 59.236859)"><g><path d="M 27.300781 -31.398438 C 26.917969 -31.589844 26.453125 -31.484375 26.230469 -31.050781 C 25.003906 -28.515625 20.464844 -19.085938 11.78125 -2.089844 C 11.78125 -2.089844 11.753906 -2.035156 11.558594 -1.652344 C 10.949219 -0.453125 10.035156 0.933594 8.5625 0.183594 C 6.980469 -0.625 7.875 -2.640625 8.238281 -3.351562 C 8.402344 -3.675781 8.460938 -3.785156 8.460938 -3.785156 C 17.140625 -20.785156 22.117188 -29.992188 23.449219 -32.46875 C 23.671875 -32.90625 23.484375 -33.34375 23.105469 -33.539062 L 20.324219 -34.957031 C 19.945312 -35.152344 19.476562 -35.046875 19.335938 -34.636719 L 4.863281 -5.621094 C 3.304688 -2.570312 2.53125 1.636719 6.726562 3.777344 C 10.8125 5.863281 13.570312 3.289062 15.378906 -0.253906 L 30.453125 -28.960938 C 30.648438 -29.34375 30.457031 -29.78125 30.078125 -29.976562 Z M 27.300781 -31.398438 "/></g></g></g><g fill="#593832" fill-opacity="1"><g transform="translate(197.288377, 64.606532)"><g><path d="M 40.292969 -20.300781 L 35.207031 -24.121094 C 34.863281 -24.378906 34.433594 -24.320312 34.179688 -23.976562 L 21.605469 -9.089844 L 15.859375 -2.160156 C 15.628906 -1.953125 15.234375 -2.246094 15.417969 -2.488281 L 20.433594 -9.972656 L 31.292969 -26.148438 C 31.550781 -26.488281 31.441406 -26.953125 31.148438 -27.175781 L 26.0625 -31 C 25.71875 -31.253906 25.207031 -31.183594 24.996094 -30.804688 C 23.757812 -29.054688 19.898438 -23.613281 13.5 -15.105469 C 7.140625 -6.648438 2.949219 -1.378906 1.613281 0.296875 C 1.308594 0.601562 1.382812 1.113281 1.722656 1.371094 L 4.21875 3.246094 C 4.558594 3.503906 5.074219 3.433594 5.28125 3.054688 C 6.519531 1.304688 10.417969 -4.183594 16.777344 -12.644531 C 20.453125 -17.535156 23.8125 -21.898438 26.214844 -24.992188 C 26.433594 -25.285156 26.824219 -24.988281 26.691406 -24.707031 C 24.582031 -21.394531 21.53125 -16.726562 18.234375 -11.625 C 12.347656 -2.578125 8.585938 2.933594 7.347656 4.683594 C 7.128906 4.976562 7.1875 5.40625 7.53125 5.660156 L 10.21875 7.683594 C 10.5625 7.941406 10.992188 7.878906 11.210938 7.585938 C 12.546875 5.914062 16.75 0.730469 23.855469 -7.398438 C 27.835938 -11.980469 31.476562 -16.210938 34.074219 -19.15625 C 34.308594 -19.363281 34.699219 -19.070312 34.476562 -18.777344 C 32.171875 -15.609375 28.914062 -11.171875 25.238281 -6.285156 C 18.875 2.175781 14.6875 7.445312 13.300781 9.082031 C 13.042969 9.425781 13.117188 9.9375 13.410156 10.160156 L 15.953125 12.070312 C 16.296875 12.328125 16.808594 12.253906 17.019531 11.875 C 18.253906 10.128906 22.105469 4.601562 28.5 -3.90625 C 34.863281 -12.363281 39.066406 -17.546875 40.398438 -19.222656 C 40.65625 -19.566406 40.632812 -20.042969 40.292969 -20.300781 Z M 40.292969 -20.300781 "/></g></g></g><g fill="#593832" fill-opacity="1"><g transform="translate(213.018235, 76.665081)"><g><path d="M 30.667969 -26.449219 C 30.371094 -26.757812 29.851562 -26.769531 29.585938 -26.429688 C 28.039062 -24.855469 23.363281 -20.101562 15.734375 -12.761719 C 8.109375 -5.425781 3.21875 -0.976562 1.589844 0.507812 C 1.195312 0.800781 1.1875 1.320312 1.484375 1.628906 L 7.125 7.492188 C 7.421875 7.800781 7.941406 7.8125 8.25 7.515625 L 10.054688 5.777344 C 10.363281 5.476562 10.332031 5 10.035156 4.691406 L 7.53125 2.09375 C 7.234375 1.785156 7.285156 1.308594 7.554688 0.96875 C 9.625 -1.113281 12.625 -4.082031 16.550781 -7.859375 C 16.859375 -8.15625 17.335938 -8.1875 17.632812 -7.878906 L 19.5 -5.941406 C 19.796875 -5.632812 20.3125 -5.621094 20.621094 -5.917969 L 22.386719 -7.617188 C 22.695312 -7.914062 22.703125 -8.433594 22.40625 -8.742188 L 20.542969 -10.679688 C 20.246094 -10.988281 20.296875 -11.464844 20.605469 -11.761719 C 24.527344 -15.535156 27.65625 -18.460938 29.816406 -20.453125 C 30.121094 -20.664062 30.601562 -20.695312 30.898438 -20.386719 L 33.398438 -17.789062 C 33.695312 -17.480469 34.214844 -17.46875 34.523438 -17.765625 L 36.285156 -19.460938 C 36.59375 -19.757812 36.605469 -20.277344 36.308594 -20.585938 Z M 30.667969 -26.449219 "/></g></g></g><g fill="#593832" fill-opacity="1"><g transform="translate(220.789565, 84.812193)"><g/></g></g><g fill="#593832" fill-opacity="1"><g transform="translate(224.902126, 89.908041)"><g/></g></g><g fill="#593832" fill-opacity="1"><g transform="translate(228.649273, 95.278305)"><g/></g></g><g fill="#593832" fill-opacity="1"><g transform="translate(232.041775, 99.671343)"><g><path d="M 22.421875 -4.21875 C 24.941406 -5.269531 26.988281 -5.410156 28.5625 -4.640625 C 30.144531 -3.878906 31.300781 -2.613281 32.03125 -0.84375 C 32.75 0.882812 32.828125 2.582031 32.265625 4.25 C 31.703125 5.914062 30.160156 7.273438 27.640625 8.328125 C 25.148438 9.359375 23.101562 9.488281 21.5 8.71875 C 19.90625 7.945312 18.75 6.695312 18.03125 4.96875 C 17.300781 3.195312 17.226562 1.484375 17.8125 -0.171875 C 18.394531 -1.835938 19.929688 -3.1875 22.421875 -4.21875 Z M 22.421875 -4.21875 "/></g></g></g><g fill="#593832" fill-opacity="1"><g transform="translate(239.662303, 119.013325)"><g/></g></g><g fill="#593832" fill-opacity="1"><g transform="translate(241.343512, 125.342188)"><g/></g></g><g fill="#593832" fill-opacity="1"><g transform="translate(242.579242, 131.772872)"><g/></g></g><g fill="#593832" fill-opacity="1"><g transform="translate(243.363458, 138.274105)"><g/></g></g><g fill="#593832" fill-opacity="1"><g transform="translate(243.933859, 144.239963)"><g><path d="M 18.917969 13.078125 C 19.183594 12.789062 19.671875 12.816406 19.894531 13.136719 C 20.96875 14.617188 23.003906 15.355469 24.714844 15.464844 L 33.609375 16.328125 C 36.113281 16.484375 39.550781 15.414062 39.753906 12.175781 L 40.222656 4.726562 C 40.25 4.300781 39.90625 3.910156 39.472656 3.945312 C 37.273438 3.867188 30.605469 3.632812 20.101562 2.976562 C 9.480469 2.308594 2.894531 1.714844 0.703125 1.515625 C 0.21875 1.421875 -0.171875 1.765625 -0.199219 2.195312 L -0.394531 5.308594 C -0.421875 5.734375 -0.078125 6.125 0.351562 6.152344 L 16.976562 6.886719 C 17.40625 6.914062 17.746094 7.304688 17.722656 7.730469 L 17.660156 8.707031 C 17.539062 10.660156 15.769531 10.488281 15.222656 10.453125 L 0.144531 9.449219 C -0.28125 9.359375 -0.667969 9.703125 -0.695312 10.132812 L -0.898438 13.367188 C -0.929688 13.855469 -0.582031 14.183594 -0.09375 14.214844 L 13.90625 14.785156 C 15.554688 14.890625 17.671875 14.410156 18.917969 13.078125 Z M 33.355469 11.589844 L 23.953125 11.003906 C 23.339844 10.964844 21.566406 10.914062 21.691406 8.960938 L 21.75 7.984375 C 21.777344 7.554688 22.167969 7.210938 22.59375 7.238281 L 35.15625 8.273438 C 35.585938 8.296875 35.929688 8.625 35.90625 9.054688 L 35.855469 9.847656 C 35.734375 11.800781 33.964844 11.628906 33.355469 11.589844 Z M 33.355469 11.589844 "/></g></g></g><g fill="#593832" fill-opacity="1"><g transform="translate(243.107164, 157.962253)"><g><path d="M 39.269531 9.90625 C 39.351562 9.484375 39.058594 9.054688 38.628906 9.03125 C 36.453125 8.671875 29.875 7.574219 19.488281 5.546875 C 9.097656 3.519531 2.648438 2.074219 0.5 1.59375 C 0.03125 1.441406 -0.398438 1.730469 -0.480469 2.148438 L -2.039062 10.136719 C -2.121094 10.554688 -1.832031 10.988281 -1.410156 11.070312 L 1.050781 11.550781 C 1.46875 11.632812 1.839844 11.328125 1.921875 10.910156 L 2.613281 7.367188 C 2.695312 6.945312 3.113281 6.714844 3.546875 6.738281 C 6.441406 7.242188 10.597656 7.988281 15.941406 9.03125 C 16.359375 9.113281 16.660156 9.484375 16.578125 9.90625 L 16.0625 12.546875 C 15.980469 12.964844 16.273438 13.398438 16.691406 13.480469 L 19.09375 13.949219 C 19.515625 14.03125 19.945312 13.738281 20.027344 13.320312 L 20.542969 10.675781 C 20.625 10.257812 21.042969 10.027344 21.464844 10.109375 C 26.808594 11.152344 31 12.03125 33.871094 12.65625 C 34.21875 12.785156 34.519531 13.15625 34.4375 13.574219 L 33.746094 17.117188 C 33.664062 17.539062 33.953125 17.96875 34.375 18.050781 L 36.777344 18.519531 C 37.199219 18.601562 37.628906 18.3125 37.710938 17.890625 Z M 39.269531 9.90625 "/></g></g></g><g fill="#593832" fill-opacity="1"><g transform="translate(241.268477, 168.526917)"><g><path d="M 31.289062 16.609375 C 32.042969 16.859375 32.679688 17.84375 32.332031 18.890625 C 31.964844 19.992188 30.941406 20.167969 30.1875 19.917969 C 29.839844 19.800781 29.722656 19.761719 29.722656 19.761719 L 23.839844 17.675781 C 23.375 17.519531 22.96875 17.769531 22.835938 18.175781 L 21.847656 21.136719 C 21.714844 21.542969 21.886719 21.988281 22.351562 22.144531 L 28.3125 24 C 31.5625 25.082031 34.890625 23.996094 36.164062 20.164062 C 37.460938 16.277344 35.464844 13.355469 32.214844 12.273438 L 29.3125 11.308594 C 21.359375 8.660156 14.59375 14.851562 4.898438 11.625 C 4.898438 11.625 2.519531 10.832031 2.171875 10.71875 C 1.359375 10.445312 0.757812 9.539062 1.125 8.433594 C 1.492188 7.332031 2.460938 7.136719 3.273438 7.410156 C 3.445312 7.464844 3.5625 7.503906 3.738281 7.5625 L 9.617188 9.652344 C 10.023438 9.785156 10.46875 9.613281 10.625 9.148438 L 11.609375 6.1875 C 11.746094 5.78125 11.492188 5.375 11.085938 5.238281 L 5.128906 3.382812 C 1.820312 2.28125 -1.429688 3.328125 -2.726562 7.21875 C -4 11.046875 -2.085938 14.007812 1.222656 15.109375 L 4.125 16.074219 C 13.820312 19.300781 20.609375 13.050781 28.503906 15.679688 C 28.503906 15.679688 30.882812 16.472656 31.289062 16.609375 Z M 31.289062 16.609375 "/></g></g></g><g fill="#593832" fill-opacity="1"><g transform="translate(237.221461, 181.17475)"><g><path d="M 31.652344 27 C 31.84375 26.617188 31.734375 26.152344 31.296875 25.933594 C 28.75 24.734375 19.28125 20.28125 2.199219 11.761719 C 2.199219 11.761719 2.144531 11.734375 1.761719 11.542969 C 0.558594 10.941406 -0.839844 10.042969 -0.101562 8.5625 C 0.691406 6.976562 2.714844 7.847656 3.429688 8.203125 C 3.757812 8.367188 3.867188 8.421875 3.867188 8.421875 C 20.945312 16.941406 30.199219 21.832031 32.6875 23.140625 C 33.128906 23.359375 33.566406 23.167969 33.757812 22.785156 L 35.148438 19.992188 C 35.339844 19.609375 35.230469 19.144531 34.820312 19.007812 L 5.667969 4.808594 C 2.601562 3.28125 -1.613281 2.546875 -3.714844 6.761719 C -5.761719 10.867188 -3.160156 13.601562 0.398438 15.375 L 29.25 30.175781 C 29.632812 30.367188 30.070312 30.175781 30.261719 29.792969 Z M 31.652344 27 "/></g></g></g><g fill="#593832" fill-opacity="1"><g transform="translate(231.96445, 192.894926)"><g><path d="M 20.679688 40.097656 L 24.453125 34.976562 C 24.707031 34.632812 24.644531 34.203125 24.300781 33.949219 L 9.292969 21.519531 L 2.308594 15.839844 C 2.097656 15.609375 2.390625 15.214844 2.636719 15.394531 L 10.164062 20.335938 L 26.441406 31.042969 C 26.785156 31.296875 27.25 31.183594 27.46875 30.890625 L 31.242188 25.769531 C 31.496094 25.421875 31.417969 24.910156 31.039062 24.703125 C 29.277344 23.484375 23.800781 19.675781 15.234375 13.359375 C 6.714844 7.078125 1.40625 2.9375 -0.28125 1.617188 C -0.589844 1.3125 -1.101562 1.390625 -1.355469 1.738281 L -3.207031 4.246094 C -3.460938 4.59375 -3.382812 5.105469 -3.003906 5.3125 C -1.242188 6.53125 4.28125 10.378906 12.800781 16.65625 C 17.726562 20.289062 22.121094 23.605469 25.238281 25.976562 C 25.53125 26.195312 25.242188 26.589844 24.960938 26.457031 C 21.625 24.378906 16.925781 21.371094 11.796875 18.121094 C 2.695312 12.324219 -2.851562 8.613281 -4.613281 7.390625 C -4.910156 7.175781 -5.335938 7.238281 -5.589844 7.582031 L -7.585938 10.292969 C -7.839844 10.636719 -7.777344 11.0625 -7.480469 11.28125 C -5.792969 12.601562 -0.570312 16.753906 7.625 23.785156 C 12.246094 27.722656 16.507812 31.320312 19.476562 33.890625 C 19.6875 34.121094 19.398438 34.515625 19.101562 34.296875 C 15.914062 32.023438 11.445312 28.808594 6.523438 25.175781 C -1.996094 18.898438 -7.304688 14.753906 -8.957031 13.386719 C -9.300781 13.132812 -9.8125 13.210938 -10.03125 13.503906 L -11.917969 16.066406 C -12.171875 16.410156 -12.097656 16.925781 -11.714844 17.128906 C -9.957031 18.351562 -4.394531 22.148438 4.175781 28.464844 C 12.695312 34.742188 17.917969 38.898438 19.605469 40.214844 C 19.949219 40.472656 20.425781 40.441406 20.679688 40.097656 Z M 20.679688 40.097656 "/></g></g></g><g fill="#593832" fill-opacity="1"><g transform="translate(220.052463, 208.740788)"><g><path d="M 26.738281 30.414062 C 27.042969 30.117188 27.050781 29.597656 26.707031 29.335938 C 25.121094 27.804688 20.320312 23.171875 12.910156 15.613281 C 5.5 8.058594 1.007812 3.210938 -0.492188 1.597656 C -0.789062 1.203125 -1.308594 1.199219 -1.617188 1.5 L -7.425781 7.195312 C -7.730469 7.496094 -7.734375 8.015625 -7.4375 8.320312 L -5.679688 10.109375 C -5.378906 10.417969 -4.902344 10.378906 -4.597656 10.078125 L -2.019531 7.550781 C -1.714844 7.25 -1.238281 7.300781 -0.894531 7.5625 C 1.203125 9.617188 4.203125 12.585938 8.015625 16.476562 C 8.3125 16.78125 8.351562 17.257812 8.046875 17.554688 L 6.125 19.441406 C 5.820312 19.742188 5.8125 20.261719 6.113281 20.566406 L 7.828125 22.3125 C 8.128906 22.617188 8.644531 22.625 8.953125 22.324219 L 10.875 20.441406 C 11.179688 20.140625 11.65625 20.1875 11.953125 20.492188 C 15.765625 24.382812 18.722656 27.480469 20.734375 29.621094 C 20.945312 29.925781 20.984375 30.402344 20.679688 30.703125 L 18.101562 33.230469 C 17.796875 33.53125 17.792969 34.046875 18.089844 34.355469 L 19.804688 36.101562 C 20.105469 36.40625 20.625 36.414062 20.929688 36.113281 Z M 26.738281 30.414062 "/></g></g></g><g fill="#593832" fill-opacity="1"><g transform="translate(211.980677, 216.587231)"><g/></g></g><g fill="#593832" fill-opacity="1"><g transform="translate(206.923937, 220.747781)"><g/></g></g><g fill="#593832" fill-opacity="1"><g transform="translate(201.589332, 224.545543)"><g/></g></g><g fill="#593832" fill-opacity="1"><g transform="translate(197.227287, 227.980685)"><g><path d="M 4.4375 22.375 C 5.5 24.882812 5.65625 26.929688 4.90625 28.515625 C 4.164062 30.109375 2.914062 31.28125 1.15625 32.03125 C -0.570312 32.757812 -2.273438 32.847656 -3.953125 32.296875 C -5.628906 31.742188 -7 30.210938 -8.0625 27.703125 C -9.125 25.234375 -9.273438 23.191406 -8.515625 21.578125 C -7.765625 19.972656 -6.523438 18.804688 -4.796875 18.078125 C -3.035156 17.328125 -1.320312 17.238281 0.34375 17.8125 C 2.007812 18.382812 3.375 19.90625 4.4375 22.375 Z M 4.4375 22.375 "/></g></g></g><g fill="#593832" fill-opacity="1"><g transform="translate(177.959464, 235.782389)"><g/></g></g><g fill="#593832" fill-opacity="1"><g transform="translate(171.646791, 237.523368)"><g/></g></g><g fill="#593832" fill-opacity="1"><g transform="translate(165.228066, 238.819833)"><g/></g></g></svg>