<svg xmlns="http://www.w3.org/2000/svg" xmlns:xlink="http://www.w3.org/1999/xlink" width="500" zoomAndPan="magnify" viewBox="0 0 375 374.999991" height="500" preserveAspectRatio="xMidYMid meet" version="1.0"><defs><g/><clipPath id="0813365cda"><path d="M 6.339844 7.050781 L 369 7.050781 L 369 330 L 6.339844 330 Z M 6.339844 7.050781 " clip-rule="nonzero"/></clipPath><clipPath id="607c86ec01"><path d="M 212.058594 7.050781 C 216.03125 7.050781 220.027344 7.050781 223.996094 7.050781 C 255.617188 12.4375 275.378906 30.378906 284.378906 59.734375 C 337.097656 55.820312 377.847656 111.324219 352.070312 165.800781 C 359.835938 177.246094 366.316406 190.050781 368.660156 207.238281 C 368.660156 212.160156 368.660156 217.070312 368.660156 221.992188 C 361.683594 265.734375 331.671875 295.289062 282.402344 287.332031 C 269.722656 309.792969 247.167969 332.28125 212.066406 329.480469 C 193.921875 328.007812 181.296875 319.46875 170.246094 309.09375 C 158.609375 317.71875 146 324.484375 127.785156 324.558594 C 85.648438 324.6875 57.457031 291.460938 56.773438 245.886719 C 29.683594 235.222656 11.335938 215.320312 6.339844 181.265625 C 6.339844 176.34375 6.339844 171.410156 6.339844 166.511719 C 11.855469 132.765625 29.207031 111.566406 58.09375 102.582031 C 56.359375 45.65625 114.144531 10.085938 161.617188 35.164062 C 172.917969 22.761719 188.910156 9.234375 212.058594 7.050781 Z M 212.058594 7.050781 " clip-rule="nonzero"/></clipPath><clipPath id="11d64b4fc3"><path d="M 170.515625 100.199219 L 281.515625 100.199219 L 281.515625 168.449219 L 170.515625 168.449219 Z M 170.515625 100.199219 " clip-rule="nonzero"/></clipPath><clipPath id="08334aa37f"><path d="M 122.085938 154.367188 L 218.835938 154.367188 L 218.835938 224.867188 L 122.085938 224.867188 Z M 122.085938 154.367188 " clip-rule="nonzero"/></clipPath></defs><g clip-path="url(#0813365cda)"><g clip-path="url(#607c86ec01)"><path fill="#e56e34" d="M 6.339844 7.050781 L 368.660156 7.050781 L 368.660156 329.71875 L 6.339844 329.71875 Z M 6.339844 7.050781 " fill-opacity="1" fill-rule="nonzero"/></g></g><g clip-path="url(#11d64b4fc3)"><path fill="#2b2d29" d="M 206.714844 168.363281 C 206.082031 168.367188 205.488281 168.21875 204.933594 167.910156 C 204.195312 167.484375 203.71875 166.792969 203.625 166.007812 C 203.53125 165.226562 203.804688 164.339844 204.316406 163.730469 C 204.394531 163.636719 204.476562 163.554688 204.554688 163.472656 C 204.949219 163.074219 205.394531 162.617188 205.628906 160.652344 C 205.910156 158.285156 205.871094 153.671875 205.734375 151.253906 C 205.726562 151.09375 205.714844 150.953125 205.707031 150.820312 C 205.511719 152.832031 205.335938 156.914062 205.261719 158.683594 L 205.257812 158.773438 C 205.160156 161.03125 205.132812 161.710938 204.722656 162.378906 C 204.550781 162.660156 204.316406 162.925781 204.089844 163.183594 C 203.796875 163.511719 203.496094 163.851562 203.34375 164.210938 C 203.238281 164.46875 203.191406 164.757812 203.152344 165.039062 C 203.085938 165.476562 203.019531 165.929688 202.699219 166.242188 C 202.144531 166.78125 200.96875 166.777344 200.328125 166.230469 C 199.707031 165.707031 199.53125 164.617188 199.929688 163.753906 C 200.226562 163.101562 200.820312 162.65625 201.34375 162.265625 C 201.453125 162.1875 201.550781 162.113281 201.644531 162.039062 C 202.128906 161.664062 202.46875 161.320312 202.515625 160.308594 C 202.558594 159.359375 202.355469 157.800781 201.871094 155.40625 C 201.421875 153.152344 200.832031 150.671875 200.214844 148.421875 C 200.109375 148.035156 200.003906 147.65625 199.898438 147.292969 C 199.472656 147.472656 199.027344 147.65625 198.566406 147.835938 C 194.292969 149.492188 190.429688 150.308594 186.800781 150.308594 C 186.335938 150.308594 185.871094 150.292969 185.414062 150.269531 C 180.605469 149.988281 175.476562 148.152344 170.515625 146.378906 L 170.695312 145.875 C 175.621094 147.636719 180.710938 149.460938 185.445312 149.734375 C 189.394531 149.964844 193.621094 149.179688 198.371094 147.335938 C 198.851562 147.148438 199.308594 146.964844 199.746094 146.777344 C 199.167969 144.828125 198.582031 143.160156 197.941406 141.617188 C 197.605469 140.8125 197.238281 140.003906 196.882812 139.222656 C 196.285156 137.90625 195.664062 136.539062 195.144531 135.074219 C 194.316406 132.726562 193.722656 130.070312 193.5625 127.960938 C 193.40625 125.890625 193.644531 124.324219 194.445312 122.167969 C 194.867188 121.027344 195.433594 119.753906 196.03125 118.410156 C 196.5 117.359375 196.984375 116.269531 197.410156 115.21875 C 197.953125 113.875 198.363281 112.679688 198.640625 111.640625 C 198.125 111.132812 197.890625 110.5625 197.671875 110.035156 C 197.621094 109.90625 197.570312 109.789062 197.519531 109.667969 C 197.386719 109.371094 197.234375 109.078125 197.085938 108.796875 C 196.800781 108.257812 196.535156 107.75 196.410156 107.214844 C 196.21875 106.40625 196.386719 105.597656 196.507812 105.007812 L 196.519531 104.957031 C 196.644531 104.332031 196.71875 103.90625 196.757812 103.675781 L 196.757812 103.664062 C 196.804688 103.367188 196.882812 103.078125 197.003906 102.796875 C 197.074219 102.613281 197.164062 102.40625 197.265625 102.199219 C 197.257812 102.183594 197.25 102.164062 197.242188 102.148438 C 197.164062 101.945312 197.203125 101.703125 197.371094 101.40625 C 197.515625 101.148438 197.84375 100.691406 198.429688 100.558594 C 198.878906 100.457031 199.402344 100.558594 200.070312 100.6875 L 200.226562 100.714844 C 200.933594 100.851562 201.75 100.984375 202.488281 100.894531 C 202.914062 100.839844 203.332031 100.710938 203.734375 100.585938 C 204.03125 100.484375 204.335938 100.402344 204.640625 100.339844 C 205.359375 100.207031 206.007812 100.316406 207.109375 100.757812 C 208.046875 101.128906 209.75 101.917969 210.636719 102.980469 C 211.195312 103.644531 211.421875 104.390625 211.605469 104.992188 C 211.703125 105.308594 211.785156 105.578125 211.890625 105.761719 C 211.988281 105.929688 212.109375 106.027344 212.257812 106.054688 C 212.476562 106.097656 212.761719 105.992188 213.0625 105.757812 C 213.648438 105.296875 214.25 104.386719 214.589844 103.691406 C 214.855469 103.136719 214.847656 102.933594 214.839844 102.882812 C 214.816406 102.878906 214.792969 102.878906 214.769531 102.882812 C 214.515625 102.90625 214.019531 103.125 213.578125 103.320312 C 213.222656 103.472656 212.855469 103.636719 212.5625 103.722656 C 211.933594 103.910156 211.691406 103.75 211.601562 103.578125 C 211.535156 103.457031 211.480469 103.203125 211.867188 102.875 C 212.398438 102.421875 213.742188 101.832031 214.488281 101.519531 C 215.59375 101.0625 216.367188 100.816406 216.808594 101.007812 C 216.953125 101.066406 217.054688 101.171875 217.113281 101.320312 C 217.273438 101.75 216.96875 102.4375 216.421875 103.621094 C 216.289062 103.902344 216.152344 104.195312 216.027344 104.488281 C 215.398438 105.921875 215.101562 107.078125 215.039062 108.351562 C 215 109.164062 215.058594 110.0625 215.117188 110.925781 C 215.160156 111.621094 215.203125 112.273438 215.199219 112.878906 C 215.191406 113.605469 215.117188 114.230469 215.042969 114.832031 C 214.980469 115.367188 214.917969 115.875 214.917969 116.382812 C 214.917969 117.28125 215.109375 118.226562 215.289062 119.140625 C 215.324219 119.308594 215.355469 119.472656 215.386719 119.636719 C 215.410156 119.746094 215.429688 119.855469 215.449219 119.964844 C 215.617188 120.84375 215.769531 121.675781 216.136719 122.066406 C 216.359375 122.304688 216.703125 122.414062 217.183594 122.566406 C 217.625 122.699219 218.058594 122.859375 218.476562 123.046875 C 219.746094 123.628906 221.382812 124.769531 222.964844 126.175781 C 224.445312 127.492188 226.1875 129.277344 227.878906 132.539062 C 229.601562 135.863281 231.027344 140.1875 231.691406 144.105469 C 232.347656 147.976562 232.328125 151.644531 232.207031 155.03125 L 232.199219 155.207031 C 232.105469 157.773438 232.066406 158.941406 233.894531 159.367188 C 235.996094 159.855469 240.449219 159.378906 244.027344 158.996094 L 244.316406 158.964844 C 248.136719 158.558594 251.4375 158.203125 253.75 158.710938 C 255.257812 159.039062 256.472656 159.777344 257 160.683594 C 257.25 161.109375 257.320312 161.539062 257.203125 161.914062 C 256.878906 162.976562 255.183594 163.511719 251.164062 163.828125 C 249.78125 163.933594 248.136719 164.015625 246.394531 164.101562 C 243.535156 164.246094 240.292969 164.40625 237.726562 164.722656 C 237.261719 164.78125 236.816406 164.84375 236.390625 164.914062 C 237.695312 165.140625 239.011719 165.296875 240.335938 165.382812 C 243.921875 165.601562 247.847656 165.265625 252 164.90625 C 255.0625 164.640625 258.226562 164.371094 261.269531 164.335938 C 268.339844 164.265625 274.964844 165.5 281.375 166.695312 L 281.277344 167.222656 C 274.894531 166.03125 268.289062 164.796875 261.277344 164.871094 C 258.257812 164.902344 255.101562 165.171875 252.046875 165.4375 C 247.878906 165.796875 243.933594 166.136719 240.304688 165.914062 C 238.484375 165.796875 236.683594 165.546875 234.898438 165.167969 C 234.070312 165.324219 233.289062 165.488281 232.519531 165.648438 C 230.78125 166.015625 229.140625 166.363281 227.09375 166.589844 C 223.125 167.027344 217.789062 166.984375 214.921875 166.6875 C 213.121094 166.5 212.25 166.21875 211.914062 165.707031 C 211.679688 165.351562 211.757812 164.964844 211.851562 164.664062 C 212.085938 163.929688 212.820312 162.574219 215.15625 161.796875 C 216.570312 161.324219 219.699219 160.710938 224.769531 161.886719 C 226.015625 162.175781 227.347656 162.570312 228.753906 162.988281 C 230.652344 163.546875 232.691406 164.152344 234.90625 164.621094 C 235.761719 164.460938 236.671875 164.3125 237.667969 164.1875 C 240.253906 163.867188 243.507812 163.707031 246.375 163.5625 C 248.113281 163.480469 249.753906 163.398438 251.128906 163.289062 C 253.5625 163.097656 256.390625 162.75 256.699219 161.753906 C 256.769531 161.519531 256.714844 161.242188 256.542969 160.945312 C 256.195312 160.347656 255.246094 159.578125 253.644531 159.226562 C 251.414062 158.738281 248.152344 159.089844 244.378906 159.496094 L 244.089844 159.527344 C 240.472656 159.914062 235.96875 160.394531 233.777344 159.886719 C 231.519531 159.359375 231.578125 157.789062 231.671875 155.183594 L 231.679688 155.011719 C 231.796875 151.652344 231.820312 148.019531 231.171875 144.191406 C 230.515625 140.328125 229.109375 136.0625 227.410156 132.78125 C 225.761719 129.597656 224.058594 127.855469 222.613281 126.574219 C 221.070312 125.203125 219.484375 124.09375 218.261719 123.53125 C 217.863281 123.351562 217.453125 123.199219 217.03125 123.074219 C 216.496094 122.90625 216.070312 122.773438 215.75 122.425781 C 215.285156 121.921875 215.121094 121.0625 214.933594 120.0625 C 214.914062 119.953125 214.894531 119.847656 214.871094 119.738281 C 214.839844 119.574219 214.808594 119.410156 214.773438 119.246094 C 214.585938 118.304688 214.394531 117.335938 214.394531 116.382812 C 214.394531 115.839844 214.457031 115.316406 214.523438 114.765625 C 214.59375 114.175781 214.667969 113.570312 214.671875 112.871094 C 214.675781 112.285156 214.636719 111.640625 214.589844 110.957031 C 214.53125 110.074219 214.472656 109.164062 214.515625 108.320312 C 214.582031 107 214.898438 105.75 215.542969 104.269531 C 215.675781 103.972656 215.8125 103.675781 215.945312 103.390625 C 216.265625 102.695312 216.710938 101.746094 216.621094 101.507812 C 216.621094 101.503906 216.515625 101.421875 216.035156 101.539062 C 215.625 101.640625 215.105469 101.84375 214.703125 102.011719 C 213.511719 102.507812 212.628906 102.957031 212.257812 103.253906 C 212.304688 103.246094 212.359375 103.230469 212.421875 103.214844 C 212.679688 103.136719 213.035156 102.980469 213.375 102.832031 C 213.898438 102.601562 214.390625 102.386719 214.730469 102.355469 C 215.046875 102.324219 215.207031 102.453125 215.289062 102.566406 C 215.46875 102.832031 215.40625 103.25 215.082031 103.925781 C 214.71875 104.675781 214.058594 105.667969 213.402344 106.179688 C 212.972656 106.515625 212.546875 106.65625 212.171875 106.582031 C 211.871094 106.523438 211.617188 106.335938 211.441406 106.03125 C 211.304688 105.792969 211.210938 105.496094 211.105469 105.148438 C 210.929688 104.566406 210.726562 103.90625 210.242188 103.324219 C 209.429688 102.351562 207.8125 101.609375 206.921875 101.253906 C 205.925781 100.855469 205.359375 100.753906 204.753906 100.867188 C 204.464844 100.925781 204.183594 101.003906 203.902344 101.097656 C 203.476562 101.230469 203.039062 101.367188 202.5625 101.425781 C 201.75 101.527344 200.886719 101.382812 200.136719 101.242188 L 199.980469 101.210938 C 199.65625 101.140625 199.332031 101.089844 199 101.058594 C 199.046875 101.082031 199.09375 101.105469 199.132812 101.132812 C 199.371094 101.292969 199.519531 101.539062 199.523438 101.777344 C 199.523438 102 199.433594 102.167969 199.25 102.289062 C 198.894531 102.542969 198.140625 102.617188 197.71875 102.515625 C 197.648438 102.660156 197.578125 102.820312 197.511719 102.996094 C 197.40625 103.242188 197.335938 103.496094 197.296875 103.757812 L 197.296875 103.769531 C 197.257812 104 197.179688 104.433594 197.050781 105.0625 L 197.042969 105.117188 C 196.925781 105.6875 196.777344 106.402344 196.941406 107.097656 C 197.050781 107.5625 197.304688 108.039062 197.570312 108.550781 C 197.722656 108.839844 197.878906 109.140625 198.019531 109.453125 C 198.074219 109.578125 198.125 109.707031 198.179688 109.832031 C 198.351562 110.246094 198.515625 110.648438 198.804688 111.015625 C 198.976562 110.257812 199.066406 109.597656 199.074219 109.035156 C 199.085938 107.914062 198.777344 107.078125 198.527344 106.410156 C 198.425781 106.152344 198.335938 105.890625 198.265625 105.625 C 198.0625 104.792969 198.285156 104.140625 199.011719 103.441406 C 199.605469 102.875 200.601562 102.199219 201.488281 101.972656 C 202.222656 101.785156 202.808594 101.925781 203.28125 102.039062 C 203.355469 102.058594 203.425781 102.074219 203.496094 102.089844 C 203.703125 102.136719 203.890625 102.164062 204.058594 102.183594 C 204.261719 102.203125 204.460938 102.246094 204.65625 102.308594 C 205.046875 102.453125 205.273438 102.773438 205.21875 103.105469 C 205.183594 103.289062 205.09375 103.4375 204.949219 103.558594 C 205.015625 103.777344 205.050781 104.003906 205.0625 104.234375 C 205.074219 104.417969 205.078125 104.632812 205.082031 104.859375 C 205.09375 105.734375 205.109375 106.9375 205.625 107.976562 C 205.929688 108.589844 206.425781 109.179688 206.863281 109.695312 C 207.40625 110.339844 207.878906 110.894531 207.945312 111.421875 C 207.984375 111.734375 207.898438 112.007812 207.691406 112.242188 C 207.230469 112.792969 206.164062 113.148438 204.765625 113.21875 C 202.917969 113.308594 200.683594 112.890625 199.457031 112.226562 C 199.332031 112.160156 199.214844 112.089844 199.101562 112.011719 C 198.769531 113.171875 198.375 114.308594 197.914062 115.421875 C 197.484375 116.484375 197 117.574219 196.527344 118.628906 C 195.933594 119.96875 195.371094 121.230469 194.953125 122.355469 C 194.1875 124.429688 193.957031 125.941406 194.105469 127.921875 C 194.261719 129.988281 194.84375 132.59375 195.65625 134.894531 C 196.167969 136.339844 196.785156 137.695312 197.378906 139.003906 C 197.738281 139.789062 198.105469 140.597656 198.445312 141.414062 C 199.085938 142.957031 199.671875 144.621094 200.246094 146.5625 C 203.355469 145.179688 205.328125 143.761719 206.25 142.25 C 206.988281 141.042969 207.113281 139.671875 207.222656 138.460938 C 207.296875 137.667969 207.363281 136.914062 207.597656 136.308594 C 208.292969 134.519531 210.304688 134.167969 211.441406 134.125 C 212.296875 134.085938 212.980469 134.207031 213.527344 134.484375 C 214.191406 134.828125 214.667969 135.421875 214.9375 136.25 C 215.410156 137.703125 215.390625 140.085938 214.875 144.21875 C 214.382812 148.152344 213.644531 152.1875 213.246094 154.242188 C 212.652344 157.296875 212.109375 159.667969 211.652344 161.582031 C 211.144531 163.722656 210.734375 165.320312 210.089844 166.398438 C 209.484375 167.40625 208.597656 168.054688 207.527344 168.28125 C 207.257812 168.335938 206.988281 168.363281 206.714844 168.363281 Z M 205.726562 149.078125 L 205.734375 149.078125 C 206.050781 149.085938 206.164062 149.382812 206.269531 151.222656 C 206.402344 153.570312 206.457031 158.210938 206.160156 160.714844 C 205.902344 162.859375 205.367188 163.40625 204.9375 163.847656 C 204.863281 163.925781 204.792969 163.996094 204.726562 164.074219 C 204.3125 164.566406 204.082031 165.320312 204.15625 165.945312 C 204.230469 166.570312 204.601562 167.101562 205.203125 167.441406 C 205.828125 167.800781 206.636719 167.914062 207.417969 167.753906 C 208.351562 167.558594 209.097656 167.007812 209.632812 166.117188 C 210.238281 165.109375 210.636719 163.550781 211.132812 161.457031 C 211.585938 159.546875 212.132812 157.183594 212.722656 154.136719 C 213.117188 152.089844 213.855469 148.070312 214.34375 144.148438 C 214.679688 141.460938 214.996094 138.148438 214.429688 136.410156 C 214.011719 135.128906 213.09375 134.585938 211.464844 134.652344 C 210.457031 134.695312 208.683594 134.992188 208.097656 136.5 C 207.886719 137.035156 207.824219 137.75 207.753906 138.507812 C 207.636719 139.777344 207.507812 141.210938 206.703125 142.527344 C 205.71875 144.136719 203.644531 145.632812 200.398438 147.074219 C 200.511719 147.464844 200.621094 147.863281 200.734375 148.277344 C 201.355469 150.539062 201.949219 153.035156 202.402344 155.300781 C 202.890625 157.738281 203.097656 159.335938 203.050781 160.328125 C 203 161.449219 202.636719 161.941406 201.976562 162.457031 C 201.878906 162.535156 201.777344 162.609375 201.667969 162.691406 C 201.195312 163.042969 200.660156 163.441406 200.417969 163.972656 C 200.121094 164.617188 200.238281 165.445312 200.675781 165.816406 C 201.140625 166.210938 202.003906 166.171875 202.332031 165.855469 C 202.523438 165.667969 202.570312 165.339844 202.628906 164.957031 C 202.671875 164.660156 202.722656 164.316406 202.855469 164 C 203.042969 163.558594 203.371094 163.183594 203.691406 162.824219 C 203.914062 162.570312 204.125 162.335938 204.269531 162.09375 C 204.605469 161.542969 204.632812 160.894531 204.726562 158.742188 L 204.730469 158.652344 C 204.855469 155.65625 205.011719 152.359375 205.191406 150.625 C 205.308594 149.46875 205.40625 149.078125 205.726562 149.078125 Z M 219.296875 161.757812 C 217.789062 161.757812 216.433594 161.941406 215.324219 162.3125 C 213.214844 163.015625 212.5625 164.195312 212.363281 164.835938 C 212.277344 165.113281 212.277344 165.289062 212.363281 165.421875 C 212.585938 165.761719 213.441406 166.003906 214.976562 166.164062 C 217.816406 166.457031 223.101562 166.5 227.035156 166.066406 C 229.058594 165.84375 230.6875 165.5 232.410156 165.132812 C 232.804688 165.050781 233.199219 164.96875 233.601562 164.882812 C 231.828125 164.460938 230.167969 163.972656 228.605469 163.507812 C 227.203125 163.09375 225.882812 162.703125 224.648438 162.417969 C 222.765625 161.976562 220.941406 161.757812 219.296875 161.757812 Z M 199.246094 111.457031 C 199.390625 111.570312 199.546875 111.667969 199.707031 111.753906 C 200.84375 112.367188 203.003906 112.765625 204.738281 112.683594 C 205.949219 112.625 206.925781 112.324219 207.277344 111.902344 C 207.386719 111.785156 207.429688 111.648438 207.414062 111.492188 C 207.363281 111.117188 206.921875 110.597656 206.453125 110.042969 C 205.996094 109.5 205.476562 108.886719 205.144531 108.210938 C 204.574219 107.066406 204.554688 105.792969 204.542969 104.867188 C 204.539062 104.636719 204.539062 104.4375 204.527344 104.265625 C 204.519531 104.121094 204.5 103.972656 204.46875 103.832031 L 204.414062 103.847656 C 204 103.972656 203.476562 103.964844 203.160156 103.902344 C 202.535156 103.777344 202.523438 103.40625 202.546875 103.253906 C 202.585938 102.992188 202.84375 102.679688 203.242188 102.625 C 203.28125 102.617188 203.324219 102.613281 203.367188 102.613281 C 203.296875 102.597656 203.226562 102.582031 203.152344 102.5625 C 202.71875 102.457031 202.226562 102.339844 201.621094 102.496094 C 200.945312 102.667969 200.023438 103.21875 199.382812 103.832031 C 198.789062 104.402344 198.625 104.855469 198.785156 105.503906 C 198.851562 105.75 198.929688 105.988281 199.027344 106.226562 C 199.292969 106.9375 199.621094 107.824219 199.605469 109.046875 C 199.59375 109.722656 199.476562 110.527344 199.246094 111.457031 Z M 203.082031 103.316406 C 203.136719 103.347656 203.199219 103.367188 203.265625 103.375 C 203.546875 103.425781 203.832031 103.425781 204.113281 103.371094 L 204.074219 103.355469 C 203.929688 103.289062 203.539062 103.121094 203.316406 103.152344 C 203.210938 103.167969 203.132812 103.222656 203.082031 103.316406 Z M 203.871094 102.703125 C 204.015625 102.75 204.152344 102.804688 204.289062 102.867188 C 204.425781 102.921875 204.546875 102.996094 204.660156 103.089844 C 204.675781 103.070312 204.6875 103.046875 204.691406 103.019531 C 204.703125 102.960938 204.621094 102.871094 204.46875 102.8125 C 204.308594 102.765625 204.148438 102.734375 203.984375 102.71875 C 203.949219 102.714844 203.910156 102.707031 203.871094 102.703125 Z M 197.984375 102.019531 C 198.296875 102.046875 198.769531 101.976562 198.941406 101.855469 C 198.988281 101.820312 198.988281 101.796875 198.988281 101.785156 C 198.988281 101.734375 198.933594 101.644531 198.835938 101.578125 C 198.652344 101.457031 198.429688 101.5 198.226562 101.703125 C 198.136719 101.800781 198.054688 101.90625 197.984375 102.019531 Z M 197.984375 102.019531 " fill-opacity="1" fill-rule="nonzero"/></g><g clip-path="url(#08334aa37f)"><path fill="#2b2d29" d="M 159.953125 225.125 C 159.203125 225.125 158.464844 225.035156 157.738281 224.855469 C 156.453125 224.523438 155.328125 223.886719 154.8125 223.195312 C 154.296875 222.5 154.445312 221.851562 154.6875 221.136719 C 154.902344 220.492188 155.222656 219.664062 155.804688 219 C 155.96875 218.8125 156.148438 218.644531 156.339844 218.464844 C 156.789062 218.039062 157.296875 217.5625 157.757812 216.679688 C 158.433594 215.390625 159.003906 213.253906 159.285156 210.964844 C 159.585938 208.5 159.566406 205.910156 159.421875 204.542969 C 159.398438 204.300781 159.363281 204.0625 159.3125 203.828125 C 159.242188 204.050781 159.183594 204.277344 159.136719 204.507812 C 158.984375 205.238281 158.824219 206.386719 158.648438 207.601562 C 158.441406 209.0625 158.207031 210.726562 157.9375 212.035156 C 157.398438 214.648438 156.710938 215.890625 156.171875 216.6875 C 155.933594 217.042969 155.699219 217.335938 155.472656 217.621094 C 155.121094 218.0625 154.816406 218.445312 154.609375 218.910156 C 154.484375 219.222656 154.375 219.539062 154.292969 219.867188 C 154.128906 220.441406 153.976562 220.988281 153.644531 221.363281 C 153.058594 222.019531 152.058594 222.019531 151.160156 221.925781 C 150.335938 221.84375 149.214844 221.640625 148.546875 221.136719 C 147.804688 220.574219 147.722656 219.726562 147.734375 219.046875 C 147.75 218.390625 147.882812 217.1875 148.65625 216.460938 C 149.019531 216.121094 149.496094 215.886719 149.957031 215.664062 C 150.320312 215.488281 150.660156 215.320312 150.871094 215.132812 C 151.261719 214.773438 151.234375 214.28125 151.09375 212.777344 L 151.09375 212.769531 C 150.953125 211.28125 150.738281 209.039062 150.28125 206.109375 C 150.035156 204.542969 149.71875 202.792969 149.367188 201.039062 C 148.410156 201.617188 147.414062 202.113281 146.375 202.53125 C 142.34375 204.105469 136.949219 204.328125 132.289062 203.105469 C 128.050781 201.992188 125.019531 199.765625 122.085938 197.609375 L 122.398438 197.1875 C 125.289062 199.3125 128.28125 201.511719 132.421875 202.597656 C 136.980469 203.792969 142.25 203.582031 146.183594 202.042969 C 147.269531 201.617188 148.289062 201.082031 149.257812 200.496094 C 148.976562 199.113281 148.679688 197.742188 148.375 196.464844 C 148.050781 195.089844 147.710938 193.777344 147.414062 192.621094 C 147.019531 191.089844 146.675781 189.765625 146.433594 188.589844 C 145.996094 186.472656 145.902344 184.921875 146.089844 183.058594 C 146.273438 181.265625 146.738281 179.128906 147.363281 177.203125 C 147.578125 176.542969 147.855469 175.777344 148.1875 175.019531 C 148.128906 174.574219 148.089844 174.109375 148.066406 173.632812 C 147.992188 171.90625 148.121094 170.195312 148.457031 168.503906 C 148.625 167.695312 148.824219 167.023438 149.003906 166.425781 C 149.136719 165.984375 149.265625 165.570312 149.359375 165.148438 C 149.457031 164.730469 149.523438 164.3125 149.59375 163.863281 C 149.691406 163.265625 149.792969 162.648438 149.964844 162.042969 C 150.199219 161.214844 150.5625 160.433594 150.949219 159.601562 C 151.050781 159.386719 151.152344 159.164062 151.253906 158.941406 C 151.320312 158.796875 151.382812 158.652344 151.449219 158.507812 C 151.859375 157.582031 152.285156 156.625 152.882812 155.957031 C 153.472656 155.300781 154.277344 154.851562 155.339844 154.59375 C 156.253906 154.371094 157 154.378906 157.621094 154.617188 C 158.296875 154.878906 158.859375 155.414062 159.339844 156.253906 C 159.789062 157.035156 160.15625 158.0625 160.507812 159.050781 L 160.554688 159.1875 C 160.765625 159.777344 160.972656 160.351562 161.128906 160.898438 C 161.421875 160.867188 161.71875 160.851562 162.011719 160.859375 C 163.707031 160.894531 165.640625 161.574219 166.644531 161.976562 C 168.347656 162.660156 169.417969 163.347656 169.902344 163.695312 C 170.085938 163.824219 170.238281 163.945312 170.386719 164.058594 C 170.816406 164.394531 171.125 164.640625 171.734375 164.816406 C 172.539062 165.046875 173.925781 165.167969 175.445312 165.136719 C 176.21875 165.121094 176.996094 165.066406 177.75 165.015625 C 178.421875 164.96875 179.050781 164.925781 179.609375 164.914062 C 180.816406 164.890625 181.652344 165.019531 182.164062 165.308594 C 182.449219 165.46875 182.628906 165.679688 182.695312 165.933594 C 182.777344 166.238281 182.695312 166.582031 182.453125 166.992188 C 182.175781 167.464844 181.675781 168.03125 181.09375 168.683594 C 180.824219 168.988281 180.546875 169.304688 180.273438 169.628906 C 179.429688 170.632812 178.660156 171.691406 177.964844 172.804688 C 177.835938 173.011719 177.703125 173.226562 177.582031 173.429688 C 177.0625 174.289062 176.570312 175.101562 175.980469 175.566406 C 175.210938 176.171875 174.226562 176.238281 173.859375 175.890625 C 173.550781 175.601562 173.742188 175.171875 173.808594 175.027344 C 173.929688 174.75 174.148438 174.410156 174.421875 173.984375 C 174.960938 173.140625 175.699219 171.984375 176.519531 171.078125 C 177.011719 170.53125 177.519531 170.09375 178.011719 169.667969 C 178.332031 169.390625 178.632812 169.132812 178.914062 168.855469 C 179.648438 168.140625 180.152344 167.40625 180.171875 167.03125 C 180.179688 166.964844 180.160156 166.910156 180.113281 166.863281 C 180.027344 166.773438 179.75 166.632812 178.839844 166.664062 C 177.886719 166.699219 176.265625 166.925781 174.96875 167.351562 C 173.757812 167.746094 173.027344 168.253906 172.601562 168.996094 C 172.214844 169.664062 172.015625 170.683594 172.023438 171.949219 C 172.035156 173.113281 172.203125 174.078125 172.535156 174.816406 C 172.65625 175.078125 172.789062 175.332031 172.9375 175.578125 C 173.226562 176.074219 173.527344 176.585938 173.570312 177.222656 C 173.625 177.972656 173.335938 178.976562 172.710938 180.199219 C 172.347656 180.921875 171.898438 181.679688 171.21875 181.679688 C 171.167969 181.679688 171.113281 181.675781 171.0625 181.664062 C 170.570312 181.585938 170.078125 181.144531 169.5625 180.671875 C 169.425781 180.546875 169.28125 180.417969 169.148438 180.304688 C 168.554688 179.804688 168.042969 179.53125 167.539062 179.441406 C 167.035156 179.351562 166.519531 179.445312 166.160156 179.683594 C 165.824219 179.910156 165.628906 180.21875 165.578125 180.617188 C 165.859375 180.425781 166.164062 180.28125 166.492188 180.179688 C 167.273438 179.9375 168.136719 179.976562 168.582031 180.136719 C 168.835938 180.230469 168.996094 180.375 169.0625 180.570312 C 169.125 180.765625 169.078125 180.984375 168.925781 181.214844 C 168.675781 181.589844 168.226562 181.890625 167.6875 182.042969 C 167.140625 182.199219 166.347656 182.242188 165.808594 181.980469 C 165.597656 181.878906 165.421875 181.730469 165.292969 181.535156 C 165.113281 181.71875 164.949219 181.914062 164.800781 182.121094 C 164.53125 182.5 164.261719 182.953125 164.003906 183.394531 C 163.691406 183.929688 163.394531 184.433594 163.101562 184.773438 C 162.457031 185.527344 161.835938 185.417969 161.265625 185.183594 C 161.023438 185.085938 160.761719 184.949219 160.507812 184.820312 L 160.300781 184.714844 C 160.4375 184.851562 160.59375 184.957031 160.769531 185.035156 C 160.902344 185.101562 161.050781 185.164062 161.195312 185.226562 C 161.714844 185.453125 162.089844 185.613281 162.125 185.921875 C 162.132812 186.035156 162.101562 186.132812 162.027344 186.21875 C 161.777344 186.523438 161.027344 186.671875 160.664062 186.707031 C 159.921875 186.78125 159.320312 186.617188 158.972656 186.253906 C 158.582031 185.84375 158.488281 185.148438 158.570312 184.671875 C 158.625 184.351562 158.753906 184.121094 158.953125 183.988281 C 159.109375 183.882812 159.28125 183.839844 159.46875 183.859375 C 159.46875 183.84375 159.46875 183.828125 159.46875 183.816406 C 159.460938 183.296875 159.566406 182.605469 159.679688 181.871094 C 159.769531 181.292969 159.859375 180.695312 159.910156 180.117188 C 160.035156 178.648438 159.871094 177.535156 159.410156 176.71875 C 158.816406 175.667969 157.722656 175.070312 157.28125 174.863281 C 156.847656 174.660156 156.535156 174.589844 156.359375 174.660156 C 156.304688 174.679688 156.222656 174.726562 156.152344 174.882812 C 156.082031 175.070312 156.042969 175.261719 156.035156 175.460938 C 156.171875 175.53125 156.304688 175.597656 156.445312 175.667969 C 156.699219 175.796875 156.960938 175.929688 157.214844 176.074219 C 158.097656 176.585938 158.972656 177.324219 159.339844 177.875 C 159.554688 178.195312 159.621094 178.480469 159.53125 178.71875 C 159.457031 178.917969 159.28125 179.066406 159.039062 179.132812 C 158.640625 179.242188 158.078125 179.144531 157.457031 178.855469 C 156.667969 178.488281 156.117188 177.953125 155.820312 177.269531 C 155.621094 176.789062 155.515625 176.285156 155.503906 175.765625 C 155.066406 175.519531 154.636719 175.226562 154.242188 174.8125 C 153.890625 174.4375 153.578125 173.976562 153.277344 173.527344 C 152.894531 172.957031 152.535156 172.421875 152.152344 172.152344 C 151.316406 171.566406 150.464844 172.347656 150.03125 172.867188 C 149.597656 173.386719 149.148438 174.152344 148.722656 175.097656 C 148.917969 176.574219 149.351562 177.972656 150.023438 179.300781 C 151.074219 181.386719 152.8125 183.546875 154.089844 184.871094 C 155.519531 186.355469 156.546875 187.003906 157.886719 187.269531 C 159.355469 187.558594 161.121094 187.355469 162.21875 187.027344 C 162.925781 186.816406 163.410156 186.546875 163.917969 186.257812 C 164.261719 186.058594 164.617188 185.878906 164.980469 185.71875 C 165.441406 185.519531 165.988281 185.347656 166.519531 185.183594 C 167.148438 184.988281 167.800781 184.785156 168.328125 184.53125 C 168.570312 184.414062 168.792969 184.285156 169.011719 184.160156 C 169.699219 183.761719 170.34375 183.386719 171.167969 183.675781 C 172.117188 184.007812 173.253906 185.191406 175.089844 187.765625 C 176.574219 189.84375 178.734375 193.128906 180.609375 196.980469 C 182.425781 200.710938 183.8125 204.636719 184.507812 208.03125 C 185.253906 211.652344 185.203125 214.59375 184.359375 216.769531 C 183.53125 218.90625 181.867188 220.453125 179.410156 221.375 C 177.359375 222.144531 174.644531 222.527344 171.957031 222.417969 C 171.292969 222.390625 170.683594 222.335938 170.144531 222.285156 C 169.707031 222.246094 169.230469 222.203125 168.949219 222.207031 L 168.980469 222.234375 C 170.222656 223.296875 173.988281 225.035156 179.355469 223.992188 C 182.082031 223.464844 185.261719 222.222656 188.628906 220.914062 C 192.460938 219.421875 196.421875 217.878906 200.125 217.21875 C 207.117188 215.976562 213.128906 217.957031 218.941406 219.875 L 218.777344 220.371094 C 213.027344 218.476562 207.082031 216.511719 200.21875 217.734375 C 196.566406 218.382812 192.628906 219.917969 188.820312 221.398438 C 185.429688 222.71875 182.226562 223.96875 179.453125 224.507812 C 176.878906 225.007812 174.441406 224.949219 172.203125 224.332031 C 170.492188 223.863281 169.242188 223.144531 168.640625 222.632812 C 168.492188 222.507812 168.1875 222.242188 168.3125 221.953125 C 168.457031 221.605469 168.964844 221.652344 170.191406 221.765625 C 170.722656 221.8125 171.328125 221.867188 171.976562 221.894531 C 174.597656 222 177.238281 221.632812 179.226562 220.886719 C 181.539062 220.019531 183.097656 218.570312 183.871094 216.578125 C 184.675781 214.496094 184.71875 211.65625 183.996094 208.136719 C 183.308594 204.78125 181.9375 200.898438 180.136719 197.210938 C 178.277344 193.390625 176.132812 190.132812 174.664062 188.070312 C 172.945312 185.660156 171.8125 184.457031 170.996094 184.171875 C 170.398438 183.960938 169.902344 184.25 169.269531 184.613281 C 169.042969 184.742188 168.8125 184.878906 168.550781 185.003906 C 167.988281 185.273438 167.320312 185.484375 166.667969 185.683594 C 166.128906 185.851562 165.617188 186.011719 165.179688 186.199219 C 164.835938 186.351562 164.5 186.527344 164.171875 186.714844 C 163.65625 187.003906 163.128906 187.300781 162.363281 187.53125 C 161.203125 187.875 159.339844 188.089844 157.78125 187.78125 C 156.34375 187.5 155.199219 186.785156 153.707031 185.238281 C 152.40625 183.882812 150.628906 181.675781 149.554688 179.539062 C 148.984375 178.417969 148.582031 177.238281 148.339844 176.003906 C 148.171875 176.429688 148.011719 176.882812 147.855469 177.359375 C 147.242188 179.253906 146.785156 181.351562 146.605469 183.113281 C 146.421875 184.917969 146.515625 186.421875 146.941406 188.484375 C 147.179688 189.648438 147.519531 190.964844 147.914062 192.492188 C 148.214844 193.652344 148.550781 194.964844 148.878906 196.34375 C 149.167969 197.570312 149.453125 198.878906 149.726562 200.203125 C 150.578125 199.664062 151.402344 199.097656 152.210938 198.535156 C 153.917969 197.351562 155.53125 196.234375 157.25 195.554688 C 161.777344 193.769531 166.257812 195.269531 167.523438 195.773438 C 170.5 196.957031 171.636719 198.652344 172.0625 199.863281 C 172.585938 201.351562 172.296875 202.742188 171.578125 204.78125 C 171.214844 205.820312 170.742188 207.015625 170.242188 208.277344 C 169.796875 209.40625 169.335938 210.570312 168.945312 211.652344 C 168.300781 213.417969 167.824219 215.003906 167.402344 216.402344 C 167.277344 216.8125 167.160156 217.199219 167.042969 217.582031 C 166.472656 219.4375 165.945312 220.917969 165.25 222.113281 C 164.441406 223.5 163.449219 224.378906 162.214844 224.796875 C 161.570312 225.011719 160.777344 225.125 159.953125 225.125 Z M 159.328125 203.066406 L 159.347656 203.066406 C 159.671875 203.082031 159.835938 203.464844 159.941406 204.488281 C 160.089844 205.882812 160.109375 208.523438 159.804688 211.027344 C 159.511719 213.410156 158.933594 215.558594 158.21875 216.921875 C 157.71875 217.878906 157.152344 218.414062 156.699219 218.84375 C 156.519531 219.011719 156.347656 219.175781 156.199219 219.34375 C 155.679688 219.9375 155.382812 220.703125 155.183594 221.304688 C 154.972656 221.933594 154.863281 222.386719 155.230469 222.878906 C 155.675781 223.476562 156.710938 224.050781 157.871094 224.34375 C 159.269531 224.703125 160.910156 224.683594 162.050781 224.296875 C 163.175781 223.914062 164.050781 223.136719 164.804688 221.84375 C 165.476562 220.691406 165.988281 219.246094 166.546875 217.421875 C 166.667969 217.042969 166.78125 216.65625 166.90625 216.246094 C 167.332031 214.839844 167.8125 213.246094 168.457031 211.46875 C 168.851562 210.378906 169.316406 209.210938 169.761719 208.082031 C 170.257812 206.824219 170.726562 205.632812 171.089844 204.601562 C 171.769531 202.675781 172.046875 201.375 171.574219 200.035156 C 171.183594 198.925781 170.132812 197.367188 167.332031 196.253906 C 166.113281 195.769531 161.796875 194.320312 157.445312 196.039062 C 155.78125 196.691406 154.195312 197.792969 152.511719 198.960938 C 151.644531 199.5625 150.765625 200.171875 149.84375 200.746094 C 150.207031 202.570312 150.539062 204.394531 150.796875 206.027344 C 151.257812 208.96875 151.472656 211.226562 151.613281 212.71875 L 151.613281 212.726562 C 151.753906 214.21875 151.824219 214.964844 151.222656 215.515625 C 150.960938 215.757812 150.582031 215.9375 150.183594 216.132812 C 149.757812 216.339844 149.320312 216.554688 149.011719 216.839844 C 148.359375 217.457031 148.265625 218.59375 148.257812 219.054688 C 148.242188 219.890625 148.421875 220.382812 148.863281 220.71875 C 149.300781 221.050781 150.140625 221.296875 151.210938 221.40625 C 151.933594 221.476562 152.820312 221.5 153.25 221.015625 C 153.503906 220.726562 153.640625 220.238281 153.785156 219.722656 C 153.878906 219.371094 153.992188 219.03125 154.128906 218.695312 C 154.363281 218.167969 154.703125 217.742188 155.058594 217.292969 C 155.28125 217.015625 155.507812 216.730469 155.738281 216.390625 C 156.25 215.636719 156.902344 214.449219 157.425781 211.929688 C 157.691406 210.636719 157.925781 208.984375 158.132812 207.527344 C 158.304688 206.304688 158.46875 205.152344 158.625 204.402344 C 158.828125 203.421875 159.011719 203.066406 159.324219 203.066406 Z M 159.394531 184.378906 C 159.339844 184.378906 159.289062 184.390625 159.246094 184.417969 C 159.148438 184.484375 159.105469 184.640625 159.085938 184.757812 C 159.027344 185.113281 159.097656 185.628906 159.347656 185.890625 C 159.582031 186.132812 160.042969 186.242188 160.613281 186.1875 C 160.929688 186.160156 161.230469 186.082031 161.519531 185.957031 C 161.382812 185.875 161.152344 185.777344 160.988281 185.707031 C 160.839844 185.640625 160.683594 185.574219 160.539062 185.503906 C 160.132812 185.304688 159.714844 185.015625 159.546875 184.398438 L 159.527344 184.394531 C 159.484375 184.386719 159.441406 184.378906 159.394531 184.378906 Z M 160 184 C 160.230469 184.09375 160.480469 184.222656 160.742188 184.355469 C 160.984375 184.480469 161.238281 184.609375 161.460938 184.699219 C 161.96875 184.90625 162.285156 184.917969 162.703125 184.433594 C 162.960938 184.128906 163.246094 183.640625 163.550781 183.128906 C 163.8125 182.675781 164.085938 182.210938 164.375 181.816406 C 164.582031 181.527344 164.8125 181.261719 165.074219 181.015625 C 165.046875 180.878906 165.039062 180.738281 165.050781 180.597656 C 165.109375 180.019531 165.378906 179.566406 165.863281 179.246094 C 166.335938 178.933594 166.996094 178.8125 167.625 178.921875 C 168.226562 179.027344 168.816406 179.339844 169.480469 179.90625 C 169.625 180.023438 169.769531 180.15625 169.910156 180.285156 C 170.347656 180.679688 170.800781 181.09375 171.144531 181.148438 C 171.46875 181.203125 171.785156 180.859375 172.242188 179.960938 C 172.8125 178.839844 173.089844 177.90625 173.046875 177.257812 C 173.007812 176.742188 172.765625 176.324219 172.484375 175.839844 C 172.324219 175.578125 172.179688 175.308594 172.050781 175.03125 C 171.691406 174.222656 171.503906 173.191406 171.496094 171.957031 C 171.488281 170.578125 171.707031 169.496094 172.140625 168.738281 C 172.632812 167.886719 173.476562 167.289062 174.800781 166.855469 C 175.957031 166.476562 177.605469 166.183594 178.816406 166.140625 C 179.695312 166.109375 180.210938 166.21875 180.480469 166.496094 C 180.632812 166.652344 180.703125 166.835938 180.6875 167.054688 C 180.652344 167.828125 179.597656 168.914062 179.273438 169.230469 C 178.984375 169.515625 178.675781 169.78125 178.351562 170.0625 C 177.871094 170.476562 177.371094 170.90625 176.898438 171.429688 C 176.109375 172.300781 175.382812 173.4375 174.855469 174.265625 C 174.625 174.625 174.425781 174.9375 174.308594 175.175781 C 174.183594 175.4375 174.210938 175.507812 174.210938 175.507812 C 174.332031 175.621094 175.003906 175.667969 175.652344 175.15625 C 176.171875 174.75 176.636719 173.976562 177.128906 173.160156 C 177.253906 172.953125 177.386719 172.738281 177.519531 172.523438 C 178.230469 171.390625 179.011719 170.3125 179.871094 169.289062 C 180.152344 168.960938 180.429688 168.644531 180.703125 168.335938 C 181.242188 167.726562 181.746094 167.152344 182.003906 166.722656 C 182.167969 166.445312 182.230469 166.222656 182.1875 166.066406 C 182.160156 165.949219 182.066406 165.851562 181.90625 165.761719 C 181.484375 165.523438 180.714844 165.410156 179.617188 165.433594 C 179.074219 165.445312 178.449219 165.484375 177.785156 165.53125 C 177.027344 165.585938 176.242188 165.636719 175.457031 165.65625 C 173.863281 165.6875 172.453125 165.566406 171.585938 165.316406 C 170.878906 165.109375 170.5 164.8125 170.0625 164.46875 C 169.917969 164.355469 169.769531 164.238281 169.597656 164.113281 C 169.132812 163.78125 168.101562 163.121094 166.445312 162.457031 C 165.476562 162.066406 163.609375 161.410156 162 161.375 C 161.757812 161.371094 161.511719 161.382812 161.269531 161.40625 C 161.3125 161.585938 161.351562 161.761719 161.382812 161.933594 C 161.527344 162.777344 161.496094 163.679688 161.300781 164.234375 C 161.152344 164.644531 160.910156 164.890625 160.652344 164.886719 C 160.464844 164.886719 160.308594 164.753906 160.234375 164.539062 C 160.1875 164.398438 160.171875 164.222656 160.148438 163.976562 C 160.113281 163.558594 160.0625 162.988281 159.820312 162.269531 C 159.777344 162.144531 159.730469 162.015625 159.679688 161.882812 C 159.421875 162.027344 159.195312 162.207031 159.003906 162.429688 C 158.730469 162.757812 158.566406 163.164062 158.40625 163.550781 C 158.230469 163.984375 158.050781 164.433594 157.714844 164.757812 C 157.230469 165.230469 156.464844 165.410156 155.722656 165.582031 C 155.484375 165.636719 155.234375 165.695312 155.003906 165.761719 C 154.824219 165.816406 154.648438 165.871094 154.480469 165.925781 C 153.730469 166.171875 152.960938 166.425781 152.632812 165.726562 C 152.378906 165.183594 152.4375 163.976562 152.820312 161.929688 C 153.042969 160.734375 153.34375 159.390625 153.859375 158.46875 C 154.351562 157.589844 155.050781 157.085938 155.824219 157.050781 C 156.621094 157.015625 157.4375 157.480469 158.242188 158.4375 C 158.863281 159.171875 159.5 160.207031 159.945312 161.179688 C 160.164062 161.097656 160.386719 161.03125 160.613281 160.984375 C 160.457031 160.464844 160.261719 159.921875 160.0625 159.359375 L 160.015625 159.222656 C 159.667969 158.253906 159.3125 157.253906 158.886719 156.511719 C 158.460938 155.773438 157.992188 155.316406 157.433594 155.101562 C 156.914062 154.898438 156.273438 154.898438 155.464844 155.09375 C 154.507812 155.328125 153.792969 155.722656 153.273438 156.300781 C 152.730469 156.90625 152.320312 157.824219 151.925781 158.714844 C 151.863281 158.859375 151.796875 159.007812 151.730469 159.152344 C 151.628906 159.378906 151.523438 159.601562 151.425781 159.820312 C 151.046875 160.628906 150.691406 161.394531 150.464844 162.179688 C 150.300781 162.753906 150.207031 163.359375 150.113281 163.941406 C 150.042969 164.375 149.96875 164.824219 149.871094 165.261719 C 149.769531 165.695312 149.640625 166.121094 149.507812 166.574219 C 149.320312 167.183594 149.132812 167.820312 148.96875 168.601562 C 148.640625 170.253906 148.515625 171.921875 148.589844 173.605469 C 148.597656 173.773438 148.609375 173.941406 148.621094 174.105469 C 148.921875 173.519531 149.261719 172.972656 149.628906 172.535156 C 150.5625 171.421875 151.589844 171.125 152.453125 171.726562 C 152.917969 172.054688 153.304688 172.628906 153.714844 173.238281 C 154.003906 173.667969 154.300781 174.113281 154.625 174.457031 C 154.898438 174.738281 155.203125 174.980469 155.539062 175.183594 C 155.5625 175.007812 155.605469 174.839844 155.671875 174.679688 C 155.78125 174.425781 155.949219 174.257812 156.171875 174.171875 C 156.5 174.050781 156.921875 174.121094 157.503906 174.390625 C 157.992188 174.621094 159.199219 175.28125 159.867188 176.464844 C 160.382812 177.375 160.566406 178.585938 160.429688 180.164062 C 160.378906 180.761719 160.285156 181.363281 160.195312 181.949219 C 160.085938 182.664062 159.984375 183.335938 159.992188 183.808594 C 159.988281 183.875 159.992188 183.9375 160 184 Z M 165.683594 181.179688 C 165.761719 181.328125 165.878906 181.4375 166.03125 181.511719 C 166.382812 181.679688 167.003906 181.695312 167.539062 181.539062 C 167.953125 181.421875 168.308594 181.191406 168.484375 180.921875 C 168.558594 180.816406 168.566406 180.753906 168.558594 180.734375 C 168.554688 180.710938 168.511719 180.671875 168.398438 180.628906 C 168.046875 180.5 167.308594 180.472656 166.640625 180.679688 C 166.289062 180.789062 165.96875 180.953125 165.679688 181.179688 Z M 156.046875 176.058594 C 156.078125 176.40625 156.164062 176.738281 156.296875 177.0625 C 156.546875 177.636719 156.996094 178.066406 157.675781 178.382812 C 158.171875 178.613281 158.625 178.707031 158.898438 178.632812 C 158.933594 178.621094 159.019531 178.59375 159.039062 178.539062 C 159.054688 178.488281 159.03125 178.359375 158.902344 178.167969 C 158.625 177.753906 157.867188 177.058594 156.949219 176.53125 C 156.707031 176.390625 156.453125 176.261719 156.207031 176.136719 Z M 155.90625 157.574219 L 155.84375 157.574219 C 155.25 157.601562 154.722656 158 154.3125 158.722656 C 153.832031 159.578125 153.546875 160.871094 153.332031 162.023438 C 152.894531 164.367188 152.96875 165.210938 153.105469 165.503906 C 153.222656 165.753906 153.5625 165.671875 154.316406 165.425781 C 154.492188 165.371094 154.671875 165.308594 154.859375 165.257812 C 155.105469 165.1875 155.359375 165.128906 155.601562 165.070312 C 156.304688 164.90625 156.972656 164.75 157.351562 164.382812 C 157.605469 164.132812 157.761719 163.753906 157.921875 163.351562 C 158.097656 162.921875 158.277344 162.480469 158.601562 162.089844 C 158.847656 161.804688 159.136719 161.574219 159.46875 161.398438 C 159.039062 160.46875 158.421875 159.460938 157.839844 158.773438 C 157.167969 157.976562 156.519531 157.574219 155.90625 157.574219 Z M 160.152344 161.664062 C 160.210938 161.816406 160.265625 161.960938 160.3125 162.105469 C 160.507812 162.699219 160.628906 163.308594 160.667969 163.933594 C 160.679688 164.066406 160.691406 164.183594 160.707031 164.273438 C 160.746094 164.207031 160.78125 164.136719 160.804688 164.0625 C 160.945312 163.675781 161.015625 162.890625 160.863281 162.023438 C 160.835938 161.851562 160.796875 161.675781 160.75 161.492188 C 160.546875 161.535156 160.347656 161.59375 160.152344 161.664062 Z M 160.152344 161.664062 " fill-opacity="1" fill-rule="nonzero"/></g><g fill="#2c2c2c" fill-opacity="1"><g transform="translate(128.002902, 106.652803)"><g><path d="M 1.257812 -1.027344 L 2.71875 -2.21875 L -10.113281 -17.945312 L -11.574219 -16.753906 Z M 1.257812 -1.027344 "/></g></g></g><g fill="#2c2c2c" fill-opacity="1"><g transform="translate(131.630728, 103.684985)"><g/></g></g><g fill="#2c2c2c" fill-opacity="1"><g transform="translate(134.68238, 101.20181)"><g><path d="M 1.261719 -0.773438 L 2.867188 -1.761719 L -2.019531 -9.714844 L 2.578125 -12.539062 L 7.460938 -4.582031 L 9.066406 -5.570312 L -1.554688 -22.863281 L -3.160156 -21.878906 L 1.664062 -14.019531 L -2.929688 -11.199219 L -7.753906 -19.054688 L -9.359375 -18.070312 Z M 1.261719 -0.773438 "/></g></g></g><g fill="#2c2c2c" fill-opacity="1"><g transform="translate(144.014132, 95.400257)"><g><path d="M 0.554688 -0.253906 L 2.238281 -1.03125 L 0.996094 -6.234375 L 5.261719 -8.195312 L 8.429688 -3.878906 L 10.167969 -4.675781 L -2.25 -21.402344 L -4.09375 -20.554688 Z M 0.542969 -7.910156 L -1.851562 -18.042969 L 4.285156 -9.628906 Z M 0.542969 -7.910156 "/></g></g></g><g fill="#2c2c2c" fill-opacity="1"><g transform="translate(153.722697, 90.882768)"><g><path d="M 4.472656 -1.339844 L 6.292969 -1.933594 L 3.835938 -22.605469 L 2.046875 -22.023438 L 4.265625 -5.144531 L -3.878906 -20.085938 L -5.726562 -19.480469 Z M 4.472656 -1.339844 "/></g></g></g><g fill="#2c2c2c" fill-opacity="1"><g transform="translate(163.477749, 87.690484)"><g><path d="M 1.445312 -0.3125 L 8.503906 -1.832031 L 8.128906 -3.5625 L 2.914062 -2.4375 L 1.320312 -9.835938 L 5.96875 -10.835938 L 5.59375 -12.566406 L 0.945312 -11.566406 L -0.617188 -18.820312 L 4.511719 -19.925781 L 4.140625 -21.65625 L -2.832031 -20.152344 Z M 1.445312 -0.3125 "/></g></g></g><g fill="#2c2c2c" fill-opacity="1"><g transform="translate(172.064922, 85.900009)"><g/></g></g><g fill="#2c2c2c" fill-opacity="1"><g transform="translate(176.092715, 85.234151)"><g><path d="M 3.441406 -0.253906 L 5.320312 -0.394531 L 3.953125 -18.871094 L 7.046875 -19.097656 L 6.917969 -20.863281 L -1.121094 -20.269531 L -0.988281 -18.503906 L 2.074219 -18.730469 Z M 3.441406 -0.253906 "/></g></g></g><g fill="#2c2c2c" fill-opacity="1"><g transform="translate(183.634096, 84.30501)"><g><path d="M 4.046875 0.351562 L 5.898438 0.460938 L 9.703125 -15.527344 L 11.601562 0.792969 L 13.480469 0.902344 L 18.054688 -19.28125 L 16.144531 -19.390625 L 12.765625 -3.265625 L 10.847656 -19.699219 L 9.109375 -19.800781 L 5.269531 -3.703125 L 3.8125 -20.109375 L 1.84375 -20.222656 Z M 4.046875 0.351562 "/></g></g></g><g fill="#2c2c2c" fill-opacity="1"><g transform="translate(199.772639, 85.350355)"><g><path d="M 5.765625 1.46875 C 8.574219 2.054688 11.3125 -0.84375 12.679688 -7.398438 L 12.808594 -8.023438 C 14.175781 -14.582031 12.820312 -18.328125 10.011719 -18.914062 C 7.203125 -19.5 4.4375 -16.609375 3.070312 -10.050781 L 2.941406 -9.425781 C 1.574219 -2.871094 2.957031 0.882812 5.765625 1.46875 Z M 6.121094 -0.234375 C 4.417969 -0.589844 3.648438 -3.445312 4.816406 -9.039062 L 4.945312 -9.660156 C 6.109375 -15.253906 7.953125 -17.566406 9.65625 -17.210938 C 11.359375 -16.855469 12.128906 -14 10.960938 -8.40625 L 10.832031 -7.785156 C 9.667969 -2.191406 7.824219 0.121094 6.121094 -0.234375 Z M 6.121094 -0.234375 "/></g></g></g><g fill="#2c2c2c" fill-opacity="1"><g transform="translate(210.605158, 87.724931)"><g/></g></g><g fill="#2c2c2c" fill-opacity="1"><g transform="translate(214.514814, 88.769747)"><g><path d="M 5.960938 2.429688 C 6.804688 2.746094 7.527344 2.804688 8.265625 2.648438 L 8.929688 0.882812 C 8.089844 1.0625 7.449219 1.039062 6.796875 0.792969 C 4.84375 0.0585938 4.15625 -2.894531 6.160156 -8.214844 L 6.363281 -8.757812 C 8.335938 -13.996094 10.828125 -15.84375 12.78125 -15.109375 C 13.40625 -14.875 13.851562 -14.488281 14.402344 -13.816406 L 15.097656 -15.660156 C 14.585938 -16.195312 14.1875 -16.53125 13.316406 -16.859375 C 10.523438 -17.910156 6.984375 -15.835938 4.574219 -9.433594 L 4.367188 -8.890625 C 1.957031 -2.484375 3.085938 1.347656 5.960938 2.429688 Z M 5.960938 2.429688 "/></g></g></g><g fill="#2c2c2c" fill-opacity="1"><g transform="translate(222.58908, 91.688756)"><g><path d="M 0.542969 0.273438 L 2.199219 1.109375 L 5.496094 -3.105469 L 9.691406 -0.992188 L 8.285156 4.175781 L 9.992188 5.039062 L 15.339844 -15.09375 L 13.527344 -16.007812 Z M 6.523438 -4.503906 L 12.957031 -12.6875 L 10.199219 -2.648438 Z M 6.523438 -4.503906 "/></g></g></g><g fill="#2c2c2c" fill-opacity="1"><g transform="translate(232.236922, 96.580375)"><g><path d="M 2.90625 1.863281 L 4.492188 2.878906 L 14.492188 -12.71875 L 17.101562 -11.042969 L 18.058594 -12.53125 L 11.273438 -16.882812 L 10.316406 -15.394531 L 12.90625 -13.734375 Z M 2.90625 1.863281 "/></g></g></g><g fill="#2c2c2c" fill-opacity="1"><g transform="translate(238.95076, 100.818593)"><g><path d="M 3.351562 2.871094 C 5.292969 4.386719 7.890625 4.167969 9.585938 1.996094 L 9.601562 1.972656 C 10.941406 0.257812 11.246094 -1.453125 11.15625 -5.492188 C 11.132812 -8.859375 11.308594 -9.933594 12.113281 -10.960938 L 12.148438 -11.007812 C 13.09375 -12.21875 14.515625 -12.394531 15.636719 -11.523438 C 16.390625 -10.933594 16.910156 -10.089844 17.332031 -8.839844 L 18.597656 -10.464844 C 18.171875 -11.421875 17.632812 -12.246094 16.675781 -12.992188 C 14.800781 -14.457031 12.191406 -14.171875 10.585938 -12.117188 L 10.550781 -12.070312 C 9.335938 -10.515625 9.199219 -9.113281 9.195312 -4.816406 C 9.183594 -1.40625 8.953125 -0.261719 8.082031 0.859375 L 8.0625 0.882812 C 7.027344 2.207031 5.601562 2.34375 4.386719 1.398438 C 3.585938 0.773438 2.992188 -0.207031 2.433594 -1.707031 L 1.183594 -0.105469 C 1.730469 1.128906 2.367188 2.101562 3.351562 2.871094 Z M 3.351562 2.871094 "/></g></g></g><g fill="#2c2c2c" fill-opacity="1"><g transform="translate(80.882928, 197.415471)"><g><path d="M 0.414062 1.417969 L 0.917969 3.144531 L 16.003906 -1.253906 L 2.523438 8.65625 L 3.019531 10.355469 L 22.503906 4.671875 L 21.992188 2.917969 L 7.324219 7.195312 L 20.425781 -2.457031 L 19.898438 -4.265625 Z M 0.414062 1.417969 "/></g></g></g><g fill="#2c2c2c" fill-opacity="1"><g transform="translate(84.711239, 210.26003)"><g><path d="M 0.238281 0.558594 L 0.96875 2.265625 L 6.203125 1.164062 L 8.050781 5.480469 L 3.648438 8.53125 L 4.398438 10.289062 L 21.457031 -1.667969 L 20.65625 -3.535156 Z M 7.890625 0.757812 L 18.085938 -1.363281 L 9.511719 4.542969 Z M 7.890625 0.757812 "/></g></g></g><g fill="#2c2c2c" fill-opacity="1"><g transform="translate(89.854977, 222.254778)"><g><path d="M 0.75 1.273438 L 1.664062 2.824219 L 15.527344 -5.347656 L 8.148438 3.207031 L 8.210938 3.304688 L 19.265625 0.996094 L 5.402344 9.167969 L 6.332031 10.742188 L 23.816406 0.433594 L 22.757812 -1.363281 L 12.101562 0.945312 L 19.296875 -7.234375 L 18.234375 -9.03125 Z M 0.75 1.273438 "/></g></g></g><g fill="#2c2c2c" fill-opacity="1"><g transform="translate(97.661048, 235.11275)"><g><path d="M 0.894531 1.175781 L 5.261719 6.925781 L 6.667969 5.859375 L 3.441406 1.609375 L 9.46875 -2.96875 L 12.34375 0.820312 L 13.753906 -0.25 L 10.878906 -4.035156 L 16.789062 -8.527344 L 19.964844 -4.347656 L 21.371094 -5.414062 L 17.058594 -11.097656 Z M 0.894531 1.175781 "/></g></g></g><g fill="#2c2c2c" fill-opacity="1"><g transform="translate(103.992478, 243.464903)"><g><path d="M 1.015625 1.078125 L 2.824219 2.996094 C 5.546875 5.890625 9.84375 5.546875 14.570312 1.09375 L 14.992188 0.695312 C 19.722656 -3.757812 20.320312 -8.027344 17.597656 -10.917969 L 15.789062 -12.839844 Z M 16.414062 -9.679688 C 18.222656 -7.761719 17.734375 -4.515625 13.683594 -0.695312 L 13.257812 -0.300781 C 9.207031 3.515625 5.996094 3.871094 4.148438 1.910156 L 3.550781 1.277344 L 15.835938 -10.292969 Z M 16.414062 -9.679688 "/></g></g></g><g fill="#2c2c2c" fill-opacity="1"><g transform="translate(112.712584, 252.462548)"><g/></g></g><g fill="#2c2c2c" fill-opacity="1"><g transform="translate(116.696563, 256.137297)"><g><path d="M 4.972656 4.089844 C 5.683594 4.644531 6.355469 4.910156 7.109375 4.980469 L 8.265625 3.496094 C 7.410156 3.414062 6.804688 3.203125 6.253906 2.773438 C 4.605469 1.492188 4.828125 -1.53125 8.320312 -6.015625 L 8.675781 -6.472656 C 12.113281 -10.890625 15.042969 -11.914062 16.691406 -10.632812 C 17.21875 -10.222656 17.527344 -9.726562 17.855469 -8.917969 L 19.066406 -10.472656 C 18.738281 -11.136719 18.453125 -11.574219 17.722656 -12.144531 C 15.367188 -13.980469 11.371094 -13.046875 7.167969 -7.648438 L 6.8125 -7.191406 C 2.605469 -1.792969 2.546875 2.203125 4.972656 4.089844 Z M 4.972656 4.089844 "/></g></g></g><g fill="#2c2c2c" fill-opacity="1"><g transform="translate(125.094835, 262.68627)"><g><path d="M 1.257812 0.777344 L 2.863281 1.765625 L 7.765625 -6.179688 L 12.355469 -3.347656 L 7.453125 4.597656 L 9.054688 5.589844 L 19.714844 -11.683594 L 18.109375 -12.675781 L 13.269531 -4.828125 L 8.679688 -7.660156 L 13.519531 -15.507812 L 11.917969 -16.496094 Z M 1.257812 0.777344 "/></g></g></g><g fill="#2c2c2c" fill-opacity="1"><g transform="translate(136.436736, 269.59665)"><g><path d="M 5.257812 2.71875 C 7.761719 3.875 10.28125 2.773438 11.789062 -0.492188 L 18.042969 -14.019531 L 16.332031 -14.808594 L 10.042969 -1.203125 C 8.984375 1.085938 7.488281 1.832031 5.988281 1.140625 C 4.515625 0.457031 4.117188 -1.164062 5.175781 -3.453125 L 11.464844 -17.0625 L 9.753906 -17.851562 L 3.5 -4.324219 C 1.992188 -1.058594 2.757812 1.5625 5.257812 2.71875 Z M 5.257812 2.71875 "/></g></g></g><g fill="#2c2c2c" fill-opacity="1"><g transform="translate(148.140593, 274.854277)"><g><path d="M 1.398438 0.480469 L 7.648438 2.636719 L 8.222656 0.964844 L 3.757812 -0.574219 L 9.792969 -18.09375 L 8.011719 -18.707031 Z M 1.398438 0.480469 "/></g></g></g><g fill="#2c2c2c" fill-opacity="1"><g transform="translate(156.946854, 277.930611)"><g><path d="M 0.59375 0.140625 L 2.398438 0.566406 L 4.617188 -4.304688 L 9.191406 -3.226562 L 9.03125 2.125 L 10.894531 2.566406 L 11.386719 -18.257812 L 9.414062 -18.726562 Z M 5.292969 -5.902344 L 9.632812 -15.367188 L 9.300781 -4.960938 Z M 5.292969 -5.902344 "/></g></g></g><g fill="#2c2c2c" fill-opacity="1"><g transform="translate(169.243455, 280.64115)"><g/></g></g><g fill="#2c2c2c" fill-opacity="1"><g transform="translate(174.706328, 281.580291)"><g><path d="M 10.3125 0.929688 L 11.816406 0.15625 L 10.121094 -3.296875 C 10.804688 -4.851562 11.347656 -6.527344 11.78125 -8.738281 L 10.265625 -9.097656 C 9.929688 -7.492188 9.613281 -6.234375 9.1875 -5.042969 L 6.671875 -10.582031 C 8.722656 -12.21875 9.984375 -13.734375 10.125 -15.90625 L 10.136719 -16.078125 C 10.261719 -18.046875 9.140625 -20.007812 6.914062 -20.152344 C 4.742188 -20.292969 3.171875 -18.449219 3.039062 -16.421875 L 3.027344 -16.25 C 2.9375 -14.832031 3.425781 -13.433594 4.613281 -11.121094 C 2.351562 -9.378906 1.136719 -7.25 0.988281 -4.960938 L 0.976562 -4.789062 C 0.800781 -2.039062 2.359375 0.386719 4.875 0.546875 C 6.785156 0.671875 8.011719 -0.351562 9.066406 -1.824219 Z M 5.972656 -11.933594 C 4.945312 -14.003906 4.636719 -15.070312 4.710938 -16.226562 L 4.71875 -16.34375 C 4.800781 -17.617188 5.625 -18.636719 6.78125 -18.5625 C 7.910156 -18.492188 8.535156 -17.375 8.453125 -16.128906 L 8.445312 -15.984375 C 8.347656 -14.511719 7.59375 -13.195312 5.972656 -11.933594 Z M 5.15625 -1.117188 C 3.625 -1.21875 2.710938 -2.816406 2.835938 -4.785156 L 2.851562 -4.988281 C 2.960938 -6.664062 3.710938 -8.417969 5.308594 -9.738281 L 8.289062 -3.242188 C 7.417969 -1.902344 6.488281 -1.03125 5.15625 -1.117188 Z M 5.15625 -1.117188 "/></g></g></g><g fill="#2c2c2c" fill-opacity="1"><g transform="translate(187.555392, 282.224475)"><g/></g></g><g fill="#2c2c2c" fill-opacity="1"><g transform="translate(193.193404, 282.28789)"><g><path d="M 1.46875 -0.164062 L 3.253906 -0.367188 L 1.449219 -16.359375 L 6.25 -6.132812 L 6.367188 -6.148438 L 8.765625 -17.183594 L 10.574219 -1.195312 L 12.390625 -1.398438 L 10.109375 -21.566406 L 8.035156 -21.332031 L 5.796875 -10.664062 L 1.265625 -20.570312 L -0.808594 -20.335938 Z M 1.46875 -0.164062 "/></g></g></g><g fill="#2c2c2c" fill-opacity="1"><g transform="translate(208.241145, 280.438651)"><g><path d="M 0.589844 -0.144531 L 2.394531 -0.589844 L 2.152344 -5.933594 L 6.714844 -7.054688 L 9.011719 -2.214844 L 10.867188 -2.671875 L 1.835938 -21.441406 L -0.136719 -20.957031 Z M 2.027344 -7.664062 L 1.589844 -18.066406 L 6.027344 -8.648438 Z M 2.027344 -7.664062 "/></g></g></g><g fill="#2c2c2c" fill-opacity="1"><g transform="translate(220.762397, 277.278111)"><g><path d="M 1.386719 -0.515625 L 3.152344 -1.171875 L 0.402344 -8.5625 L 1.328125 -8.90625 C 1.597656 -9.007812 1.871094 -9.109375 2.09375 -9.253906 L 7.960938 -2.960938 L 9.945312 -3.699219 L 3.640625 -10.417969 C 5.1875 -11.921875 5.648438 -14.167969 4.679688 -16.777344 L 4.648438 -16.859375 C 3.960938 -18.707031 2.882812 -19.945312 1.550781 -20.53125 C 0.234375 -21.15625 -1.371094 -21.144531 -3.054688 -20.519531 L -5.691406 -19.539062 Z M -0.183594 -10.140625 L -3.316406 -18.566406 L -2.503906 -18.867188 C -0.21875 -19.71875 1.820312 -19.054688 2.894531 -16.171875 L 2.921875 -16.089844 C 3.953125 -13.320312 2.996094 -11.324219 0.710938 -10.472656 Z M -0.183594 -10.140625 "/></g></g></g><g fill="#2c2c2c" fill-opacity="1"><g transform="translate(232.186373, 272.926178)"><g><path d="M 4.039062 -1.777344 C 6.246094 -2.871094 7.175781 -5.304688 5.953125 -7.773438 L 5.941406 -7.800781 C 4.972656 -9.746094 3.5625 -10.761719 -0.113281 -12.4375 C -3.15625 -13.871094 -4.046875 -14.496094 -4.628906 -15.667969 L -4.652344 -15.71875 C -5.335938 -17.097656 -4.878906 -18.457031 -3.605469 -19.085938 C -2.746094 -19.511719 -1.761719 -19.613281 -0.453125 -19.453125 L -1.367188 -21.296875 C -2.417969 -21.324219 -3.390625 -21.199219 -4.480469 -20.660156 C -6.613281 -19.601562 -7.488281 -17.128906 -6.328125 -14.789062 L -6.304688 -14.738281 C -5.429688 -12.972656 -4.222656 -12.242188 -0.355469 -10.375 C 2.714844 -8.886719 3.644531 -8.183594 4.277344 -6.910156 L 4.289062 -6.882812 C 5.035156 -5.378906 4.539062 -4.03125 3.164062 -3.347656 C 2.253906 -2.898438 1.113281 -2.785156 -0.484375 -2.933594 L 0.417969 -1.113281 C 1.765625 -1.070312 2.921875 -1.222656 4.039062 -1.777344 Z M 4.039062 -1.777344 "/></g></g></g><g fill="#2c2c2c" fill-opacity="1"><g transform="translate(241.734589, 268.207955)"><g><path d="M 1.246094 -0.796875 L 2.832031 -1.8125 L -2.195312 -9.679688 L 2.347656 -12.582031 L 7.378906 -4.714844 L 8.964844 -5.730469 L -1.96875 -22.832031 L -3.554688 -21.816406 L 1.410156 -14.046875 L -3.132812 -11.144531 L -8.097656 -18.914062 L -9.6875 -17.898438 Z M 1.246094 -0.796875 "/></g></g></g><g fill="#2c2c2c" fill-opacity="1"><g transform="translate(253.000273, 260.976114)"><g><path d="M 1.132812 -0.953125 L 2.507812 -2.109375 L -7.847656 -14.425781 L 1.8125 -8.570312 L 1.902344 -8.644531 L -2.207031 -19.164062 L 8.144531 -6.847656 L 9.542969 -8.023438 L -3.515625 -23.558594 L -5.113281 -22.214844 L -1.074219 -12.089844 L -10.328125 -17.832031 L -11.929688 -16.488281 Z M 1.132812 -0.953125 "/></g></g></g><g fill="#2c2c2c" fill-opacity="1"><g transform="translate(264.509372, 251.106386)"><g><path d="M 0.410156 -0.449219 L 1.667969 -1.816406 L -1.488281 -6.132812 L 1.6875 -9.59375 L 6.277344 -6.832031 L 7.574219 -8.242188 L -10.339844 -18.875 L -11.710938 -17.378906 Z M -2.554688 -7.503906 L -8.675781 -15.925781 L 0.234375 -10.535156 Z M -2.554688 -7.503906 "/></g></g></g><g fill="#2c2c2c" fill-opacity="1"><g transform="translate(273.050838, 241.614471)"><g><path d="M 0.886719 -1.183594 L 4.847656 -6.476562 L 3.429688 -7.535156 L 0.597656 -3.753906 L -14.234375 -14.855469 L -15.363281 -13.34375 Z M 0.886719 -1.183594 "/></g></g></g><g fill="#2c2c2c" fill-opacity="1"><g transform="translate(278.509578, 234.264801)"><g><path d="M 0.785156 -1.253906 L 4.289062 -6.859375 L 2.789062 -7.796875 L 0.285156 -3.789062 L -15.421875 -13.613281 L -16.421875 -12.015625 Z M 0.785156 -1.253906 "/></g></g></g><g fill="#2c2c2c" fill-opacity="1"><g transform="translate(283.49325, 226.375012)"><g><path d="M 2.859375 -5.214844 C 4.128906 -7.792969 2.007812 -11.164062 -4 -14.125 L -4.570312 -14.40625 C -10.578125 -17.367188 -14.542969 -16.992188 -15.8125 -14.417969 C -17.082031 -11.84375 -14.976562 -8.445312 -8.964844 -5.484375 L -8.394531 -5.203125 C -2.386719 -2.242188 1.59375 -2.640625 2.859375 -5.214844 Z M 1.300781 -5.984375 C 0.53125 -4.425781 -2.425781 -4.394531 -7.546875 -6.917969 L -8.121094 -7.199219 C -13.246094 -9.726562 -15.023438 -12.089844 -14.253906 -13.648438 C -13.484375 -15.210938 -10.527344 -15.238281 -5.402344 -12.714844 L -4.832031 -12.433594 C 0.292969 -9.910156 2.070312 -7.546875 1.300781 -5.984375 Z M 1.300781 -5.984375 "/></g></g></g><g fill="#2c2c2c" fill-opacity="1"><g transform="translate(289.48084, 214.457308)"><g><path d="M 1.351562 -3.828125 L 1.917969 -5.597656 L -12.609375 -13.273438 L 3.664062 -11.035156 L 4.238281 -12.828125 L -14.160156 -22.296875 L -14.746094 -20.476562 L 0.0273438 -13.175781 L -16.367188 -15.421875 L -16.898438 -13.765625 L -2.269531 -6.027344 L -18.519531 -8.714844 L -19.121094 -6.835938 Z M 1.351562 -3.828125 "/></g></g></g></svg>