<svg xmlns="http://www.w3.org/2000/svg" xmlns:xlink="http://www.w3.org/1999/xlink" width="500" zoomAndPan="magnify" viewBox="0 0 375 374.999991" height="500" preserveAspectRatio="xMidYMid meet" version="1.0"><defs><g/></defs><g fill="#593832" fill-opacity="1"><g transform="translate(197.214068, 313.774355)"><g><path d="M -15.261719 -0.597656 C -17.394531 -0.625 -19.050781 -0.164062 -20.574219 0.78125 L -20.628906 5.25 C -18.894531 4.171875 -17.445312 3.707031 -15.796875 3.726562 C -10.84375 3.789062 -6.929688 9.820312 -7.09375 23.296875 L -7.109375 24.671875 C -7.273438 37.945312 -11.335938 44.085938 -16.289062 44.023438 C -17.867188 44.003906 -19.167969 43.507812 -20.945312 42.453125 L -21 47.132812 C -19.429688 47.90625 -18.265625 48.332031 -16.066406 48.359375 C -8.980469 48.445312 -2.769531 40.957031 -2.570312 24.726562 L -2.554688 23.351562 C -2.355469 7.125 -7.972656 -0.511719 -15.261719 -0.597656 Z M -15.261719 -0.597656 "/></g></g></g><g fill="#593832" fill-opacity="1"><g transform="translate(177.889497, 313.682024)"><g><path d="M -3.464844 -0.550781 L -18.949219 -3.019531 L -19.609375 1.125 L -8.539062 2.886719 L -15.449219 46.285156 L -11.035156 46.988281 Z M -3.464844 -0.550781 "/></g></g></g><g fill="#593832" fill-opacity="1"><g transform="translate(160.923079, 310.914497)"><g><path d="M -3.714844 -1.019531 L -8.023438 -2.199219 L -20.757812 44.226562 L -16.445312 45.40625 Z M -3.714844 -1.019531 "/></g></g></g><g fill="#593832" fill-opacity="1"><g transform="translate(151.704074, 308.889197)"><g><path d="M -13.980469 -6.152344 C -15.953125 -6.957031 -17.664062 -7.136719 -19.425781 -6.816406 L -21.117188 -2.675781 C -19.109375 -3.046875 -17.589844 -2.945312 -16.0625 -2.324219 C -11.476562 -0.449219 -10.046875 6.597656 -15.140625 19.074219 L -15.660156 20.347656 C -20.675781 32.636719 -26.707031 36.859375 -31.292969 34.988281 C -32.757812 34.390625 -33.785156 33.453125 -35.050781 31.820312 L -36.816406 36.152344 C -35.640625 37.449219 -34.710938 38.273438 -32.675781 39.105469 C -26.117188 41.78125 -17.589844 37.089844 -11.457031 22.0625 L -10.9375 20.789062 C -4.804688 5.765625 -7.230469 -3.398438 -13.980469 -6.152344 Z M -13.980469 -6.152344 "/></g></g></g><g fill="#593832" fill-opacity="1"><g transform="translate(134.068044, 302.194228)"><g><path d="M -2.980469 -1.847656 L -6.78125 -4.203125 L -14.496094 8.25 L -21.222656 12.578125 L -17.65625 -10.9375 L -21.746094 -13.476562 L -26.25 15.207031 L -46.226562 27.988281 L -42.015625 30.597656 L -18.699219 15.03125 L -32.136719 36.71875 L -28.335938 39.074219 Z M -2.980469 -1.847656 "/></g></g></g><g fill="#593832" fill-opacity="1"><g transform="translate(114.656128, 289.83504)"><g/></g></g><g fill="#593832" fill-opacity="1"><g transform="translate(107.707835, 284.732348)"><g><path d="M -2.460938 -2.5 L -5.597656 -5.683594 L -21.03125 9.515625 L -28.464844 1.972656 L -31.402344 4.867188 L -23.972656 12.414062 L -36.90625 25.152344 L -45.160156 16.773438 L -48.148438 19.71875 L -36.761719 31.28125 Z M -2.460938 -2.5 "/></g></g></g><g fill="#593832" fill-opacity="1"><g transform="translate(95.201448, 272.934926)"><g><path d="M -7.554688 -11.917969 C -11.449219 -17.503906 -20.882812 -16.960938 -33.914062 -7.875 L -35.15625 -7.007812 C -48.1875 2.078125 -51.953125 10.742188 -48.058594 16.328125 C -44.164062 21.910156 -34.691406 21.425781 -21.664062 12.339844 L -20.421875 11.472656 C -7.390625 2.386719 -3.660156 -6.332031 -7.554688 -11.917969 Z M -10.941406 -9.558594 C -8.582031 -6.171875 -11.90625 0 -23.015625 7.75 L -24.257812 8.617188 C -35.371094 16.367188 -42.3125 17.351562 -44.675781 13.964844 C -47.035156 10.582031 -43.710938 4.40625 -32.597656 -3.34375 L -31.355469 -4.207031 C -20.246094 -11.957031 -13.300781 -12.941406 -10.941406 -9.558594 Z M -10.941406 -9.558594 "/></g></g></g><g fill="#593832" fill-opacity="1"><g transform="translate(81.30487, 253.59781)"><g><path d="M -1.433594 -3.199219 L -3.261719 -7.28125 L -20.332031 0.371094 L -21.289062 -1.765625 C -21.570312 -2.390625 -21.851562 -3.019531 -22.230469 -3.527344 L -8.238281 -18.386719 L -10.292969 -22.96875 L -25.222656 -7.011719 C -29.015625 -10.433594 -34.402344 -11.1875 -40.429688 -8.488281 L -40.617188 -8.402344 C -44.882812 -6.488281 -47.648438 -3.742188 -48.832031 -0.5 C -50.105469 2.707031 -49.835938 6.507812 -48.09375 10.398438 L -45.367188 16.484375 Z M -23.972656 2 L -43.429688 10.71875 L -44.273438 8.835938 C -46.632812 3.5625 -45.378906 -1.371094 -38.726562 -4.351562 L -38.539062 -4.433594 C -32.136719 -7.304688 -27.261719 -5.34375 -24.902344 -0.0703125 Z M -23.972656 2 "/></g></g></g><g fill="#593832" fill-opacity="1"><g transform="translate(71.96286, 232.012779)"><g/></g></g><g fill="#593832" fill-opacity="1"><g transform="translate(69.081613, 223.89008)"><g><path d="M -0.632812 -3.449219 L -1.4375 -7.847656 L -22.746094 -3.945312 L -24.652344 -14.363281 L -28.710938 -13.621094 L -26.804688 -3.203125 L -44.664062 0.0664062 L -46.78125 -11.5 L -50.90625 -10.746094 L -47.984375 5.21875 Z M -0.632812 -3.449219 "/></g></g></g><g fill="#593832" fill-opacity="1"><g transform="translate(65.371109, 207.100631)"><g><path d="M 0.445312 -14.035156 C 0.363281 -20.570312 -4.574219 -24.839844 -13.101562 -24.734375 L -48.449219 -24.292969 L -48.390625 -19.820312 L -12.839844 -20.265625 C -6.855469 -20.339844 -3.730469 -17.902344 -3.683594 -13.984375 C -3.632812 -10.132812 -6.699219 -7.621094 -12.679688 -7.542969 L -48.234375 -7.101562 L -48.175781 -2.628906 L -12.832031 -3.070312 C -4.304688 -3.179688 0.523438 -7.503906 0.445312 -14.035156 Z M 0.445312 -14.035156 "/></g></g></g><g fill="#593832" fill-opacity="1"><g transform="translate(64.583957, 183.5302)"><g><path d="M 0.640625 -3.449219 L 1.414062 -7.640625 L -35.234375 -14.429688 L 3.894531 -21.03125 L 4.660156 -25.15625 L -42.675781 -33.925781 L -43.464844 -29.664062 L -7.828125 -23.0625 L -45.882812 -16.613281 L -46.695312 -12.21875 Z M 0.640625 -3.449219 "/></g></g></g><g fill="#593832" fill-opacity="1"><g transform="translate(69.653555, 158.304272)"><g/></g></g><g fill="#593832" fill-opacity="1"><g transform="translate(71.966726, 150.0047)"><g><path d="M 1.46875 -3.1875 L 3.335938 -7.246094 L -16.339844 -16.308594 L -11.910156 -25.929688 L -15.65625 -27.652344 L -20.085938 -18.035156 L -36.578125 -25.628906 L -31.660156 -36.3125 L -35.46875 -38.066406 L -42.257812 -23.324219 Z M 1.46875 -3.1875 "/></g></g></g><g fill="#593832" fill-opacity="1"><g transform="translate(78.598519, 134.128105)"><g><path d="M 0.816406 -1.191406 L 3.300781 -4.824219 L -5.578125 -13.894531 L 0.710938 -23.089844 L 12.421875 -18.167969 L 14.984375 -21.914062 L -30.671875 -40.796875 L -33.390625 -36.824219 Z M -8.539062 -16.753906 L -25.765625 -34.445312 L -3.027344 -24.8125 Z M -8.539062 -16.753906 "/></g></g></g><g fill="#593832" fill-opacity="1"><g transform="translate(91.982734, 114.323403)"><g><path d="M 10.960938 -10.636719 C 12.449219 -12.160156 13.257812 -13.675781 13.628906 -15.433594 L 10.429688 -18.554688 C 10.015625 -16.558594 9.351562 -15.1875 8.199219 -14.007812 C 4.738281 -10.464844 -2.328125 -11.789062 -11.972656 -21.207031 L -12.957031 -22.167969 C -22.453125 -31.441406 -24.09375 -38.621094 -20.636719 -42.160156 C -19.53125 -43.292969 -18.273438 -43.890625 -16.285156 -44.449219 L -19.632812 -47.71875 C -21.277344 -47.113281 -22.390625 -46.566406 -23.925781 -44.992188 C -28.875 -39.925781 -27.738281 -30.257812 -16.128906 -18.921875 L -15.144531 -17.960938 C -3.53125 -6.621094 5.867188 -5.417969 10.960938 -10.636719 Z M 10.960938 -10.636719 "/></g></g></g><g fill="#593832" fill-opacity="1"><g transform="translate(105.284868, 100.422442)"><g><path d="M 6.527344 -4.9375 L 10.089844 -7.636719 L -16.425781 -42.679688 L -10.558594 -47.117188 L -13.089844 -50.464844 L -28.335938 -38.929688 L -25.804688 -35.582031 L -19.992188 -39.980469 Z M 6.527344 -4.9375 "/></g></g></g><g fill="#593832" fill-opacity="1"><g transform="translate(118.953346, 89.661427)"><g><path d="M 9.414062 -4.574219 C 14.546875 -7.367188 16.53125 -13.21875 13.40625 -18.960938 L 13.375 -19.019531 C 10.910156 -23.550781 7.476562 -25.832031 -1.390625 -29.464844 C -8.730469 -32.59375 -10.902344 -33.996094 -12.378906 -36.714844 L -12.445312 -36.835938 C -14.1875 -40.039062 -13.222656 -43.304688 -10.265625 -44.914062 C -8.269531 -45.996094 -5.941406 -46.324219 -2.824219 -46.0625 L -5.160156 -50.351562 C -7.652344 -50.328125 -9.945312 -49.941406 -12.484375 -48.558594 C -17.4375 -45.867188 -19.292969 -39.921875 -16.335938 -34.484375 L -16.269531 -34.367188 C -14.035156 -30.257812 -11.117188 -28.636719 -1.773438 -24.558594 C 5.632812 -21.304688 7.902344 -19.722656 9.511719 -16.761719 L 9.546875 -16.703125 C 11.453125 -13.199219 10.394531 -9.960938 7.195312 -8.21875 C 5.078125 -7.070312 2.382812 -6.699219 -1.410156 -6.90625 L 0.890625 -2.675781 C 4.09375 -2.695312 6.816406 -3.160156 9.414062 -4.574219 Z M 9.414062 -4.574219 "/></g></g></g><g fill="#593832" fill-opacity="1"><g transform="translate(136.596344, 80.262803)"><g/></g></g><g fill="#593832" fill-opacity="1"><g transform="translate(144.331183, 76.652982)"><g><path d="M 6.4375 -18.382812 C 9.886719 -19.328125 11.648438 -22.519531 10.265625 -27.5625 L 10.011719 -28.492188 C 8.628906 -33.53125 5.484375 -35.378906 2.035156 -34.433594 C -1.347656 -33.503906 -3.175781 -30.292969 -1.792969 -25.253906 L -1.539062 -24.324219 C -0.15625 -19.28125 3.054688 -17.453125 6.4375 -18.382812 Z M 6.4375 -18.382812 "/></g></g></g><g fill="#593832" fill-opacity="1"><g transform="translate(163.102464, 71.666031)"><g/></g></g><g fill="#593832" fill-opacity="1"><g transform="translate(171.402256, 69.87954)"><g><path d="M 15.273438 -0.15625 C 17.402344 -0.234375 19.035156 -0.777344 20.511719 -1.796875 L 20.34375 -6.261719 C 18.667969 -5.097656 17.242188 -4.566406 15.59375 -4.503906 C 10.644531 -4.320312 6.433594 -10.148438 5.933594 -23.621094 L 5.882812 -24.992188 C 5.390625 -38.257812 9.144531 -44.589844 14.09375 -44.777344 C 15.671875 -44.835938 16.996094 -44.402344 18.824219 -43.4375 L 18.648438 -48.109375 C 17.039062 -48.808594 15.855469 -49.175781 13.65625 -49.09375 C 6.578125 -48.832031 0.742188 -41.042969 1.347656 -24.824219 L 1.398438 -23.449219 C 2 -7.230469 7.988281 0.117188 15.273438 -0.15625 Z M 15.273438 -0.15625 "/></g></g></g><g fill="#593832" fill-opacity="1"><g transform="translate(190.706248, 69.017422)"><g><path d="M 3.488281 0.378906 L 19.074219 2.078125 L 19.527344 -2.089844 L 8.386719 -3.304688 L 13.144531 -46.992188 L 8.703125 -47.476562 Z M 3.488281 0.378906 "/></g></g></g><g fill="#593832" fill-opacity="1"><g transform="translate(207.792347, 70.943542)"><g><path d="M 3.761719 0.835938 L 8.125 1.800781 L 18.546875 -45.195312 L 14.183594 -46.164062 Z M 3.761719 0.835938 "/></g></g></g><g fill="#593832" fill-opacity="1"><g transform="translate(217.097979, 72.511152)"><g><path d="M 14.265625 5.453125 C 16.277344 6.160156 17.992188 6.253906 19.742188 5.847656 L 21.222656 1.632812 C 19.238281 2.097656 17.714844 2.074219 16.15625 1.527344 C 11.484375 -0.117188 9.707031 -7.082031 14.179688 -19.800781 L 14.636719 -21.097656 C 19.039062 -33.617188 24.855469 -38.132812 29.527344 -36.492188 C 31.019531 -35.96875 32.089844 -35.078125 33.4375 -33.511719 L 34.988281 -37.925781 C 33.746094 -39.164062 32.78125 -39.941406 30.703125 -40.671875 C 24.019531 -43.019531 15.738281 -37.914062 10.355469 -22.601562 L 9.898438 -21.304688 C 4.511719 -5.996094 7.390625 3.035156 14.265625 5.453125 Z M 14.265625 5.453125 "/></g></g></g><g fill="#593832" fill-opacity="1"><g transform="translate(235.040173, 78.327031)"><g><path d="M 3.070312 1.699219 L 6.980469 3.863281 L 14.070312 -8.957031 L 20.574219 -13.609375 L 18.171875 10.054688 L 22.386719 12.382812 L 25.46875 -16.484375 L 44.785156 -30.238281 L 40.453125 -32.636719 L 17.933594 -15.9375 L 30.285156 -38.261719 L 26.371094 -40.425781 Z M 3.070312 1.699219 "/></g></g></g><g fill="#593832" fill-opacity="1"><g transform="translate(255.046816, 89.71225)"><g/></g></g><g fill="#593832" fill-opacity="1"><g transform="translate(262.229729, 94.46578)"><g><path d="M 2.582031 2.375 L 5.871094 5.402344 L 20.535156 -10.542969 L 28.332031 -3.375 L 31.125 -6.410156 L 23.328125 -13.582031 L 35.621094 -26.945312 L 44.277344 -18.984375 L 47.117188 -22.070312 L 35.171875 -33.058594 Z M 2.582031 2.375 "/></g></g></g><g fill="#593832" fill-opacity="1"><g transform="translate(275.303975, 105.631124)"><g><path d="M 8.136719 11.53125 C 12.300781 16.914062 21.695312 15.910156 34.261719 6.191406 L 35.457031 5.265625 C 48.023438 -4.453125 51.359375 -13.292969 47.195312 -18.679688 C 43.027344 -24.066406 33.59375 -23.113281 21.027344 -13.394531 L 19.828125 -12.46875 C 7.261719 -2.75 3.96875 6.144531 8.136719 11.53125 Z M 11.398438 9.007812 C 8.875 5.742188 11.890625 -0.589844 22.605469 -8.878906 L 23.804688 -9.804688 C 34.519531 -18.09375 41.40625 -19.417969 43.929688 -16.15625 C 46.453125 -12.890625 43.441406 -6.558594 32.722656 1.730469 L 31.527344 2.65625 C 20.808594 10.941406 13.925781 12.269531 11.398438 9.007812 Z M 11.398438 9.007812 "/></g></g></g><g fill="#593832" fill-opacity="1"><g transform="translate(290.14024, 124.258295)"><g><path d="M 1.589844 3.125 L 3.617188 7.109375 L 20.289062 -1.371094 L 21.351562 0.710938 C 21.660156 1.324219 21.972656 1.9375 22.378906 2.425781 L 9.136719 17.960938 L 11.414062 22.433594 L 25.539062 5.757812 C 29.496094 8.988281 34.914062 9.472656 40.796875 6.480469 L 40.980469 6.386719 C 45.148438 4.265625 47.773438 1.386719 48.796875 -1.910156 C 49.910156 -5.179688 49.453125 -8.960938 47.519531 -12.761719 L 44.496094 -18.707031 Z M 23.84375 -3.183594 L 42.84375 -12.851562 L 43.78125 -11.011719 C 46.402344 -5.863281 45.390625 -0.871094 38.894531 2.433594 L 38.710938 2.527344 C 32.457031 5.707031 27.492188 3.988281 24.875 -1.160156 Z M 23.84375 -3.183594 "/></g></g></g><g fill="#593832" fill-opacity="1"><g transform="translate(300.543655, 145.35545)"><g/></g></g><g fill="#593832" fill-opacity="1"><g transform="translate(303.813606, 153.326161)"><g><path d="M 0.800781 3.414062 L 1.824219 7.765625 L 22.914062 2.816406 L 25.332031 13.128906 L 29.351562 12.183594 L 26.929688 1.875 L 44.605469 -2.273438 L 47.292969 9.175781 L 51.375 8.21875 L 47.667969 -7.582031 Z M 0.800781 3.414062 "/></g></g></g><g fill="#593832" fill-opacity="1"><g transform="translate(308.354431, 169.91173)"><g><path d="M 0.25 14.039062 C 0.65625 20.5625 5.796875 24.582031 14.308594 24.054688 L 49.589844 21.871094 L 49.3125 17.40625 L 13.824219 19.609375 C 7.851562 19.976562 4.609375 17.699219 4.367188 13.785156 C 4.128906 9.941406 7.066406 7.277344 13.039062 6.910156 L 48.523438 4.710938 L 48.246094 0.246094 L 12.96875 2.433594 C 4.457031 2.960938 -0.152344 7.519531 0.25 14.039062 Z M 0.25 14.039062 "/></g></g></g><g fill="#593832" fill-opacity="1"><g transform="translate(310.301425, 193.414584)"><g><path d="M -0.46875 3.476562 L -1.035156 7.703125 L 35.90625 12.671875 L -2.851562 21.195312 L -3.410156 25.355469 L 44.296875 31.773438 L 44.875 27.480469 L 8.957031 22.648438 L 46.644531 14.328125 L 47.242188 9.894531 Z M -0.46875 3.476562 "/></g></g></g><g fill="#593832" fill-opacity="1"><g transform="translate(306.490402, 218.859962)"><g/></g></g><g fill="#593832" fill-opacity="1"><g transform="translate(304.581015, 227.263868)"><g><path d="M -1.308594 3.253906 L -2.976562 7.402344 L 17.125 15.480469 L 13.175781 25.308594 L 17.003906 26.847656 L 20.953125 17.019531 L 37.800781 23.792969 L 33.414062 34.703125 L 37.304688 36.265625 L 43.359375 21.207031 Z M -1.308594 3.253906 "/></g></g></g><g fill="#593832" fill-opacity="1"><g transform="translate(298.746695, 243.44847)"><g><path d="M -0.753906 1.230469 L -3.058594 4.984375 L 6.257812 13.601562 L 0.433594 23.097656 L -11.507812 18.757812 L -13.882812 22.625 L 32.648438 39.234375 L 35.167969 35.132812 Z M 9.355469 16.308594 L 27.4375 33.132812 L 4.25 24.632812 Z M 9.355469 16.308594 "/></g></g></g><g fill="#593832" fill-opacity="1"><g transform="translate(286.355442, 263.890063)"><g><path d="M -10.421875 11.164062 C -11.835938 12.761719 -12.566406 14.316406 -12.847656 16.085938 L -9.5 19.046875 C -9.1875 17.03125 -8.589844 15.628906 -7.496094 14.394531 C -4.214844 10.683594 2.910156 11.660156 13.003906 20.589844 L 14.035156 21.5 C 23.980469 30.292969 25.972656 37.382812 22.691406 41.089844 C 21.644531 42.277344 20.417969 42.9375 18.460938 43.59375 L 21.964844 46.691406 C 23.578125 46.007812 24.664062 45.402344 26.121094 43.753906 C 30.8125 38.449219 29.199219 28.851562 17.042969 18.101562 L 16.011719 17.191406 C 3.855469 6.4375 -5.59375 5.703125 -10.421875 11.164062 Z M -10.421875 11.164062 "/></g></g></g><g fill="#593832" fill-opacity="1"><g transform="translate(273.757085, 278.430988)"><g><path d="M -6.273438 5.253906 L -9.703125 8.125 L 18.515625 41.816406 L 12.871094 46.539062 L 15.566406 49.757812 L 30.222656 37.480469 L 27.53125 34.265625 L 21.941406 38.945312 Z M -6.273438 5.253906 "/></g></g></g><g fill="#593832" fill-opacity="1"><g transform="translate(260.635709, 289.85393)"><g><path d="M -9.175781 5.03125 C -14.164062 8.074219 -15.855469 14.019531 -12.453125 19.597656 L -12.417969 19.65625 C -9.734375 24.0625 -6.191406 26.167969 2.84375 29.359375 C 10.328125 32.125 12.566406 33.417969 14.179688 36.058594 L 14.25 36.175781 C 16.148438 39.289062 15.347656 42.597656 12.46875 44.351562 C 10.53125 45.535156 8.222656 45.976562 5.097656 45.867188 L 7.640625 50.035156 C 10.128906 49.886719 12.398438 49.386719 14.867188 47.882812 C 19.679688 44.949219 21.242188 38.921875 18.019531 33.636719 L 17.945312 33.519531 C 15.511719 29.527344 12.515625 28.050781 2.984375 24.441406 C -4.574219 21.558594 -6.917969 20.089844 -8.675781 17.210938 L -8.710938 17.152344 C -10.785156 13.746094 -9.890625 10.460938 -6.777344 8.566406 C -4.722656 7.3125 -2.050781 6.808594 1.746094 6.828125 L -0.757812 2.71875 C -3.953125 2.894531 -6.652344 3.492188 -9.175781 5.03125 Z M -9.175781 5.03125 "/></g></g></g><g fill="#593832" fill-opacity="1"><g transform="translate(243.483506, 300.112297)"><g/></g></g><g fill="#593832" fill-opacity="1"><g transform="translate(235.935148, 304.099753)"><g><path d="M -5.523438 18.675781 C -8.921875 19.792969 -10.523438 23.070312 -8.894531 28.035156 L -8.59375 28.949219 C -6.964844 33.917969 -3.730469 35.605469 -0.332031 34.492188 C 3 33.398438 4.667969 30.097656 3.039062 25.132812 L 2.738281 24.21875 C 1.105469 19.25 -2.191406 17.582031 -5.523438 18.675781 Z M -5.523438 18.675781 "/></g></g></g><g fill="#593832" fill-opacity="1"><g transform="translate(217.434292, 310.007634)"><g/></g></g><g fill="#593832" fill-opacity="1"><g transform="translate(208.258166, 311.967774)"><g/></g></g><g fill="#593832" fill-opacity="1"><g transform="translate(198.958763, 313.21845)"><g/></g></g><g fill="#593832" fill-opacity="1"><g transform="translate(189.590804, 313.752282)"><g/></g></g></svg>