<svg xmlns="http://www.w3.org/2000/svg" xmlns:xlink="http://www.w3.org/1999/xlink" width="500" zoomAndPan="magnify" viewBox="0 0 375 374.999991" height="500" preserveAspectRatio="xMidYMid meet" version="1.0"><defs><g/><clipPath id="7ef10cc59b"><path d="M 6.339844 7.050781 L 369 7.050781 L 369 330 L 6.339844 330 Z M 6.339844 7.050781 " clip-rule="nonzero"/></clipPath><clipPath id="6f19e55c89"><path d="M 212.058594 7.050781 C 216.03125 7.050781 220.027344 7.050781 223.996094 7.050781 C 255.617188 12.4375 275.378906 30.378906 284.378906 59.734375 C 337.097656 55.820312 377.847656 111.324219 352.070312 165.800781 C 359.835938 177.246094 366.316406 190.050781 368.660156 207.238281 C 368.660156 212.160156 368.660156 217.070312 368.660156 221.992188 C 361.683594 265.734375 331.671875 295.289062 282.402344 287.332031 C 269.722656 309.792969 247.167969 332.28125 212.066406 329.480469 C 193.921875 328.007812 181.296875 319.46875 170.246094 309.09375 C 158.609375 317.71875 146 324.484375 127.785156 324.558594 C 85.648438 324.6875 57.457031 291.460938 56.773438 245.886719 C 29.683594 235.222656 11.335938 215.320312 6.339844 181.265625 C 6.339844 176.34375 6.339844 171.410156 6.339844 166.511719 C 11.855469 132.765625 29.207031 111.566406 58.09375 102.582031 C 56.359375 45.65625 114.144531 10.085938 161.617188 35.164062 C 172.917969 22.761719 188.910156 9.234375 212.058594 7.050781 Z M 212.058594 7.050781 " clip-rule="nonzero"/></clipPath><clipPath id="86934dc2d4"><path d="M 187.265625 215.839844 L 187.882812 215.839844 L 187.882812 216.460938 L 187.265625 216.460938 Z M 187.265625 215.839844 " clip-rule="nonzero"/></clipPath><clipPath id="468138a930"><path d="M 187.875 216 C 187.273438 216.449219 187.726562 215.851562 187.726562 215.851562 " clip-rule="nonzero"/></clipPath></defs><g clip-path="url(#7ef10cc59b)"><g clip-path="url(#6f19e55c89)"><path fill="#e56e34" d="M 6.339844 7.050781 L 368.660156 7.050781 L 368.660156 329.71875 L 6.339844 329.71875 Z M 6.339844 7.050781 " fill-opacity="1" fill-rule="nonzero"/></g></g><g clip-path="url(#86934dc2d4)"><g clip-path="url(#468138a930)"><path fill="#2b2d29" d="M 184.273438 212.851562 L 190.875 212.851562 L 190.875 219.449219 L 184.273438 219.449219 Z M 184.273438 212.851562 " fill-opacity="1" fill-rule="nonzero"/></g></g><path fill="#2b2d29" d="M 219.050781 210.519531 C 218.953125 210.484375 218.882812 210.375 218.902344 210.273438 C 219.003906 210.3125 219.074219 210.421875 219.066406 210.535156 Z M 219.050781 210.519531 " fill-opacity="1" fill-rule="nonzero"/><path fill="#2b2d29" d="M 146.46875 198.757812 C 146.722656 180.667969 146.980469 162.582031 147.234375 144.492188 C 147.238281 144.316406 147.246094 144.125 147.355469 143.988281 C 147.503906 143.804688 147.769531 143.785156 148.007812 143.785156 C 176.234375 143.484375 204.464844 143.179688 232.691406 142.878906 C 232.953125 142.875 233.242188 142.882812 233.429688 143.0625 C 233.648438 143.269531 233.644531 143.609375 233.625 143.910156 C 232.386719 162.609375 231.144531 181.3125 229.90625 200.011719 C 229.886719 200.332031 229.847656 200.691406 229.605469 200.902344 C 229.378906 201.101562 229.042969 201.109375 228.742188 201.105469 C 201.675781 200.703125 174.609375 200.304688 147.546875 199.902344 C 147.25 199.898438 146.925781 199.882812 146.714844 199.679688 C 146.476562 199.453125 146.464844 199.085938 146.46875 198.757812 M 228.953125 200.308594 C 230.242188 181.453125 231.535156 162.597656 232.824219 143.738281 C 204.476562 144.039062 176.128906 144.339844 147.777344 144.640625 C 148.183594 147.277344 148.136719 149.964844 148.089844 152.632812 C 147.808594 168.101562 147.523438 183.574219 147.242188 199.042969 C 174.480469 199.464844 201.71875 199.886719 228.953125 200.308594 Z M 228.953125 200.308594 " fill-opacity="1" fill-rule="nonzero"/><path fill="#2b2d29" d="M 235.308594 148.847656 C 235.855469 148.347656 236.558594 148.007812 237.296875 147.964844 C 238.035156 147.921875 238.796875 148.191406 239.292969 148.738281 C 239.832031 149.332031 240.007812 150.210938 239.824219 150.992188 C 239.640625 151.769531 239.121094 152.449219 238.464844 152.910156 C 237.4375 153.632812 235.90625 153.777344 234.976562 152.933594 C 234.40625 152.417969 234.148438 151.601562 234.238281 150.835938 C 234.328125 150.070312 234.742188 149.363281 235.308594 148.847656 M 238.90625 149.566406 C 238.660156 149.011719 238.007812 148.714844 237.402344 148.769531 C 236.800781 148.820312 236.253906 149.171875 235.839844 149.609375 C 235.472656 150 235.183594 150.484375 235.140625 151.015625 C 235.125 151.230469 235.148438 151.445312 235.171875 151.660156 C 235.191406 151.828125 235.210938 152 235.300781 152.140625 C 235.429688 152.339844 235.660156 152.433594 235.878906 152.519531 C 236.136719 152.617188 236.402344 152.71875 236.679688 152.707031 C 236.777344 152.703125 236.878906 152.683594 236.976562 152.660156 C 237.949219 152.417969 238.757812 151.589844 238.972656 150.609375 C 239.046875 150.261719 239.050781 149.890625 238.90625 149.566406 Z M 238.90625 149.566406 " fill-opacity="1" fill-rule="nonzero"/><path fill="#2b2d29" d="M 225.855469 217.417969 C 224.328125 214.152344 222.796875 210.886719 221.265625 207.621094 C 202.285156 208.074219 183.304688 208.53125 164.320312 208.984375 C 163.027344 209.015625 161.554688 209.128906 160.746094 210.140625 C 158.273438 213.246094 155.804688 216.347656 153.332031 219.449219 C 152.5625 220.414062 151.683594 221.445312 150.464844 221.644531 C 149.25 221.84375 147.839844 220.578125 148.40625 219.484375 C 150.21875 215.984375 152.03125 212.484375 153.84375 208.984375 C 151.28125 209.589844 148.660156 210.199219 146.042969 209.90625 C 143.425781 209.617188 140.769531 208.246094 139.664062 205.859375 C 138.871094 204.144531 138.964844 202.167969 139.074219 200.28125 C 140.136719 182.007812 141.203125 163.734375 142.265625 145.460938 C 142.414062 142.910156 142.71875 140.042969 144.71875 138.453125 C 146.289062 137.203125 148.460938 137.125 150.46875 137.101562 C 164.070312 136.941406 177.671875 136.785156 191.273438 136.628906 C 187.863281 132.703125 184.449219 128.78125 181.035156 124.859375 C 178.828125 122.316406 176.503906 119.695312 173.398438 118.402344 C 172.5625 118.054688 173.164062 116.601562 174.066406 116.566406 C 174.96875 116.527344 175.6875 117.273438 176.277344 117.957031 C 181.523438 124.046875 186.769531 130.136719 192.011719 136.230469 C 196.636719 131.652344 201.257812 127.078125 205.878906 122.503906 C 207.550781 120.851562 209.289062 119.085938 209.914062 116.820312 C 210.300781 115.414062 212.4375 114.921875 213.402344 116.015625 C 214.363281 117.109375 213.605469 119.167969 212.160156 119.375 C 209.683594 119.726562 207.742188 121.601562 205.984375 123.382812 C 201.65625 127.765625 197.324219 132.148438 192.996094 136.535156 C 206.722656 136.359375 220.445312 136.1875 234.167969 136.015625 C 236.929688 135.980469 240.113281 136.140625 241.789062 138.335938 C 243.027344 139.953125 243.011719 142.175781 242.9375 144.214844 C 242.289062 162.566406 241.640625 180.914062 240.992188 199.265625 C 240.914062 201.492188 240.769531 203.894531 239.355469 205.613281 C 237.46875 207.914062 234.046875 208.136719 231.09375 207.773438 C 228.140625 207.410156 225.0625 206.660156 222.261719 207.667969 C 223.816406 211.039062 225.371094 214.410156 226.925781 217.78125 C 226.101562 218.578125 224.722656 218.519531 223.722656 217.957031 C 222.726562 217.390625 222.019531 216.433594 221.347656 215.503906 C 219.574219 213.058594 217.796875 210.613281 216.023438 208.164062 C 218.148438 210.527344 220.269531 212.890625 222.390625 215.253906 C 223.332031 216.300781 224.449219 217.433594 225.855469 217.417969 M 240.988281 138.644531 C 239.570312 136.9375 237.03125 136.828125 234.808594 136.855469 C 206.640625 137.230469 178.472656 137.605469 150.300781 137.980469 C 148.222656 138.007812 145.882812 138.148438 144.503906 139.707031 C 143.394531 140.957031 143.246094 142.761719 143.152344 144.429688 C 142.074219 163.410156 141 182.390625 139.921875 201.375 C 139.785156 203.832031 139.917969 206.816406 142.0625 208.019531 C 143.085938 208.59375 144.324219 208.582031 145.496094 208.554688 C 171.078125 207.992188 196.65625 207.429688 222.238281 206.867188 C 225.847656 206.785156 229.460938 206.707031 233.070312 206.628906 C 234.710938 206.589844 236.464844 206.519531 237.800781 205.5625 C 239.835938 204.105469 240.109375 201.234375 240.195312 198.730469 C 240.824219 180.4375 241.457031 162.144531 242.085938 143.855469 C 242.148438 142.039062 242.152344 140.042969 240.988281 138.644531 M 148.898438 220.539062 C 149.703125 220.453125 150.511719 220.367188 151.316406 220.28125 C 151.570312 220.253906 151.757812 220.039062 151.921875 219.839844 C 154.816406 216.277344 157.710938 212.714844 160.605469 209.152344 C 158.941406 209.160156 157.277344 209.171875 155.613281 209.183594 C 155.398438 209.183594 155.171875 209.1875 154.988281 209.300781 C 154.808594 209.410156 154.699219 209.605469 154.601562 209.792969 C 152.699219 213.375 150.800781 216.957031 148.898438 220.539062 M 212.585938 116.214844 C 212.226562 115.996094 211.765625 116.117188 211.378906 116.265625 C 211.109375 116.371094 210.824219 116.503906 210.691406 116.757812 C 210.527344 117.058594 210.367188 117.363281 210.296875 117.695312 C 210.230469 118.027344 210.265625 118.398438 210.476562 118.664062 C 210.773438 119.042969 211.355469 119.113281 211.792969 118.917969 C 212.234375 118.71875 212.546875 118.3125 212.761719 117.882812 C 212.898438 117.609375 213.003906 117.308594 212.996094 117 C 212.988281 116.691406 212.847656 116.375 212.585938 116.214844 M 174.253906 118.21875 C 174.457031 118.359375 174.761719 118.328125 174.925781 118.144531 C 175.027344 118.027344 175.078125 117.855469 175.214844 117.78125 C 175.457031 117.648438 175.453125 117.257812 175.246094 117.078125 C 175.035156 116.894531 174.710938 116.90625 174.464844 117.03125 C 174.25 117.144531 174.074219 117.339844 174.023438 117.578125 C 173.96875 117.8125 174.054688 118.082031 174.253906 118.21875 Z M 174.253906 118.21875 " fill-opacity="1" fill-rule="nonzero"/><path fill="#2b2d29" d="M 233.710938 160.746094 C 233.4375 160.046875 233.5625 159.230469 233.933594 158.578125 C 234.429688 157.710938 235.359375 157.105469 236.351562 157 C 237.214844 156.914062 238.140625 157.222656 238.664062 157.910156 C 239.097656 158.484375 239.210938 159.269531 239.019531 159.960938 C 238.828125 160.652344 238.355469 161.25 237.757812 161.65625 C 237.101562 162.101562 236.273438 162.316406 235.496094 162.167969 C 234.714844 162.023438 234 161.484375 233.710938 160.746094 M 237.988281 160.078125 C 238.089844 159.902344 238.175781 159.710938 238.210938 159.507812 C 238.332031 158.8125 237.769531 158.113281 237.082031 157.941406 C 236.394531 157.773438 235.652344 158.054688 235.128906 158.53125 C 234.75 158.875 234.449219 159.351562 234.457031 159.863281 C 234.464844 160.660156 235.257812 161.3125 236.058594 161.308594 C 236.855469 161.308594 237.585938 160.769531 237.988281 160.078125 Z M 237.988281 160.078125 " fill-opacity="1" fill-rule="nonzero"/><path fill="#2b2d29" d="M 238.765625 166.214844 C 238.835938 166.402344 238.699219 166.617188 238.515625 166.703125 C 238.332031 166.785156 238.121094 166.773438 237.921875 166.761719 C 236.859375 166.691406 235.792969 166.625 234.730469 166.554688 C 234.5625 166.542969 234.394531 166.53125 234.246094 166.457031 C 234.097656 166.382812 233.980469 166.226562 234 166.0625 C 234.035156 165.757812 234.445312 165.691406 234.75 165.707031 C 235.894531 165.769531 237.039062 165.84375 238.183594 165.933594 C 238.410156 165.949219 238.683594 166 238.765625 166.214844 Z M 238.765625 166.214844 " fill-opacity="1" fill-rule="nonzero"/><path fill="#2b2d29" d="M 234.105469 184.113281 C 234.089844 182.941406 234.074219 181.769531 234.058594 180.59375 C 234.058594 180.4375 234.054688 180.277344 234.113281 180.136719 C 234.171875 179.992188 234.304688 179.863281 234.457031 179.863281 C 234.710938 179.859375 234.867188 180.15625 235.113281 180.21875 C 235.214844 180.242188 235.316406 180.226562 235.417969 180.210938 C 236.027344 180.105469 236.632812 180.003906 237.242188 179.902344 C 237.496094 179.859375 237.796875 179.832031 237.980469 180.015625 C 238.136719 180.171875 238.136719 180.417969 238.128906 180.640625 C 238.089844 181.757812 238.050781 182.875 238.007812 183.992188 C 238 184.269531 237.972656 184.582031 237.757812 184.757812 C 237.597656 184.886719 237.378906 184.902344 237.171875 184.914062 C 236.429688 184.953125 235.683594 184.992188 234.9375 185.03125 C 234.757812 185.039062 234.566406 185.046875 234.414062 184.953125 C 234.144531 184.796875 234.109375 184.425781 234.105469 184.113281 M 234.910156 181.082031 C 234.882812 181.128906 234.882812 181.183594 234.882812 181.238281 C 234.867188 182.175781 234.90625 183.117188 234.996094 184.050781 C 234.996094 184.078125 235 184.105469 235.015625 184.125 C 235.046875 184.183594 235.128906 184.183594 235.195312 184.175781 C 235.746094 184.121094 236.300781 184.0625 236.851562 184.007812 C 237.097656 183.980469 237.164062 183.660156 237.164062 183.414062 C 237.167969 182.828125 237.171875 182.238281 237.179688 181.652344 C 237.179688 181.347656 237.195312 181.007812 237.410156 180.792969 C 237.269531 180.679688 237.0625 180.75 236.890625 180.808594 C 236.367188 180.996094 235.804688 181.058594 235.257812 180.996094 C 235.132812 180.980469 234.972656 180.972656 234.910156 181.082031 Z M 234.910156 181.082031 " fill-opacity="1" fill-rule="nonzero"/><path fill="#2b2d29" d="M 235.035156 187.988281 C 235.628906 187.921875 236.226562 187.851562 236.820312 187.785156 C 237.121094 187.75 237.496094 187.75 237.644531 188.015625 C 237.730469 188.164062 237.707031 188.351562 237.675781 188.523438 C 237.507812 189.578125 237.335938 190.632812 237.164062 191.6875 C 237.121094 191.960938 237.058594 192.261719 236.835938 192.421875 C 236.703125 192.515625 236.539062 192.542969 236.378906 192.570312 C 235.695312 192.683594 235.011719 192.796875 234.324219 192.90625 C 234.191406 192.929688 234.050781 192.949219 233.929688 192.898438 C 233.636719 192.773438 233.636719 192.367188 233.6875 192.050781 C 233.867188 190.90625 234.050781 189.757812 234.296875 188.625 C 234.332031 188.464844 234.371094 188.300781 234.480469 188.1875 C 234.621094 188.042969 234.835938 188.011719 235.035156 187.988281 M 235.5 188.84375 C 235.414062 188.828125 235.328125 188.796875 235.238281 188.800781 C 235.148438 188.804688 235.050781 188.863281 235.046875 188.953125 C 235.011719 189.984375 234.832031 191.011719 234.507812 191.992188 C 234.605469 192.101562 234.78125 192.023438 234.914062 191.953125 C 235.269531 191.765625 235.695312 191.714844 236.085938 191.808594 C 236.265625 191.851562 236.375 191.617188 236.410156 191.433594 C 236.503906 190.921875 236.597656 190.410156 236.695312 189.898438 C 236.746094 189.625 236.789062 189.316406 236.621094 189.09375 C 236.558594 189.007812 236.683594 188.910156 236.785156 188.875 C 236.886719 188.839844 237.007812 188.734375 236.9375 188.652344 C 236.488281 188.449219 235.988281 188.929688 235.5 188.84375 Z M 235.5 188.84375 " fill-opacity="1" fill-rule="nonzero"/><path fill="#2b2d29" d="M 233.578125 174.34375 C 233.441406 174.167969 233.546875 173.890625 233.734375 173.769531 C 233.921875 173.652344 234.160156 173.644531 234.382812 173.648438 C 235.316406 173.664062 236.25 173.753906 237.183594 173.742188 C 237.503906 173.734375 237.925781 173.804688 237.964844 174.121094 C 237.984375 174.296875 237.847656 174.460938 237.683594 174.535156 C 237.523438 174.605469 237.335938 174.605469 237.160156 174.605469 C 236.125 174.59375 235.089844 174.5625 234.054688 174.511719 C 233.878906 174.503906 233.683594 174.484375 233.578125 174.34375 Z M 233.578125 174.34375 " fill-opacity="1" fill-rule="nonzero"/><path fill="#2b2d29" d="M 237.660156 170.460938 C 236.730469 170.296875 235.785156 170.226562 234.839844 170.25 C 234.632812 170.253906 234.476562 170.015625 234.515625 169.8125 C 234.558594 169.605469 234.746094 169.457031 234.945312 169.394531 C 235.144531 169.335938 235.355469 169.347656 235.5625 169.363281 C 236.121094 169.398438 236.675781 169.433594 237.222656 169.523438 C 237.496094 169.566406 237.792969 169.640625 237.941406 169.875 C 238.089844 170.105469 237.929688 170.507812 237.660156 170.460938 Z M 237.660156 170.460938 " fill-opacity="1" fill-rule="nonzero"/><path fill="#2b2d29" d="M 161.464844 146.601562 C 161.710938 146.628906 161.851562 146.929688 161.800781 147.171875 C 161.753906 147.417969 161.574219 147.609375 161.402344 147.792969 C 158.082031 151.332031 154.757812 154.871094 151.433594 158.410156 C 151.246094 158.609375 150.984375 158.828125 150.730469 158.726562 C 150.523438 158.644531 150.449219 158.375 150.507812 158.160156 C 150.566406 157.945312 150.722656 157.773438 150.875 157.613281 C 154.230469 154.039062 157.585938 150.46875 160.941406 146.894531 C 161.082031 146.742188 161.257812 146.578125 161.464844 146.601562 Z M 161.464844 146.601562 " fill-opacity="1" fill-rule="nonzero"/><path fill="#2b2d29" d="M 152.433594 160.136719 C 152.109375 159.921875 152.355469 159.421875 152.617188 159.132812 C 156.167969 155.242188 159.714844 151.347656 163.265625 147.453125 C 163.511719 147.183594 163.929688 146.898438 164.199219 147.148438 C 164.46875 147.394531 164.222656 147.832031 163.976562 148.101562 C 160.402344 152.007812 156.832031 155.914062 153.257812 159.824219 C 153.039062 160.0625 152.699219 160.316406 152.433594 160.136719 Z M 152.433594 160.136719 " fill-opacity="1" fill-rule="nonzero"/><path fill="#2b2d29" d="M 236.574219 159.875 C 236.445312 159.828125 236.46875 159.640625 236.515625 159.511719 C 236.644531 159.539062 236.628906 159.730469 236.582031 159.855469 Z M 236.574219 159.875 " fill-opacity="1" fill-rule="nonzero"/><path fill="#2b2d29" d="M 238.679688 149.773438 C 238.699219 149.808594 238.714844 149.847656 238.707031 149.886719 C 238.699219 149.917969 238.675781 149.945312 238.644531 149.953125 C 238.328125 149.628906 237.964844 149.34375 237.570312 149.121094 C 238.019531 149.125 238.460938 149.382812 238.679688 149.773438 Z M 238.679688 149.773438 " fill-opacity="1" fill-rule="nonzero"/><path fill="#2b2d29" d="M 236.324219 189.734375 C 236.246094 189.6875 236.289062 189.546875 236.378906 189.546875 C 236.449219 189.601562 236.40625 189.742188 236.316406 189.742188 Z M 236.324219 189.734375 " fill-opacity="1" fill-rule="nonzero"/><path fill="#2b2d29" d="M 151.308594 153.929688 C 151.179688 153.683594 151.371094 153.398438 151.558594 153.191406 C 152.875 151.695312 154.191406 150.199219 155.511719 148.707031 C 155.636719 148.5625 155.769531 148.414062 155.941406 148.335938 C 156.117188 148.253906 156.34375 148.257812 156.476562 148.398438 C 156.714844 148.644531 156.484375 149.046875 156.257812 149.304688 C 155.363281 150.316406 154.46875 151.332031 153.574219 152.347656 C 153.183594 152.792969 152.792969 153.234375 152.402344 153.675781 C 152.257812 153.84375 152.101562 154.015625 151.894531 154.09375 C 151.6875 154.175781 151.410156 154.125 151.308594 153.929688 Z M 151.308594 153.929688 " fill-opacity="1" fill-rule="nonzero"/><g fill="#2c2c2c" fill-opacity="1"><g transform="translate(126.938436, 256.894306)"><g><path d="M 2.882812 1.898438 L 4.453125 2.9375 L 14.652344 -12.535156 L 17.242188 -10.828125 L 18.214844 -12.304688 L 11.484375 -16.738281 L 10.511719 -15.261719 L 13.078125 -13.570312 Z M 2.882812 1.898438 "/></g></g></g><g fill="#2c2c2c" fill-opacity="1"><g transform="translate(135.127739, 262.332472)"><g><path d="M 1.3125 0.679688 L 2.984375 1.546875 L 7.28125 -6.742188 L 12.070312 -4.261719 L 7.773438 4.027344 L 9.449219 4.894531 L 18.785156 -13.125 L 17.113281 -13.992188 L 12.871094 -5.804688 L 8.082031 -8.285156 L 12.324219 -16.472656 L 10.652344 -17.339844 Z M 1.3125 0.679688 "/></g></g></g><g fill="#2c2c2c" fill-opacity="1"><g transform="translate(146.86939, 268.273872)"><g><path d="M 1.378906 0.535156 L 8.109375 3.148438 L 8.75 1.5 L 3.777344 -0.433594 L 6.515625 -7.488281 L 10.945312 -5.765625 L 11.585938 -7.414062 L 7.152344 -9.136719 L 9.839844 -16.054688 L 14.730469 -14.15625 L 15.371094 -15.804688 L 8.722656 -18.386719 Z M 1.378906 0.535156 "/></g></g></g><g fill="#2c2c2c" fill-opacity="1"><g transform="translate(156.353197, 271.838777)"><g/></g></g><g fill="#2c2c2c" fill-opacity="1"><g transform="translate(161.460481, 273.456011)"><g><path d="M 1.4375 0.34375 L 7.871094 1.875 L 8.277344 0.15625 L 3.683594 -0.941406 L 7.976562 -18.964844 L 6.144531 -19.402344 Z M 1.4375 0.34375 "/></g></g></g><g fill="#2c2c2c" fill-opacity="1"><g transform="translate(170.525462, 275.655809)"><g><path d="M 0.601562 0.0820312 L 2.441406 0.328125 L 4.175781 -4.734375 L 8.828125 -4.113281 L 9.195312 1.230469 L 11.09375 1.488281 L 9.546875 -19.285156 L 7.535156 -19.554688 Z M 4.6875 -6.394531 L 8.085938 -16.234375 L 8.769531 -5.847656 Z M 4.6875 -6.394531 "/></g></g></g><g fill="#2c2c2c" fill-opacity="1"><g transform="translate(183.2586, 277.246968)"><g><path d="M 4.402344 0.320312 C 6.863281 0.382812 8.824219 -1.335938 8.894531 -4.089844 L 8.898438 -4.117188 C 8.953125 -6.292969 8.183594 -7.847656 5.714844 -11.046875 C 3.695312 -13.738281 3.199219 -14.707031 3.234375 -16.011719 L 3.234375 -16.070312 C 3.277344 -17.605469 4.316406 -18.59375 5.738281 -18.558594 C 6.695312 -18.53125 7.613281 -18.160156 8.695312 -17.40625 L 8.75 -19.464844 C 7.832031 -19.980469 6.914062 -20.324219 5.695312 -20.355469 C 3.320312 -20.417969 1.386719 -18.644531 1.320312 -16.035156 L 1.320312 -15.976562 C 1.265625 -14.003906 1.988281 -12.796875 4.539062 -9.335938 C 6.554688 -6.585938 7.046875 -5.527344 7.011719 -4.109375 L 7.011719 -4.078125 C 6.964844 -2.398438 5.898438 -1.441406 4.359375 -1.480469 C 3.347656 -1.507812 2.285156 -1.941406 0.945312 -2.816406 L 0.890625 -0.789062 C 2.0625 -0.121094 3.152344 0.285156 4.402344 0.320312 Z M 4.402344 0.320312 "/></g></g></g><g fill="#2c2c2c" fill-opacity="1"><g transform="translate(193.740823, 277.463503)"><g><path d="M 3.441406 -0.226562 L 5.324219 -0.351562 L 4.105469 -18.839844 L 7.199219 -19.042969 L 7.085938 -20.808594 L -0.957031 -20.277344 L -0.84375 -18.511719 L 2.222656 -18.714844 Z M 3.441406 -0.226562 "/></g></g></g><g fill="#2c2c2c" fill-opacity="1"><g transform="translate(203.177461, 276.750383)"><g/></g></g><g fill="#2c2c2c" fill-opacity="1"><g transform="translate(208.676573, 276.12835)"><g><path d="M 5.859375 -1.023438 C 8.664062 -1.640625 9.972656 -5.402344 8.535156 -11.941406 L 8.398438 -12.566406 C 6.960938 -19.105469 4.191406 -21.972656 1.386719 -21.355469 C -1.414062 -20.738281 -2.753906 -16.96875 -1.316406 -10.429688 L -1.175781 -9.804688 C 0.261719 -3.265625 3.058594 -0.40625 5.859375 -1.023438 Z M 5.488281 -2.722656 C 3.789062 -2.347656 1.917969 -4.636719 0.691406 -10.214844 L 0.554688 -10.839844 C -0.671875 -16.417969 0.0625 -19.28125 1.761719 -19.65625 C 3.460938 -20.027344 5.332031 -17.738281 6.558594 -12.160156 L 6.695312 -11.539062 C 7.921875 -5.957031 7.1875 -3.09375 5.488281 -2.722656 Z M 5.488281 -2.722656 "/></g></g></g><g fill="#2c2c2c" fill-opacity="1"><g transform="translate(221.23554, 273.23235)"><g><path d="M 1.402344 -0.464844 L 3.191406 -1.058594 L 0.316406 -9.726562 L 4.550781 -11.132812 L 4.003906 -12.785156 L -0.234375 -11.378906 L -2.644531 -18.644531 L 2.0625 -20.207031 L 1.503906 -21.882812 L -4.992188 -19.730469 Z M 1.402344 -0.464844 "/></g></g></g><g fill="#2c2c2c" fill-opacity="1"><g transform="translate(230.27396, 270.134438)"><g/></g></g><g fill="#2c2c2c" fill-opacity="1"><g transform="translate(235.436092, 268.143091)"><g><path d="M 5.386719 -2.453125 C 7.84375 -3.707031 8.535156 -6.371094 6.902344 -9.574219 L 0.128906 -22.847656 L -1.546875 -21.992188 L 5.261719 -8.640625 C 6.40625 -6.390625 6.070312 -4.753906 4.597656 -4.003906 C 3.152344 -3.265625 1.628906 -3.953125 0.484375 -6.203125 L -6.328125 -19.554688 L -8.007812 -18.699219 L -1.234375 -5.421875 C 0.398438 -2.21875 2.933594 -1.203125 5.386719 -2.453125 Z M 5.386719 -2.453125 "/></g></g></g><g fill="#2c2c2c" fill-opacity="1"><g transform="translate(246.868662, 262.182864)"><g><path d="M 3.800781 -2.242188 C 5.863281 -3.589844 6.496094 -6.117188 4.992188 -8.421875 L 4.976562 -8.445312 C 3.785156 -10.265625 2.265625 -11.109375 -1.582031 -12.335938 C -4.773438 -13.402344 -5.734375 -13.917969 -6.449219 -15.007812 L -6.480469 -15.058594 C -7.320312 -16.34375 -7.027344 -17.75 -5.835938 -18.527344 C -5.035156 -19.050781 -4.070312 -19.265625 -2.75 -19.261719 L -3.875 -20.984375 C -4.921875 -20.890625 -5.875 -20.648438 -6.894531 -19.984375 C -8.882812 -18.683594 -9.460938 -16.121094 -8.035156 -13.9375 L -8.003906 -13.890625 C -6.925781 -12.238281 -5.644531 -11.65625 -1.578125 -10.261719 C 1.644531 -9.144531 2.652344 -8.554688 3.429688 -7.367188 L 3.445312 -7.34375 C 4.363281 -5.933594 4.03125 -4.539062 2.742188 -3.699219 C 1.894531 -3.144531 0.773438 -2.894531 -0.828125 -2.855469 L 0.285156 -1.15625 C 1.628906 -1.273438 2.757812 -1.558594 3.800781 -2.242188 Z M 3.800781 -2.242188 "/></g></g></g><g fill="#2c2c2c" fill-opacity="1"><g transform="translate(103.742848, 145.147033)"><g><path d="M 0.472656 -1.402344 L 1.226562 -3.625 C 2.441406 -7.226562 1.390625 -10.273438 -1.824219 -11.359375 L -1.90625 -11.386719 C -4.515625 -12.269531 -6.410156 -11.285156 -7.691406 -9.390625 C -7.675781 -11.34375 -8.417969 -13.308594 -11.140625 -14.230469 L -11.222656 -14.257812 C -12.59375 -14.722656 -13.90625 -14.644531 -14.972656 -14.117188 C -16.292969 -13.460938 -17.316406 -12.152344 -17.894531 -10.449219 L -18.757812 -7.894531 Z M -11.566406 -12.414062 C -9.261719 -11.636719 -8.378906 -9.808594 -9.214844 -7.335938 L -9.425781 -6.703125 L -16.515625 -9.097656 L -16.207031 -10.003906 C -15.484375 -12.148438 -13.765625 -13.15625 -11.621094 -12.433594 Z M -2.59375 -9.628906 L -2.511719 -9.601562 C -0.203125 -8.820312 0.46875 -6.820312 -0.386719 -4.292969 L -0.582031 -3.714844 L -7.832031 -6.164062 L -7.59375 -6.878906 C -6.738281 -9.40625 -4.929688 -10.417969 -2.59375 -9.628906 Z M -2.59375 -9.628906 "/></g></g></g><g fill="#2c2c2c" fill-opacity="1"><g transform="translate(106.926974, 135.67848)"><g><path d="M 0.613281 -1.34375 L 3.609375 -7.914062 L 2 -8.648438 L -0.214844 -3.792969 L -7.101562 -6.933594 L -5.128906 -11.261719 L -6.734375 -11.992188 L -8.710938 -7.667969 L -15.460938 -10.746094 L -13.285156 -15.523438 L -14.894531 -16.253906 L -17.855469 -9.765625 Z M 0.613281 -1.34375 "/></g></g></g><g fill="#2c2c2c" fill-opacity="1"><g transform="translate(110.428689, 127.881171)"><g><path d="M 2.378906 -3.714844 C 3.609375 -5.851562 3.03125 -8.394531 0.644531 -9.769531 L 0.621094 -9.785156 C -1.261719 -10.871094 -3 -10.933594 -6.988281 -10.289062 C -10.316406 -9.796875 -11.40625 -9.824219 -12.535156 -10.476562 L -12.585938 -10.503906 C -13.917969 -11.269531 -14.289062 -12.65625 -13.582031 -13.886719 C -13.101562 -14.71875 -12.335938 -15.347656 -11.160156 -15.941406 L -12.941406 -16.96875 C -13.832031 -16.410156 -14.574219 -15.765625 -15.179688 -14.710938 C -16.367188 -12.652344 -15.726562 -10.105469 -13.464844 -8.800781 L -13.417969 -8.773438 C -11.707031 -7.789062 -10.300781 -7.847656 -6.046875 -8.4375 C -2.667969 -8.902344 -1.5 -8.832031 -0.269531 -8.121094 L -0.246094 -8.105469 C 1.210938 -7.265625 1.542969 -5.871094 0.777344 -4.539062 C 0.269531 -3.660156 -0.617188 -2.933594 -2.027344 -2.171875 L -0.269531 -1.160156 C 0.878906 -1.871094 1.753906 -2.636719 2.378906 -3.714844 Z M 2.378906 -3.714844 "/></g></g></g><g fill="#2c2c2c" fill-opacity="1"><g transform="translate(114.766863, 120.319691)"><g><path d="M 1.992188 -2.816406 L 3.078125 -4.355469 L -12.054688 -15.046875 L -10.261719 -17.582031 L -11.707031 -18.601562 L -16.359375 -12.019531 L -14.914062 -11 L -13.140625 -13.507812 Z M 1.992188 -2.816406 "/></g></g></g><g fill="#2c2c2c" fill-opacity="1"><g transform="translate(119.515966, 113.677682)"><g/></g></g><g fill="#2c2c2c" fill-opacity="1"><g transform="translate(121.980287, 110.465983)"><g><path d="M 3.167969 -3.074219 C 4.855469 -4.867188 4.875 -7.472656 2.867188 -9.359375 L 2.847656 -9.378906 C 1.261719 -10.871094 -0.414062 -11.332031 -4.441406 -11.617188 C -7.792969 -11.902344 -8.847656 -12.175781 -9.800781 -13.070312 L -9.84375 -13.109375 C -10.960938 -14.164062 -11.007812 -15.597656 -10.035156 -16.632812 C -9.378906 -17.328125 -8.488281 -17.765625 -7.207031 -18.074219 L -8.707031 -19.484375 C -9.703125 -19.144531 -10.570312 -18.6875 -11.402344 -17.800781 C -13.03125 -16.066406 -12.992188 -13.441406 -11.089844 -11.65625 L -11.046875 -11.617188 C -9.609375 -10.265625 -8.226562 -10 -3.949219 -9.601562 C -0.554688 -9.273438 0.5625 -8.941406 1.597656 -7.96875 L 1.621094 -7.949219 C 2.84375 -6.796875 2.847656 -5.359375 1.796875 -4.242188 C 1.101562 -3.5 0.0703125 -2.996094 -1.476562 -2.578125 L 0.00390625 -1.191406 C 1.28125 -1.621094 2.3125 -2.164062 3.167969 -3.074219 Z M 3.167969 -3.074219 "/></g></g></g><g fill="#2c2c2c" fill-opacity="1"><g transform="translate(127.760334, 104.138275)"><g><path d="M 1.125 -0.960938 L 2.554688 -2.1875 L -3.515625 -9.28125 L 0.582031 -12.785156 L 6.652344 -5.695312 L 8.085938 -6.917969 L -5.113281 -22.339844 L -6.542969 -21.113281 L -0.546875 -14.109375 L -4.644531 -10.601562 L -10.640625 -17.609375 L -12.074219 -16.382812 Z M 1.125 -0.960938 "/></g></g></g><g fill="#2c2c2c" fill-opacity="1"><g transform="translate(136.064853, 96.949199)"><g><path d="M 5.089844 -3.078125 C 7.480469 -4.671875 7.335938 -8.652344 3.621094 -14.226562 L 3.269531 -14.757812 C -0.445312 -20.328125 -4.066406 -21.996094 -6.453125 -20.402344 C -8.84375 -18.8125 -8.722656 -14.816406 -5.007812 -9.242188 L -4.65625 -8.710938 C -0.941406 -3.136719 2.703125 -1.488281 5.089844 -3.078125 Z M 4.125 -4.527344 C 2.679688 -3.5625 0.105469 -5.019531 -3.0625 -9.769531 L -3.414062 -10.300781 C -6.582031 -15.054688 -6.9375 -17.992188 -5.488281 -18.957031 C -4.042969 -19.921875 -1.46875 -18.464844 1.699219 -13.710938 L 2.054688 -13.179688 C 5.222656 -8.425781 5.574219 -5.492188 4.125 -4.527344 Z M 4.125 -4.527344 "/></g></g></g><g fill="#2c2c2c" fill-opacity="1"><g transform="translate(144.647, 90.856698)"><g><path d="M 3.722656 -1.625 L 5.398438 -2.417969 L 1.097656 -18.277344 L 10.566406 -4.851562 L 12.269531 -5.65625 L 6.636719 -25.566406 L 4.90625 -24.75 L 9.648438 -8.972656 L 0.105469 -22.488281 L -1.46875 -21.746094 L 2.855469 -5.769531 L -6.269531 -19.484375 L -8.050781 -18.644531 Z M 3.722656 -1.625 "/></g></g></g><g fill="#2c2c2c" fill-opacity="1"><g transform="translate(159.692476, 84.09295)"><g/></g></g><g fill="#2c2c2c" fill-opacity="1"><g transform="translate(163.711335, 82.702163)"><g><path d="M 1.5625 -0.449219 L 3.371094 -0.96875 L -2.230469 -20.476562 L -4.042969 -19.957031 Z M 1.5625 -0.449219 "/></g></g></g><g fill="#2c2c2c" fill-opacity="1"><g transform="translate(168.204671, 81.401788)"><g><path d="M -2.226562 -13.890625 C -0.480469 -14.953125 0.0585938 -16.210938 -0.421875 -18.273438 L -0.96875 -20.617188 L -3.3125 -20.070312 L -2.671875 -17.328125 L -1.628906 -17.574219 C -1.28125 -16.464844 -1.5 -15.488281 -2.742188 -14.695312 Z M -2.226562 -13.890625 "/></g></g></g><g fill="#2c2c2c" fill-opacity="1"><g transform="translate(172.222424, 80.30089)"><g><path d="M 4.632812 -0.574219 L 6.527344 -0.859375 L 7.554688 -21.648438 L 5.691406 -21.371094 L 5.066406 -4.363281 L -0.476562 -20.449219 L -2.398438 -20.164062 Z M 4.632812 -0.574219 "/></g></g></g><g fill="#2c2c2c" fill-opacity="1"><g transform="translate(182.3733, 78.77999)"><g><path d="M 1.476562 -0.0664062 L 8.691406 -0.390625 L 8.609375 -2.15625 L 3.28125 -1.917969 L 2.941406 -9.476562 L 7.691406 -9.691406 L 7.613281 -11.457031 L 2.863281 -11.246094 L 2.53125 -18.660156 L 7.773438 -18.894531 L 7.695312 -20.660156 L 0.570312 -20.34375 Z M 1.476562 -0.0664062 "/></g></g></g><g fill="#2c2c2c" fill-opacity="1"><g transform="translate(191.138855, 78.446597)"><g/></g></g><g fill="#2c2c2c" fill-opacity="1"><g transform="translate(195.185591, 78.440617)"><g><path d="M 4.367188 0.632812 C 6.820312 0.871094 8.894531 -0.703125 9.164062 -3.441406 L 9.167969 -3.472656 C 9.378906 -5.636719 8.722656 -7.246094 6.488281 -10.609375 C 4.667969 -13.4375 4.242188 -14.441406 4.367188 -15.742188 L 4.375 -15.800781 C 4.523438 -17.328125 5.632812 -18.238281 7.046875 -18.101562 C 8 -18.007812 8.890625 -17.570312 9.914062 -16.742188 L 10.117188 -18.789062 C 9.242188 -19.371094 8.347656 -19.78125 7.136719 -19.898438 C 4.769531 -20.128906 2.714844 -18.496094 2.460938 -15.898438 L 2.457031 -15.839844 C 2.261719 -13.878906 2.898438 -12.621094 5.191406 -8.988281 C 7.007812 -6.101562 7.425781 -5.011719 7.285156 -3.597656 L 7.285156 -3.570312 C 7.121094 -1.894531 5.984375 -1.015625 4.457031 -1.164062 C 3.445312 -1.265625 2.417969 -1.773438 1.144531 -2.742188 L 0.945312 -0.722656 C 2.066406 0.0273438 3.125 0.511719 4.367188 0.632812 Z M 4.367188 0.632812 "/></g></g></g><g fill="#2c2c2c" fill-opacity="1"><g transform="translate(203.83882, 79.248389)"><g><path d="M 1.453125 0.285156 L 8.535156 1.667969 L 8.875 -0.0664062 L 3.640625 -1.089844 L 5.089844 -8.519531 L 9.757812 -7.605469 L 10.097656 -9.34375 L 5.429688 -10.253906 L 6.855469 -17.539062 L 12.003906 -16.53125 L 12.34375 -18.269531 L 5.34375 -19.636719 Z M 1.453125 0.285156 "/></g></g></g><g fill="#2c2c2c" fill-opacity="1"><g transform="translate(212.241026, 80.846375)"><g><path d="M 1.417969 0.417969 L 8.339844 2.464844 L 8.84375 0.769531 L 3.726562 -0.742188 L 5.871094 -8 L 10.433594 -6.652344 L 10.933594 -8.347656 L 6.375 -9.695312 L 8.476562 -16.8125 L 13.511719 -15.324219 L 14.011719 -17.023438 L 7.171875 -19.042969 Z M 1.417969 0.417969 "/></g></g></g><g fill="#2c2c2c" fill-opacity="1"><g transform="translate(220.360243, 83.108562)"><g><path d="M 1.363281 0.570312 L 3.023438 1.261719 L 9.082031 -13.234375 L 8.320312 3.476562 L 9.953125 4.160156 L 17.777344 -14.566406 L 16.09375 -15.273438 L 10.199219 -1.171875 L 10.929688 -17.429688 L 9.191406 -18.15625 Z M 1.363281 0.570312 "/></g></g></g><g fill="#2c2c2c" fill-opacity="1"><g transform="translate(230.849011, 87.62772)"><g/></g></g><g fill="#2c2c2c" fill-opacity="1"><g transform="translate(234.443578, 89.322441)"><g><path d="M 1.253906 0.785156 L 2.847656 1.789062 L 7.039062 -4.890625 L 7.875 -4.367188 C 8.121094 -4.214844 8.367188 -4.058594 8.617188 -3.96875 L 7.195312 4.515625 L 8.988281 5.640625 L 10.484375 -3.449219 C 12.617188 -3.140625 14.679688 -4.136719 16.160156 -6.496094 L 16.207031 -6.570312 C 17.253906 -8.238281 17.578125 -9.847656 17.234375 -11.265625 C 16.929688 -12.6875 15.945312 -13.957031 14.421875 -14.910156 L 12.039062 -16.40625 Z M 7.933594 -6.316406 L 12.710938 -13.929688 L 13.449219 -13.46875 C 15.511719 -12.171875 16.226562 -10.148438 14.59375 -7.546875 L 14.546875 -7.472656 C 12.976562 -4.96875 10.808594 -4.515625 8.746094 -5.808594 Z M 7.933594 -6.316406 "/></g></g></g><g fill="#2c2c2c" fill-opacity="1"><g transform="translate(243.117122, 94.759255)"><g><path d="M 1.164062 0.910156 L 6.851562 5.359375 L 7.941406 3.964844 L 3.738281 0.679688 L 8.402344 -5.28125 L 12.148438 -2.351562 L 13.238281 -3.746094 L 9.492188 -6.675781 L 14.0625 -12.523438 L 18.199219 -9.289062 L 19.289062 -10.679688 L 13.667969 -15.074219 Z M 1.164062 0.910156 "/></g></g></g><g fill="#2c2c2c" fill-opacity="1"><g transform="translate(249.876991, 99.989033)"><g><path d="M 4.550781 4.554688 C 5.203125 5.175781 5.847656 5.507812 6.589844 5.652344 L 7.886719 4.285156 C 7.042969 4.121094 6.460938 3.847656 5.953125 3.371094 C 4.441406 1.933594 4.957031 -1.054688 8.867188 -5.175781 L 9.265625 -5.597656 C 13.117188 -9.65625 16.132812 -10.394531 17.648438 -8.957031 C 18.132812 -8.496094 18.390625 -7.972656 18.640625 -7.136719 L 19.996094 -8.566406 C 19.730469 -9.257812 19.496094 -9.722656 18.820312 -10.363281 C 16.652344 -12.417969 12.585938 -11.878906 7.878906 -6.914062 L 7.480469 -6.492188 C 2.769531 -1.527344 2.320312 2.441406 4.550781 4.554688 Z M 4.550781 4.554688 "/></g></g></g><g fill="#2c2c2c" fill-opacity="1"><g transform="translate(256.210402, 105.939546)"><g><path d="M 0.972656 1.113281 L 5.714844 6.558594 L 7.046875 5.398438 L 3.542969 1.375 L 9.25 -3.597656 L 12.371094 -0.0117188 L 13.707031 -1.171875 L 10.582031 -4.757812 L 16.179688 -9.632812 L 19.628906 -5.675781 L 20.960938 -6.835938 L 16.277344 -12.214844 Z M 0.972656 1.113281 "/></g></g></g><g fill="#2c2c2c" fill-opacity="1"><g transform="translate(261.84577, 112.205864)"><g><path d="M 0.84375 1.214844 L 1.871094 2.6875 L 14.769531 -6.289062 L 5.152344 7.402344 L 6.164062 8.851562 L 22.820312 -2.742188 L 21.777344 -4.242188 L 9.234375 4.488281 L 18.578125 -8.835938 L 17.503906 -10.382812 Z M 0.84375 1.214844 "/></g></g></g><g fill="#2c2c2c" fill-opacity="1"><g transform="translate(268.232321, 121.445122)"><g><path d="M 1.664062 3.023438 L 2.570312 4.675781 L 18.804688 -4.253906 L 20.300781 -1.535156 L 21.851562 -2.390625 L 17.964844 -9.453125 L 16.414062 -8.597656 L 17.898438 -5.90625 Z M 1.664062 3.023438 "/></g></g></g><g fill="#2c2c2c" fill-opacity="1"><g transform="translate(272.106917, 128.44096)"><g><path d="M 0.597656 1.351562 L 3.277344 7.394531 L 4.894531 6.679688 L 2.980469 2.359375 L 19.917969 -5.148438 L 19.15625 -6.871094 Z M 0.597656 1.351562 "/></g></g></g><g fill="#2c2c2c" fill-opacity="1"><g transform="translate(275.211129, 135.22413)"><g><path d="M 1.363281 4.070312 L 1.960938 5.855469 L 10.070312 3.140625 L 22.503906 3.289062 L 21.898438 1.472656 L 12.085938 1.488281 L 19.9375 -4.382812 L 19.300781 -6.28125 L 9.472656 1.351562 Z M 1.363281 4.070312 "/></g></g></g></svg>